<svg width="77" height="75" viewBox="0 0 77 75" fill="none" xmlns="http://www.w3.org/2000/svg">
<path opacity="0.1" d="M39.7932 37.5052C39.8482 37.5052 39.8927 37.4606 39.8927 37.4057C39.8927 37.3508 39.8482 37.3062 39.7932 37.3062C39.7383 37.3062 39.6938 37.3508 39.6938 37.4057C39.6938 37.4606 39.7383 37.5052 39.7932 37.5052Z" fill="black"/>
<path opacity="0.1" d="M39.7932 38.102C39.8482 38.102 39.8927 38.0575 39.8927 38.0025C39.8927 37.9476 39.8482 37.903 39.7932 37.903C39.7383 37.903 39.6938 37.9476 39.6938 38.0025C39.6938 38.0575 39.7383 38.102 39.7932 38.102Z" fill="black"/>
<path opacity="0.11" d="M39.1964 38.699C39.2513 38.699 39.2959 38.6545 39.2959 38.5995C39.2959 38.5446 39.2513 38.5001 39.1964 38.5001C39.1414 38.5001 39.0969 38.5446 39.0969 38.5995C39.0969 38.6545 39.1414 38.699 39.1964 38.699Z" fill="black"/>
<path opacity="0.11" d="M38.4005 38.8979C38.4555 38.8979 38.5 38.8533 38.5 38.7984C38.5 38.7435 38.4555 38.6989 38.4005 38.6989C38.3456 38.6989 38.3011 38.7435 38.3011 38.7984C38.3011 38.8533 38.3456 38.8979 38.4005 38.8979Z" fill="black"/>
<path opacity="0.11" d="M37.6047 38.5C37.6596 38.5 37.7042 38.4555 37.7042 38.4005C37.7042 38.3456 37.6596 38.3011 37.6047 38.3011C37.5497 38.3011 37.5052 38.3456 37.5052 38.4005C37.5052 38.4555 37.5497 38.5 37.6047 38.5Z" fill="black"/>
<path opacity="0.11" d="M37.2067 37.5052C37.2616 37.5052 37.3062 37.4606 37.3062 37.4057C37.3062 37.3508 37.2616 37.3062 37.2067 37.3062C37.1517 37.3062 37.1072 37.3508 37.1072 37.4057C37.1072 37.4606 37.1517 37.5052 37.2067 37.5052Z" fill="black"/>
<path opacity="0.12" d="M37.4057 36.5103C37.4606 36.5103 37.5052 36.4658 37.5052 36.4108C37.5052 36.3559 37.4606 36.3113 37.4057 36.3113C37.3507 36.3113 37.3062 36.3559 37.3062 36.4108C37.3062 36.4658 37.3507 36.5103 37.4057 36.5103Z" fill="black"/>
<path opacity="0.12" d="M38.2015 35.7145C38.2565 35.7145 38.301 35.6699 38.301 35.615C38.301 35.56 38.2565 35.5155 38.2015 35.5155C38.1466 35.5155 38.1021 35.56 38.1021 35.615C38.1021 35.6699 38.1466 35.7145 38.2015 35.7145Z" fill="black"/>
<path opacity="0.12" d="M39.1964 35.5155C39.2513 35.5155 39.2959 35.4709 39.2959 35.416C39.2959 35.361 39.2513 35.3165 39.1964 35.3165C39.1414 35.3165 39.0969 35.361 39.0969 35.416C39.0969 35.4709 39.1414 35.5155 39.1964 35.5155Z" fill="black"/>
<path opacity="0.13" d="M40.3902 36.1124C40.4452 36.1124 40.4897 36.0679 40.4897 36.013C40.4897 35.958 40.4452 35.9135 40.3902 35.9135C40.3353 35.9135 40.2907 35.958 40.2907 36.013C40.2907 36.0679 40.3353 36.1124 40.3902 36.1124Z" fill="black"/>
<path opacity="0.13" d="M40.9871 37.3062C41.042 37.3062 41.0866 37.2616 41.0866 37.2067C41.0866 37.1517 41.042 37.1072 40.9871 37.1072C40.9321 37.1072 40.8876 37.1517 40.8876 37.2067C40.8876 37.2616 40.9321 37.3062 40.9871 37.3062Z" fill="black"/>
<path opacity="0.13" d="M40.7881 38.699C40.843 38.699 40.8876 38.6545 40.8876 38.5995C40.8876 38.5446 40.843 38.5001 40.7881 38.5001C40.7331 38.5001 40.6886 38.5446 40.6886 38.5995C40.6886 38.6545 40.7331 38.699 40.7881 38.699Z" fill="black"/>
<path opacity="0.14" d="M39.7932 39.6939C39.8482 39.6939 39.8927 39.6493 39.8927 39.5944C39.8927 39.5394 39.8482 39.4949 39.7932 39.4949C39.7383 39.4949 39.6938 39.5394 39.6938 39.5944C39.6938 39.6493 39.7383 39.6939 39.7932 39.6939Z" fill="black"/>
<path opacity="0.14" d="M38.2015 40.0917C38.2565 40.0917 38.301 40.0472 38.301 39.9922C38.301 39.9373 38.2565 39.8928 38.2015 39.8928C38.1466 39.8928 38.1021 39.9373 38.1021 39.9922C38.1021 40.0472 38.1466 40.0917 38.2015 40.0917Z" fill="black"/>
<path opacity="0.14" d="M36.8088 39.2959C36.8638 39.2959 36.9083 39.2513 36.9083 39.1964C36.9083 39.1414 36.8638 39.0969 36.8088 39.0969C36.7539 39.0969 36.7094 39.1414 36.7094 39.1964C36.7094 39.2513 36.7539 39.2959 36.8088 39.2959Z" fill="black"/>
<path opacity="0.14" d="M36.013 37.9032C36.0679 37.9032 36.1125 37.8586 36.1125 37.8037C36.1125 37.7487 36.0679 37.7042 36.013 37.7042C35.958 37.7042 35.9135 37.7487 35.9135 37.8037C35.9135 37.8586 35.958 37.9032 36.013 37.9032Z" fill="black"/>
<path opacity="0.15" d="M36.2118 36.1124C36.2668 36.1124 36.3113 36.0679 36.3113 36.013C36.3113 35.958 36.2668 35.9135 36.2118 35.9135C36.1569 35.9135 36.1124 35.958 36.1124 36.013C36.1124 36.0679 36.1569 36.1124 36.2118 36.1124Z" fill="black"/>
<path opacity="0.15" d="M37.4057 34.7196C37.4606 34.7196 37.5052 34.6751 37.5052 34.6201C37.5052 34.5652 37.4606 34.5207 37.4057 34.5207C37.3507 34.5207 37.3062 34.5652 37.3062 34.6201C37.3062 34.6751 37.3507 34.7196 37.4057 34.7196Z" fill="black"/>
<path opacity="0.15" d="M39.3954 34.3218C39.4503 34.3218 39.4949 34.2772 39.4949 34.2223C39.4949 34.1673 39.4503 34.1228 39.3954 34.1228C39.3404 34.1228 39.2959 34.1673 39.2959 34.2223C39.2959 34.2772 39.3404 34.3218 39.3954 34.3218Z" fill="black"/>
<path opacity="0.16" d="M41.1861 35.1176C41.241 35.1176 41.2856 35.0731 41.2856 35.0181C41.2856 34.9632 41.241 34.9186 41.1861 34.9186C41.1311 34.9186 41.0866 34.9632 41.0866 35.0181C41.0866 35.0731 41.1311 35.1176 41.1861 35.1176Z" fill="black"/>
<path opacity="0.16" d="M42.1809 37.0078C42.2908 37.0078 42.3799 36.9187 42.3799 36.8088C42.3799 36.6989 42.2908 36.6099 42.1809 36.6099C42.071 36.6099 41.9819 36.6989 41.9819 36.8088C41.9819 36.9187 42.071 37.0078 42.1809 37.0078Z" fill="black"/>
<path opacity="0.16" d="M41.9819 39.1963C42.0918 39.1963 42.1809 39.1073 42.1809 38.9974C42.1809 38.8875 42.0918 38.7984 41.9819 38.7984C41.872 38.7984 41.783 38.8875 41.783 38.9974C41.783 39.1073 41.872 39.1963 41.9819 39.1963Z" fill="black"/>
<path opacity="0.17" d="M40.5892 40.788C40.6991 40.788 40.7882 40.699 40.7882 40.5891C40.7882 40.4792 40.6991 40.3901 40.5892 40.3901C40.4793 40.3901 40.3902 40.4792 40.3902 40.5891C40.3902 40.699 40.4793 40.788 40.5892 40.788Z" fill="black"/>
<path opacity="0.17" d="M38.4005 41.385C38.5104 41.385 38.5995 41.2959 38.5995 41.1861C38.5995 41.0762 38.5104 40.9871 38.4005 40.9871C38.2906 40.9871 38.2016 41.0762 38.2016 41.1861C38.2016 41.2959 38.2906 41.385 38.4005 41.385Z" fill="black"/>
<path opacity="0.17" d="M36.2118 40.5892C36.3217 40.5892 36.4108 40.5001 36.4108 40.3902C36.4108 40.2803 36.3217 40.1913 36.2118 40.1913C36.1019 40.1913 36.0129 40.2803 36.0129 40.3902C36.0129 40.5001 36.1019 40.5892 36.2118 40.5892Z" fill="black"/>
<path opacity="0.17" d="M34.8191 38.4005C34.929 38.4005 35.0181 38.3114 35.0181 38.2015C35.0181 38.0916 34.929 38.0026 34.8191 38.0026C34.7092 38.0026 34.6201 38.0916 34.6201 38.2015C34.6201 38.3114 34.7092 38.4005 34.8191 38.4005Z" fill="black"/>
<path opacity="0.18" d="M35.0181 36.0129C35.128 36.0129 35.2171 35.9238 35.2171 35.814C35.2171 35.7041 35.128 35.615 35.0181 35.615C34.9082 35.615 34.8192 35.7041 34.8192 35.814C34.8192 35.9238 34.9082 36.0129 35.0181 36.0129Z" fill="black"/>
<path opacity="0.18" d="M36.6098 33.8242C36.7197 33.8242 36.8088 33.7352 36.8088 33.6253C36.8088 33.5154 36.7197 33.4263 36.6098 33.4263C36.4999 33.4263 36.4109 33.5154 36.4109 33.6253C36.4109 33.7352 36.4999 33.8242 36.6098 33.8242Z" fill="black"/>
<path opacity="0.18" d="M39.1964 33.2274C39.3063 33.2274 39.3953 33.1383 39.3953 33.0284C39.3953 32.9185 39.3063 32.8295 39.1964 32.8295C39.0865 32.8295 38.9974 32.9185 38.9974 33.0284C38.9974 33.1383 39.0865 33.2274 39.1964 33.2274Z" fill="black"/>
<path opacity="0.19" d="M41.7829 34.0232C41.8928 34.0232 41.9819 33.9342 41.9819 33.8243C41.9819 33.7144 41.8928 33.6253 41.7829 33.6253C41.673 33.6253 41.584 33.7144 41.584 33.8243C41.584 33.9342 41.673 34.0232 41.7829 34.0232Z" fill="black"/>
<path opacity="0.19" d="M43.3746 36.4108C43.4845 36.4108 43.5736 36.3217 43.5736 36.2118C43.5736 36.1019 43.4845 36.0128 43.3746 36.0128C43.2647 36.0128 43.1757 36.1019 43.1757 36.2118C43.1757 36.3217 43.2647 36.4108 43.3746 36.4108Z" fill="black"/>
<path opacity="0.19" d="M43.3746 39.3953C43.4845 39.3953 43.5736 39.3063 43.5736 39.1964C43.5736 39.0865 43.4845 38.9974 43.3746 38.9974C43.2647 38.9974 43.1757 39.0865 43.1757 39.1964C43.1757 39.3063 43.2647 39.3953 43.3746 39.3953Z" fill="black"/>
<path opacity="0.2" d="M41.5839 41.7829C41.6938 41.7829 41.7829 41.6938 41.7829 41.5839C41.7829 41.474 41.6938 41.3849 41.5839 41.3849C41.474 41.3849 41.3849 41.474 41.3849 41.5839C41.3849 41.6938 41.474 41.7829 41.5839 41.7829Z" fill="black"/>
<path opacity="0.2" d="M38.5995 42.5787C38.7094 42.5787 38.7985 42.4897 38.7985 42.3798C38.7985 42.2699 38.7094 42.1808 38.5995 42.1808C38.4896 42.1808 38.4005 42.2699 38.4005 42.3798C38.4005 42.4897 38.4896 42.5787 38.5995 42.5787Z" fill="black"/>
<path opacity="0.2" d="M35.615 41.7829C35.7249 41.7829 35.8139 41.6938 35.8139 41.5839C35.8139 41.474 35.7249 41.3849 35.615 41.3849C35.5051 41.3849 35.416 41.474 35.416 41.5839C35.416 41.6938 35.5051 41.7829 35.615 41.7829Z" fill="black"/>
<path opacity="0.2" d="M33.6253 39.1963C33.7352 39.1963 33.8242 39.1073 33.8242 38.9974C33.8242 38.8875 33.7352 38.7984 33.6253 38.7984C33.5154 38.7984 33.4263 38.8875 33.4263 38.9974C33.4263 39.1073 33.5154 39.1963 33.6253 39.1963Z" fill="black"/>
<path opacity="0.21" d="M33.6253 35.8139C33.7352 35.8139 33.8242 35.7249 33.8242 35.615C33.8242 35.5051 33.7352 35.416 33.6253 35.416C33.5154 35.416 33.4263 35.5051 33.4263 35.615C33.4263 35.7249 33.5154 35.8139 33.6253 35.8139Z" fill="black"/>
<path opacity="0.21" d="M35.615 33.0284C35.7249 33.0284 35.8139 32.9393 35.8139 32.8294C35.8139 32.7195 35.7249 32.6305 35.615 32.6305C35.5051 32.6305 35.416 32.7195 35.416 32.8294C35.416 32.9393 35.5051 33.0284 35.615 33.0284Z" fill="black"/>
<path opacity="0.21" d="M38.7985 31.8347C38.9084 31.8347 38.9975 31.7456 38.9975 31.6357C38.9975 31.5258 38.9084 31.4367 38.7985 31.4367C38.6886 31.4367 38.5995 31.5258 38.5995 31.6357C38.5995 31.7456 38.6886 31.8347 38.7985 31.8347Z" fill="black"/>
<path opacity="0.22" d="M42.1809 32.8294C42.2908 32.8294 42.3799 32.7403 42.3799 32.6304C42.3799 32.5205 42.2908 32.4315 42.1809 32.4315C42.071 32.4315 41.9819 32.5205 41.9819 32.6304C41.9819 32.7403 42.071 32.8294 42.1809 32.8294Z" fill="black"/>
<path opacity="0.22" d="M44.3695 35.6149C44.4794 35.6149 44.5684 35.5259 44.5684 35.416C44.5684 35.3061 44.4794 35.217 44.3695 35.217C44.2596 35.217 44.1705 35.3061 44.1705 35.416C44.1705 35.5259 44.2596 35.6149 44.3695 35.6149Z" fill="black"/>
<path opacity="0.22" d="M44.5685 39.3953C44.6784 39.3953 44.7674 39.3063 44.7674 39.1964C44.7674 39.0865 44.6784 38.9974 44.5685 38.9974C44.4586 38.9974 44.3695 39.0865 44.3695 39.1964C44.3695 39.3063 44.4586 39.3953 44.5685 39.3953Z" fill="black"/>
<path opacity="0.23" d="M42.5788 42.3799C42.6887 42.3799 42.7777 42.2908 42.7777 42.1809C42.7777 42.071 42.6887 41.9819 42.5788 41.9819C42.4689 41.9819 42.3798 42.071 42.3798 42.1809C42.3798 42.2908 42.4689 42.3799 42.5788 42.3799Z" fill="black"/>
<path opacity="0.23" d="M38.9974 43.9716C39.1073 43.9716 39.1963 43.8825 39.1963 43.7726C39.1963 43.6627 39.1073 43.5736 38.9974 43.5736C38.8875 43.5736 38.7984 43.6627 38.7984 43.7726C38.7984 43.8825 38.8875 43.9716 38.9974 43.9716Z" fill="black"/>
<path opacity="0.23" d="M35.2171 42.9767C35.327 42.9767 35.4161 42.8876 35.4161 42.7778C35.4161 42.6679 35.327 42.5788 35.2171 42.5788C35.1072 42.5788 35.0181 42.6679 35.0181 42.7778C35.0181 42.8876 35.1072 42.9767 35.2171 42.9767Z" fill="black"/>
<path opacity="0.23" d="M32.6306 39.9922C32.7404 39.9922 32.8295 39.9031 32.8295 39.7932C32.8295 39.6833 32.7404 39.5943 32.6306 39.5943C32.5207 39.5943 32.4316 39.6833 32.4316 39.7932C32.4316 39.9031 32.5207 39.9922 32.6306 39.9922Z" fill="black"/>
<path opacity="0.24" d="M32.2326 36.0129C32.3425 36.0129 32.4315 35.9238 32.4315 35.814C32.4315 35.7041 32.3425 35.615 32.2326 35.615C32.1227 35.615 32.0336 35.7041 32.0336 35.814C32.0336 35.9238 32.1227 36.0129 32.2326 36.0129Z" fill="black"/>
<path opacity="0.24" d="M34.4211 32.4315C34.531 32.4315 34.6201 32.3425 34.6201 32.2326C34.6201 32.1227 34.531 32.0336 34.4211 32.0336C34.3112 32.0336 34.2222 32.1227 34.2222 32.2326C34.2222 32.3425 34.3112 32.4315 34.4211 32.4315Z" fill="black"/>
<path opacity="0.24" d="M38.2015 30.6408C38.3114 30.6408 38.4005 30.5517 38.4005 30.4419C38.4005 30.332 38.3114 30.2429 38.2015 30.2429C38.0916 30.2429 38.0026 30.332 38.0026 30.4419C38.0026 30.5517 38.0916 30.6408 38.2015 30.6408Z" fill="black"/>
<path opacity="0.25" d="M42.3798 31.6357C42.4897 31.6357 42.5787 31.5466 42.5787 31.4367C42.5787 31.3268 42.4897 31.2378 42.3798 31.2378C42.2699 31.2378 42.1808 31.3268 42.1808 31.4367C42.1808 31.5466 42.2699 31.6357 42.3798 31.6357Z" fill="black"/>
<path opacity="0.25" d="M45.3643 34.6201C45.4742 34.6201 45.5633 34.531 45.5633 34.4211C45.5633 34.3112 45.4742 34.2222 45.3643 34.2222C45.2544 34.2222 45.1654 34.3112 45.1654 34.4211C45.1654 34.531 45.2544 34.6201 45.3643 34.6201Z" fill="black"/>
<path opacity="0.25" d="M45.9612 38.9975C46.0711 38.9975 46.1601 38.9084 46.1601 38.7985C46.1601 38.6886 46.0711 38.5995 45.9612 38.5995C45.8513 38.5995 45.7622 38.6886 45.7622 38.7985C45.7622 38.9084 45.8513 38.9975 45.9612 38.9975Z" fill="black"/>
<path opacity="0.26" d="M43.7726 42.9767C43.8825 42.9767 43.9716 42.8876 43.9716 42.7778C43.9716 42.6679 43.8825 42.5788 43.7726 42.5788C43.6627 42.5788 43.5737 42.6679 43.5737 42.7778C43.5737 42.8876 43.6627 42.9767 43.7726 42.9767Z" fill="black"/>
<path opacity="0.26" d="M39.7932 45.1654C39.9031 45.1654 39.9922 45.0763 39.9922 44.9665C39.9922 44.8566 39.9031 44.7675 39.7932 44.7675C39.6833 44.7675 39.5943 44.8566 39.5943 44.9665C39.5943 45.0763 39.6833 45.1654 39.7932 45.1654Z" fill="black"/>
<path opacity="0.26" d="M35.2171 44.469C35.3819 44.469 35.5155 44.3354 35.5155 44.1706C35.5155 44.0058 35.3819 43.8721 35.2171 43.8721C35.0523 43.8721 34.9186 44.0058 34.9186 44.1706C34.9186 44.3354 35.0523 44.469 35.2171 44.469Z" fill="black"/>
<path opacity="0.26" d="M31.8346 41.0865C31.9994 41.0865 32.133 40.9529 32.133 40.7881C32.133 40.6232 31.9994 40.4896 31.8346 40.4896C31.6697 40.4896 31.5361 40.6232 31.5361 40.7881C31.5361 40.9529 31.6697 41.0865 31.8346 41.0865Z" fill="black"/>
<path opacity="0.27" d="M31.0387 36.5104C31.2035 36.5104 31.3372 36.3768 31.3372 36.2119C31.3372 36.0471 31.2035 35.9135 31.0387 35.9135C30.8739 35.9135 30.7403 36.0471 30.7403 36.2119C30.7403 36.3768 30.8739 36.5104 31.0387 36.5104Z" fill="black"/>
<path opacity="0.27" d="M33.0284 32.133C33.1932 32.133 33.3268 31.9994 33.3268 31.8346C33.3268 31.6697 33.1932 31.5361 33.0284 31.5361C32.8636 31.5361 32.7299 31.6697 32.7299 31.8346C32.7299 31.9994 32.8636 32.133 33.0284 32.133Z" fill="black"/>
<path opacity="0.27" d="M37.4057 29.7455C37.5705 29.7455 37.7041 29.6118 37.7041 29.447C37.7041 29.2822 37.5705 29.1486 37.4057 29.1486C37.2408 29.1486 37.1072 29.2822 37.1072 29.447C37.1072 29.6118 37.2408 29.7455 37.4057 29.7455Z" fill="black"/>
<path opacity="0.28" d="M42.3799 30.3424C42.5447 30.3424 42.6784 30.2088 42.6784 30.044C42.6784 29.8792 42.5447 29.7455 42.3799 29.7455C42.2151 29.7455 42.0815 29.8792 42.0815 30.044C42.0815 30.2088 42.2151 30.3424 42.3799 30.3424Z" fill="black"/>
<path opacity="0.28" d="M46.1602 33.7248C46.325 33.7248 46.4586 33.5912 46.4586 33.4264C46.4586 33.2616 46.325 33.1279 46.1602 33.1279C45.9953 33.1279 45.8617 33.2616 45.8617 33.4264C45.8617 33.5912 45.9953 33.7248 46.1602 33.7248Z" fill="black"/>
<path opacity="0.28" d="M47.354 38.6989C47.5188 38.6989 47.6525 38.5653 47.6525 38.4005C47.6525 38.2357 47.5188 38.1021 47.354 38.1021C47.1892 38.1021 47.0556 38.2357 47.0556 38.4005C47.0556 38.5653 47.1892 38.6989 47.354 38.6989Z" fill="black"/>
<path opacity="0.29" d="M45.1654 43.4742C45.3303 43.4742 45.4639 43.3406 45.4639 43.1757C45.4639 43.0109 45.3303 42.8773 45.1654 42.8773C45.0006 42.8773 44.867 43.0109 44.867 43.1757C44.867 43.3406 45.0006 43.4742 45.1654 43.4742Z" fill="black"/>
<path opacity="0.29" d="M40.5892 46.2597C40.754 46.2597 40.8876 46.1261 40.8876 45.9613C40.8876 45.7965 40.754 45.6628 40.5892 45.6628C40.4244 45.6628 40.2907 45.7965 40.2907 45.9613C40.2907 46.1261 40.4244 46.2597 40.5892 46.2597Z" fill="black"/>
<path opacity="0.29" d="M35.2171 45.8618C35.3819 45.8618 35.5155 45.7281 35.5155 45.5633C35.5155 45.3985 35.3819 45.2649 35.2171 45.2649C35.0523 45.2649 34.9186 45.3985 34.9186 45.5633C34.9186 45.7281 35.0523 45.8618 35.2171 45.8618Z" fill="black"/>
<path opacity="0.29" d="M31.0387 42.2803C31.2035 42.2803 31.3372 42.1467 31.3372 41.9819C31.3372 41.8171 31.2035 41.6834 31.0387 41.6834C30.8739 41.6834 30.7403 41.8171 30.7403 41.9819C30.7403 42.1467 30.8739 42.2803 31.0387 42.2803Z" fill="black"/>
<path opacity="0.3" d="M29.646 36.9082C29.8108 36.9082 29.9444 36.7746 29.9444 36.6098C29.9444 36.445 29.8108 36.3113 29.646 36.3113C29.4812 36.3113 29.3475 36.445 29.3475 36.6098C29.3475 36.7746 29.4812 36.9082 29.646 36.9082Z" fill="black"/>
<path opacity="0.3" d="M31.6357 31.7351C31.8005 31.7351 31.9341 31.6015 31.9341 31.4367C31.9341 31.2719 31.8005 31.1382 31.6357 31.1382C31.4709 31.1382 31.3372 31.2719 31.3372 31.4367C31.3372 31.6015 31.4709 31.7351 31.6357 31.7351Z" fill="black"/>
<path opacity="0.3" d="M36.4108 28.5517C36.5756 28.5517 36.7093 28.4181 36.7093 28.2533C36.7093 28.0885 36.5756 27.9548 36.4108 27.9548C36.246 27.9548 36.1124 28.0885 36.1124 28.2533C36.1124 28.4181 36.246 28.5517 36.4108 28.5517Z" fill="black"/>
<path opacity="0.31" d="M42.1809 28.7506C42.3457 28.7506 42.4793 28.617 42.4793 28.4522C42.4793 28.2873 42.3457 28.1537 42.1809 28.1537C42.0161 28.1537 41.8824 28.2873 41.8824 28.4522C41.8824 28.617 42.0161 28.7506 42.1809 28.7506Z" fill="black"/>
<path opacity="0.31" d="M46.7571 32.332C46.922 32.332 47.0556 32.1984 47.0556 32.0336C47.0556 31.8687 46.922 31.7351 46.7571 31.7351C46.5923 31.7351 46.4587 31.8687 46.4587 32.0336C46.4587 32.1984 46.5923 32.332 46.7571 32.332Z" fill="black"/>
<path opacity="0.31" d="M48.5478 38.1021C48.7127 38.1021 48.8463 37.9685 48.8463 37.8036C48.8463 37.6388 48.7127 37.5052 48.5478 37.5052C48.383 37.5052 48.2494 37.6388 48.2494 37.8036C48.2494 37.9685 48.383 38.1021 48.5478 38.1021Z" fill="black"/>
<path opacity="0.31" d="M46.5582 43.6731C46.723 43.6731 46.8566 43.5395 46.8566 43.3746C46.8566 43.2098 46.723 43.0762 46.5582 43.0762C46.3933 43.0762 46.2597 43.2098 46.2597 43.3746C46.2597 43.5395 46.3933 43.6731 46.5582 43.6731Z" fill="black"/>
<path opacity="0.32" d="M41.7829 47.2545C41.9477 47.2545 42.0814 47.1208 42.0814 46.956C42.0814 46.7912 41.9477 46.6576 41.7829 46.6576C41.6181 46.6576 41.4845 46.7912 41.4845 46.956C41.4845 47.1208 41.6181 47.2545 41.7829 47.2545Z" fill="black"/>
<path opacity="0.32" d="M35.6149 47.2545C35.7798 47.2545 35.9134 47.1208 35.9134 46.956C35.9134 46.7912 35.7798 46.6576 35.6149 46.6576C35.4501 46.6576 35.3165 46.7912 35.3165 46.956C35.3165 47.1208 35.4501 47.2545 35.6149 47.2545Z" fill="black"/>
<path opacity="0.32" d="M30.4419 43.6731C30.6067 43.6731 30.7403 43.5395 30.7403 43.3746C30.7403 43.2098 30.6067 43.0762 30.4419 43.0762C30.277 43.0762 30.1434 43.2098 30.1434 43.3746C30.1434 43.5395 30.277 43.6731 30.4419 43.6731Z" fill="black"/>
<path opacity="0.33" d="M28.4522 37.7041C28.617 37.7041 28.7506 37.5705 28.7506 37.4057C28.7506 37.2408 28.617 37.1072 28.4522 37.1072C28.2873 37.1072 28.1537 37.2408 28.1537 37.4057C28.1537 37.5705 28.2873 37.7041 28.4522 37.7041Z" fill="black"/>
<path opacity="0.33" d="M30.2429 31.7351C30.4077 31.7351 30.5413 31.6015 30.5413 31.4367C30.5413 31.2719 30.4077 31.1382 30.2429 31.1382C30.078 31.1382 29.9444 31.2719 29.9444 31.4367C29.9444 31.6015 30.078 31.7351 30.2429 31.7351Z" fill="black"/>
<path opacity="0.33" d="M35.2171 27.7557C35.3819 27.7557 35.5155 27.6221 35.5155 27.4573C35.5155 27.2925 35.3819 27.1588 35.2171 27.1588C35.0523 27.1588 34.9186 27.2925 34.9186 27.4573C34.9186 27.6221 35.0523 27.7557 35.2171 27.7557Z" fill="black"/>
<path opacity="0.34" d="M41.7829 27.3579C41.9477 27.3579 42.0814 27.2243 42.0814 27.0594C42.0814 26.8946 41.9477 26.761 41.7829 26.761C41.6181 26.761 41.4845 26.8946 41.4845 27.0594C41.4845 27.2243 41.6181 27.3579 41.7829 27.3579Z" fill="black"/>
<path opacity="0.34" d="M47.354 30.9393C47.5188 30.9393 47.6525 30.8057 47.6525 30.6409C47.6525 30.476 47.5188 30.3424 47.354 30.3424C47.1892 30.3424 47.0556 30.476 47.0556 30.6409C47.0556 30.8057 47.1892 30.9393 47.354 30.9393Z" fill="black"/>
<path opacity="0.34" d="M49.7416 37.1072C49.9064 37.1072 50.04 36.9736 50.04 36.8088C50.04 36.644 49.9064 36.5103 49.7416 36.5103C49.5767 36.5103 49.4431 36.644 49.4431 36.8088C49.4431 36.9736 49.5767 37.1072 49.7416 37.1072Z" fill="black"/>
<path opacity="0.34" d="M48.1499 43.6731C48.3147 43.6731 48.4483 43.5395 48.4483 43.3746C48.4483 43.2098 48.3147 43.0762 48.1499 43.0762C47.985 43.0762 47.8514 43.2098 47.8514 43.3746C47.8514 43.5395 47.985 43.6731 48.1499 43.6731Z" fill="black"/>
<path opacity="0.35" d="M42.9767 48.2493C43.1416 48.2493 43.2752 48.1157 43.2752 47.9509C43.2752 47.786 43.1416 47.6524 42.9767 47.6524C42.8119 47.6524 42.6783 47.786 42.6783 47.9509C42.6783 48.1157 42.8119 48.2493 42.9767 48.2493Z" fill="black"/>
<path opacity="0.35" d="M36.0129 48.6473C36.1778 48.6473 36.3114 48.5137 36.3114 48.3489C36.3114 48.184 36.1778 48.0504 36.0129 48.0504C35.8481 48.0504 35.7145 48.184 35.7145 48.3489C35.7145 48.5137 35.8481 48.6473 36.0129 48.6473Z" fill="black"/>
<path opacity="0.35" d="M30.0439 45.0659C30.2087 45.0659 30.3423 44.9323 30.3423 44.7674C30.3423 44.6026 30.2087 44.469 30.0439 44.469C29.879 44.469 29.7454 44.6026 29.7454 44.7674C29.7454 44.9323 29.879 45.0659 30.0439 45.0659Z" fill="black"/>
<path opacity="0.36" d="M27.2584 38.6989C27.4233 38.6989 27.5569 38.5653 27.5569 38.4005C27.5569 38.2357 27.4233 38.1021 27.2584 38.1021C27.0936 38.1021 26.96 38.2357 26.96 38.4005C26.96 38.5653 27.0936 38.6989 27.2584 38.6989Z" fill="black"/>
<path opacity="0.36" d="M28.6511 31.8346C28.8709 31.8346 29.0491 31.6565 29.0491 31.4367C29.0491 31.2169 28.8709 31.0388 28.6511 31.0388C28.4314 31.0388 28.2532 31.2169 28.2532 31.4367C28.2532 31.6565 28.4314 31.8346 28.6511 31.8346Z" fill="black"/>
<path opacity="0.36" d="M34.0232 27.0594C34.243 27.0594 34.4212 26.8812 34.4212 26.6615C34.4212 26.4417 34.243 26.2635 34.0232 26.2635C33.8035 26.2635 33.6253 26.4417 33.6253 26.6615C33.6253 26.8812 33.8035 27.0594 34.0232 27.0594Z" fill="black"/>
<path opacity="0.37" d="M41.186 26.0647C41.4058 26.0647 41.584 25.8865 41.584 25.6667C41.584 25.447 41.4058 25.2688 41.186 25.2688C40.9663 25.2688 40.7881 25.447 40.7881 25.6667C40.7881 25.8865 40.9663 26.0647 41.186 26.0647Z" fill="black"/>
<path opacity="0.37" d="M47.752 29.6459C47.9718 29.6459 48.1499 29.4678 48.1499 29.248C48.1499 29.0282 47.9718 28.8501 47.752 28.8501C47.5322 28.8501 47.354 29.0282 47.354 29.248C47.354 29.4678 47.5322 29.6459 47.752 29.6459Z" fill="black"/>
<path opacity="0.37" d="M50.9354 36.2119C51.1552 36.2119 51.3333 36.0337 51.3333 35.8139C51.3333 35.5942 51.1552 35.416 50.9354 35.416C50.7156 35.416 50.5374 35.5942 50.5374 35.8139C50.5374 36.0337 50.7156 36.2119 50.9354 36.2119Z" fill="black"/>
<path opacity="0.37" d="M49.7415 43.5737C49.9613 43.5737 50.1395 43.3955 50.1395 43.1757C50.1395 42.956 49.9613 42.7778 49.7415 42.7778C49.5218 42.7778 49.3436 42.956 49.3436 43.1757C49.3436 43.3955 49.5218 43.5737 49.7415 43.5737Z" fill="black"/>
<path opacity="0.38" d="M44.3694 48.9458C44.5892 48.9458 44.7674 48.7676 44.7674 48.5478C44.7674 48.3281 44.5892 48.1499 44.3694 48.1499C44.1497 48.1499 43.9715 48.3281 43.9715 48.5478C43.9715 48.7676 44.1497 48.9458 44.3694 48.9458Z" fill="black"/>
<path opacity="0.38" d="M36.8088 50.1395C37.0286 50.1395 37.2067 49.9613 37.2067 49.7415C37.2067 49.5218 37.0286 49.3436 36.8088 49.3436C36.589 49.3436 36.4109 49.5218 36.4109 49.7415C36.4109 49.9613 36.589 50.1395 36.8088 50.1395Z" fill="black"/>
<path opacity="0.38" d="M29.845 46.7571C30.0648 46.7571 30.2429 46.5789 30.2429 46.3591C30.2429 46.1394 30.0648 45.9612 29.845 45.9612C29.6252 45.9612 29.4471 46.1394 29.4471 46.3591C29.4471 46.5789 29.6252 46.7571 29.845 46.7571Z" fill="black"/>
<path opacity="0.39" d="M26.0646 39.9923C26.2844 39.9923 26.4625 39.8141 26.4625 39.5943C26.4625 39.3746 26.2844 39.1964 26.0646 39.1964C25.8448 39.1964 25.6667 39.3746 25.6667 39.5943C25.6667 39.8141 25.8448 39.9923 26.0646 39.9923Z" fill="black"/>
<path opacity="0.39" d="M27.0594 32.2326C27.2792 32.2326 27.4574 32.0544 27.4574 31.8347C27.4574 31.6149 27.2792 31.4367 27.0594 31.4367C26.8397 31.4367 26.6615 31.6149 26.6615 31.8347C26.6615 32.0544 26.8397 32.2326 27.0594 32.2326Z" fill="black"/>
<path opacity="0.39" d="M32.4315 26.2635C32.6513 26.2635 32.8295 26.0854 32.8295 25.8656C32.8295 25.6458 32.6513 25.4677 32.4315 25.4677C32.2118 25.4677 32.0336 25.6458 32.0336 25.8656C32.0336 26.0854 32.2118 26.2635 32.4315 26.2635Z" fill="black"/>
<path opacity="0.4" d="M40.3902 24.6718C40.61 24.6718 40.7881 24.4937 40.7881 24.2739C40.7881 24.0541 40.61 23.8759 40.3902 23.8759C40.1704 23.8759 39.9922 24.0541 39.9922 24.2739C39.9922 24.4937 40.1704 24.6718 40.3902 24.6718Z" fill="black"/>
<path opacity="0.4" d="M47.752 27.8554C47.9718 27.8554 48.1499 27.6772 48.1499 27.4574C48.1499 27.2377 47.9718 27.0595 47.752 27.0595C47.5322 27.0595 47.354 27.2377 47.354 27.4574C47.354 27.6772 47.5322 27.8554 47.752 27.8554Z" fill="black"/>
<path opacity="0.4" d="M51.9302 35.018C52.15 35.018 52.3282 34.8399 52.3282 34.6201C52.3282 34.4003 52.15 34.2222 51.9302 34.2222C51.7105 34.2222 51.5323 34.4003 51.5323 34.6201C51.5323 34.8399 51.7105 35.018 51.9302 35.018Z" fill="black"/>
<path opacity="0.4" d="M51.3334 43.1757C51.5532 43.1757 51.7313 42.9975 51.7313 42.7778C51.7313 42.558 51.5532 42.3798 51.3334 42.3798C51.1136 42.3798 50.9355 42.558 50.9355 42.7778C50.9355 42.9975 51.1136 43.1757 51.3334 43.1757Z" fill="black"/>
<path opacity="0.41" d="M45.9613 49.5426C46.1811 49.5426 46.3592 49.3645 46.3592 49.1447C46.3592 48.9249 46.1811 48.7468 45.9613 48.7468C45.7415 48.7468 45.5634 48.9249 45.5634 49.1447C45.5634 49.3645 45.7415 49.5426 45.9613 49.5426Z" fill="black"/>
<path opacity="0.41" d="M37.8036 51.5323C38.0234 51.5323 38.2016 51.3542 38.2016 51.1344C38.2016 50.9146 38.0234 50.7365 37.8036 50.7365C37.5839 50.7365 37.4057 50.9146 37.4057 51.1344C37.4057 51.3542 37.5839 51.5323 37.8036 51.5323Z" fill="black"/>
<path opacity="0.41" d="M29.845 48.5478C30.0648 48.5478 30.2429 48.3696 30.2429 48.1498C30.2429 47.9301 30.0648 47.7519 29.845 47.7519C29.6252 47.7519 29.4471 47.9301 29.4471 48.1498C29.4471 48.3696 29.6252 48.5478 29.845 48.5478Z" fill="black"/>
<path opacity="0.42" d="M25.2687 41.385C25.4885 41.385 25.6667 41.2068 25.6667 40.987C25.6667 40.7673 25.4885 40.5891 25.2687 40.5891C25.049 40.5891 24.8708 40.7673 24.8708 40.987C24.8708 41.2068 25.049 41.385 25.2687 41.385Z" fill="black"/>
<path opacity="0.42" d="M25.4677 32.6305C25.6875 32.6305 25.8657 32.4523 25.8657 32.2325C25.8657 32.0128 25.6875 31.8346 25.4677 31.8346C25.248 31.8346 25.0698 32.0128 25.0698 32.2325C25.0698 32.4523 25.248 32.6305 25.4677 32.6305Z" fill="black"/>
<path opacity="0.42" d="M30.8398 25.8657C31.0596 25.8657 31.2378 25.6875 31.2378 25.4677C31.2378 25.248 31.0596 25.0698 30.8398 25.0698C30.6201 25.0698 30.4419 25.248 30.4419 25.4677C30.4419 25.6875 30.6201 25.8657 30.8398 25.8657Z" fill="black"/>
<path opacity="0.43" d="M39.3953 23.2791C39.6151 23.2791 39.7933 23.101 39.7933 22.8812C39.7933 22.6614 39.6151 22.4832 39.3953 22.4832C39.1756 22.4832 38.9974 22.6614 38.9974 22.8812C38.9974 23.101 39.1756 23.2791 39.3953 23.2791Z" fill="black"/>
<path opacity="0.43" d="M47.752 26.2635C47.9718 26.2635 48.1499 26.0854 48.1499 25.8656C48.1499 25.6458 47.9718 25.4677 47.752 25.4677C47.5322 25.4677 47.354 25.6458 47.354 25.8656C47.354 26.0854 47.5322 26.2635 47.752 26.2635Z" fill="black"/>
<path opacity="0.43" d="M52.9251 33.6253C53.1449 33.6253 53.323 33.4472 53.323 33.2274C53.323 33.0076 53.1449 32.8295 52.9251 32.8295C52.7053 32.8295 52.5271 33.0076 52.5271 33.2274C52.5271 33.4472 52.7053 33.6253 52.9251 33.6253Z" fill="black"/>
<path opacity="0.43" d="M52.9251 42.5788C53.1449 42.5788 53.323 42.4007 53.323 42.1809C53.323 41.9611 53.1449 41.783 52.9251 41.783C52.7053 41.783 52.5271 41.9611 52.5271 42.1809C52.5271 42.4007 52.7053 42.5788 52.9251 42.5788Z" fill="black"/>
<path opacity="0.44" d="M47.553 49.9406C47.7728 49.9406 47.9509 49.7624 47.9509 49.5427C47.9509 49.3229 47.7728 49.1447 47.553 49.1447C47.3332 49.1447 47.1551 49.3229 47.1551 49.5427C47.1551 49.7624 47.3332 49.9406 47.553 49.9406Z" fill="black"/>
<path opacity="0.44" d="M38.7985 52.925C39.0182 52.925 39.1964 52.7469 39.1964 52.5271C39.1964 52.3073 39.0182 52.1292 38.7985 52.1292C38.5787 52.1292 38.4005 52.3073 38.4005 52.5271C38.4005 52.7469 38.5787 52.925 38.7985 52.925Z" fill="black"/>
<path opacity="0.44" d="M30.044 50.1395C30.2637 50.1395 30.4419 49.9613 30.4419 49.7415C30.4419 49.5218 30.2637 49.3436 30.044 49.3436C29.8242 49.3436 29.646 49.5218 29.646 49.7415C29.646 49.9613 29.8242 50.1395 30.044 50.1395Z" fill="black"/>
<path opacity="0.45" d="M24.2739 42.7778C24.4937 42.7778 24.6718 42.5996 24.6718 42.3799C24.6718 42.1601 24.4937 41.9819 24.2739 41.9819C24.0541 41.9819 23.8759 42.1601 23.8759 42.3799C23.8759 42.5996 24.0541 42.7778 24.2739 42.7778Z" fill="black"/>
<path opacity="0.45" d="M24.0749 33.4263C24.2947 33.4263 24.4728 33.2482 24.4728 33.0284C24.4728 32.8086 24.2947 32.6305 24.0749 32.6305C23.8551 32.6305 23.677 32.8086 23.677 33.0284C23.677 33.2482 23.8551 33.4263 24.0749 33.4263Z" fill="black"/>
<path opacity="0.45" d="M29.2481 25.6667C29.4679 25.6667 29.6461 25.4885 29.6461 25.2687C29.6461 25.0489 29.4679 24.8708 29.2481 24.8708C29.0283 24.8708 28.8502 25.0489 28.8502 25.2687C28.8502 25.4885 29.0283 25.6667 29.2481 25.6667Z" fill="black"/>
<path opacity="0.46" d="M38.0026 22.0853C38.2224 22.0853 38.4006 21.9071 38.4006 21.6873C38.4006 21.4676 38.2224 21.2894 38.0026 21.2894C37.7829 21.2894 37.6047 21.4676 37.6047 21.6873C37.6047 21.9071 37.7829 22.0853 38.0026 22.0853Z" fill="black"/>
<path opacity="0.46" d="M47.354 24.5723C47.6287 24.5723 47.8514 24.3496 47.8514 24.0749C47.8514 23.8002 47.6287 23.5775 47.354 23.5775C47.0793 23.5775 46.8566 23.8002 46.8566 24.0749C46.8566 24.3496 47.0793 24.5723 47.354 24.5723Z" fill="black"/>
<path opacity="0.46" d="M53.5219 31.9341C53.7966 31.9341 54.0193 31.7114 54.0193 31.4367C54.0193 31.162 53.7966 30.9393 53.5219 30.9393C53.2472 30.9393 53.0245 31.162 53.0245 31.4367C53.0245 31.7114 53.2472 31.9341 53.5219 31.9341Z" fill="black"/>
<path opacity="0.46" d="M54.3178 41.6834C54.5925 41.6834 54.8152 41.4607 54.8152 41.186C54.8152 40.9113 54.5925 40.6886 54.3178 40.6886C54.0431 40.6886 53.8204 40.9113 53.8204 41.186C53.8204 41.4607 54.0431 41.6834 54.3178 41.6834Z" fill="black"/>
<path opacity="0.47" d="M49.3437 50.2391C49.6184 50.2391 49.8411 50.0164 49.8411 49.7416C49.8411 49.4669 49.6184 49.2442 49.3437 49.2442C49.069 49.2442 48.8463 49.4669 48.8463 49.7416C48.8463 50.0164 49.069 50.2391 49.3437 50.2391Z" fill="black"/>
<path opacity="0.47" d="M40.1912 54.2183C40.4659 54.2183 40.6886 53.9956 40.6886 53.7209C40.6886 53.4462 40.4659 53.2235 40.1912 53.2235C39.9165 53.2235 39.6938 53.4462 39.6938 53.7209C39.6938 53.9956 39.9165 54.2183 40.1912 54.2183Z" fill="black"/>
<path opacity="0.47" d="M30.4418 52.0298C30.7165 52.0298 30.9392 51.8071 30.9392 51.5324C30.9392 51.2576 30.7165 51.0349 30.4418 51.0349C30.1671 51.0349 29.9444 51.2576 29.9444 51.5324C29.9444 51.8071 30.1671 52.0298 30.4418 52.0298Z" fill="black"/>
<path opacity="0.48" d="M23.677 44.668C23.9517 44.668 24.1744 44.4453 24.1744 44.1706C24.1744 43.8959 23.9517 43.6732 23.677 43.6732C23.4023 43.6732 23.1796 43.8959 23.1796 44.1706C23.1796 44.4453 23.4023 44.668 23.677 44.668Z" fill="black"/>
<path opacity="0.48" d="M22.4832 34.5206C22.7579 34.5206 22.9806 34.2979 22.9806 34.0232C22.9806 33.7485 22.7579 33.5258 22.4832 33.5258C22.2084 33.5258 21.9857 33.7485 21.9857 34.0232C21.9857 34.2979 22.2084 34.5206 22.4832 34.5206Z" fill="black"/>
<path opacity="0.48" d="M27.2584 25.5671C27.5331 25.5671 27.7558 25.3444 27.7558 25.0697C27.7558 24.795 27.5331 24.5723 27.2584 24.5723C26.9837 24.5723 26.761 24.795 26.761 25.0697C26.761 25.3444 26.9837 25.5671 27.2584 25.5671Z" fill="black"/>
<path opacity="0.49" d="M36.6098 21.1899C36.8845 21.1899 37.1072 20.9672 37.1072 20.6925C37.1072 20.4178 36.8845 20.1951 36.6098 20.1951C36.3351 20.1951 36.1124 20.4178 36.1124 20.6925C36.1124 20.9672 36.3351 21.1899 36.6098 21.1899Z" fill="black"/>
<path opacity="0.49" d="M46.7571 22.7816C47.0318 22.7816 47.2545 22.5589 47.2545 22.2842C47.2545 22.0094 47.0318 21.7867 46.7571 21.7867C46.4824 21.7867 46.2597 22.0094 46.2597 22.2842C46.2597 22.5589 46.4824 22.7816 46.7571 22.7816Z" fill="black"/>
<path opacity="0.49" d="M54.1189 30.3424C54.3936 30.3424 54.6163 30.1197 54.6163 29.845C54.6163 29.5703 54.3936 29.3476 54.1189 29.3476C53.8442 29.3476 53.6215 29.5703 53.6215 29.845C53.6215 30.1197 53.8442 30.3424 54.1189 30.3424Z" fill="black"/>
<path opacity="0.49" d="M55.9096 40.6886C56.1843 40.6886 56.407 40.4659 56.407 40.1912C56.407 39.9165 56.1843 39.6938 55.9096 39.6938C55.6349 39.6938 55.4122 39.9165 55.4122 40.1912C55.4122 40.4659 55.6349 40.6886 55.9096 40.6886Z" fill="black"/>
<path opacity="0.5" d="M51.1344 50.0401C51.4091 50.0401 51.6318 49.8174 51.6318 49.5427C51.6318 49.268 51.4091 49.0453 51.1344 49.0453C50.8596 49.0453 50.6369 49.268 50.6369 49.5427C50.6369 49.8174 50.8596 50.0401 51.1344 50.0401Z" fill="black"/>
<path opacity="0.5" d="M41.783 55.2132C42.0577 55.2132 42.2804 54.9905 42.2804 54.7158C42.2804 54.4411 42.0577 54.2184 41.783 54.2184C41.5083 54.2184 41.2856 54.4411 41.2856 54.7158C41.2856 54.9905 41.5083 55.2132 41.783 55.2132Z" fill="black"/>
<path opacity="0.5" d="M31.2377 53.8203C31.5124 53.8203 31.7351 53.5976 31.7351 53.3229C31.7351 53.0482 31.5124 52.8255 31.2377 52.8255C30.963 52.8255 30.7403 53.0482 30.7403 53.3229C30.7403 53.5976 30.963 53.8203 31.2377 53.8203Z" fill="black"/>
<path opacity="0.51" d="M23.279 46.4587C23.5537 46.4587 23.7764 46.236 23.7764 45.9613C23.7764 45.6865 23.5537 45.4638 23.279 45.4638C23.0043 45.4638 22.7816 45.6865 22.7816 45.9613C22.7816 46.236 23.0043 46.4587 23.279 46.4587Z" fill="black"/>
<path opacity="0.51" d="M21.0905 35.9135C21.3652 35.9135 21.5879 35.6908 21.5879 35.4161C21.5879 35.1413 21.3652 34.9186 21.0905 34.9186C20.8157 34.9186 20.593 35.1413 20.593 35.4161C20.593 35.6908 20.8157 35.9135 21.0905 35.9135Z" fill="black"/>
<path opacity="0.51" d="M25.4677 25.7661C25.7424 25.7661 25.9651 25.5434 25.9651 25.2687C25.9651 24.994 25.7424 24.7713 25.4677 24.7713C25.193 24.7713 24.9703 24.994 24.9703 25.2687C24.9703 25.5434 25.193 25.7661 25.4677 25.7661Z" fill="black"/>
<path opacity="0.51" d="M35.0181 20.195C35.2928 20.195 35.5155 19.9723 35.5155 19.6976C35.5155 19.4229 35.2928 19.2002 35.0181 19.2002C34.7434 19.2002 34.5207 19.4229 34.5207 19.6976C34.5207 19.9723 34.7434 20.195 35.0181 20.195Z" fill="black"/>
<path opacity="0.52" d="M45.9613 21.1899C46.236 21.1899 46.4587 20.9672 46.4587 20.6925C46.4587 20.4178 46.236 20.1951 45.9613 20.1951C45.6866 20.1951 45.4639 20.4178 45.4639 20.6925C45.4639 20.9672 45.6866 21.1899 45.9613 21.1899Z" fill="black"/>
<path opacity="0.52" d="M54.5168 28.3527C54.7915 28.3527 55.0142 28.13 55.0142 27.8553C55.0142 27.5805 54.7915 27.3578 54.5168 27.3578C54.242 27.3578 54.0193 27.5805 54.0193 27.8553C54.0193 28.13 54.242 28.3527 54.5168 28.3527Z" fill="black"/>
<path opacity="0.52" d="M57.3023 39.2959C57.577 39.2959 57.7997 39.0732 57.7997 38.7985C57.7997 38.5238 57.577 38.3011 57.3023 38.3011C57.0276 38.3011 56.8049 38.5238 56.8049 38.7985C56.8049 39.0732 57.0276 39.2959 57.3023 39.2959Z" fill="black"/>
<path opacity="0.53" d="M53.1241 49.8411C53.3988 49.8411 53.6215 49.6184 53.6215 49.3437C53.6215 49.069 53.3988 48.8463 53.1241 48.8463C52.8493 48.8463 52.6266 49.069 52.6266 49.3437C52.6266 49.6184 52.8493 49.8411 53.1241 49.8411Z" fill="black"/>
<path opacity="0.53" d="M43.5737 56.009C43.8484 56.009 44.0711 55.7863 44.0711 55.5116C44.0711 55.2369 43.8484 55.0142 43.5737 55.0142C43.299 55.0142 43.0763 55.2369 43.0763 55.5116C43.0763 55.7863 43.299 56.009 43.5737 56.009Z" fill="black"/>
<path opacity="0.53" d="M32.0335 55.611C32.3082 55.611 32.5309 55.3883 32.5309 55.1136C32.5309 54.8389 32.3082 54.6162 32.0335 54.6162C31.7588 54.6162 31.5361 54.8389 31.5361 55.1136C31.5361 55.3883 31.7588 55.611 32.0335 55.611Z" fill="black"/>
<path opacity="0.54" d="M22.8812 48.4484C23.1559 48.4484 23.3786 48.2257 23.3786 47.951C23.3786 47.6763 23.1559 47.4536 22.8812 47.4536C22.6064 47.4536 22.3837 47.6763 22.3837 47.951C22.3837 48.2257 22.6064 48.4484 22.8812 48.4484Z" fill="black"/>
<path opacity="0.54" d="M19.6976 37.3062C19.9723 37.3062 20.195 37.0835 20.195 36.8088C20.195 36.534 19.9723 36.3113 19.6976 36.3113C19.4229 36.3113 19.2002 36.534 19.2002 36.8088C19.2002 37.0835 19.4229 37.3062 19.6976 37.3062Z" fill="black"/>
<path opacity="0.54" d="M23.478 26.1641C23.7527 26.1641 23.9754 25.9414 23.9754 25.6667C23.9754 25.392 23.7527 25.1693 23.478 25.1693C23.2033 25.1693 22.9806 25.392 22.9806 25.6667C22.9806 25.9414 23.2033 26.1641 23.478 26.1641Z" fill="black"/>
<path opacity="0.54" d="M33.2274 19.3992C33.5021 19.3992 33.7248 19.1765 33.7248 18.9018C33.7248 18.6271 33.5021 18.4044 33.2274 18.4044C32.9527 18.4044 32.7299 18.6271 32.7299 18.9018C32.7299 19.1765 32.9527 19.3992 33.2274 19.3992Z" fill="black"/>
<path opacity="0.55" d="M44.9664 19.3992C45.2411 19.3992 45.4638 19.1765 45.4638 18.9018C45.4638 18.6271 45.2411 18.4044 44.9664 18.4044C44.6917 18.4044 44.469 18.6271 44.469 18.9018C44.469 19.1765 44.6917 19.3992 44.9664 19.3992Z" fill="black"/>
<path opacity="0.55" d="M54.7158 26.363C54.9905 26.363 55.2132 26.1403 55.2132 25.8656C55.2132 25.5909 54.9905 25.3682 54.7158 25.3682C54.4411 25.3682 54.2184 25.5909 54.2184 25.8656C54.2184 26.1403 54.4411 26.363 54.7158 26.363Z" fill="black"/>
<path opacity="0.55" d="M58.4962 37.7042C58.7709 37.7042 58.9936 37.4815 58.9936 37.2068C58.9936 36.9321 58.7709 36.7094 58.4962 36.7094C58.2214 36.7094 57.9987 36.9321 57.9987 37.2068C57.9987 37.4815 58.2214 37.7042 58.4962 37.7042Z" fill="black"/>
<path opacity="0.56" d="M55.1137 49.3437C55.4434 49.3437 55.7106 49.0765 55.7106 48.7468C55.7106 48.4171 55.4434 48.1499 55.1137 48.1499C54.7841 48.1499 54.5168 48.4171 54.5168 48.7468C54.5168 49.0765 54.7841 49.3437 55.1137 49.3437Z" fill="black"/>
<path opacity="0.56" d="M45.3644 56.9044C45.694 56.9044 45.9613 56.6371 45.9613 56.3075C45.9613 55.9778 45.694 55.7106 45.3644 55.7106C45.0347 55.7106 44.7675 55.9778 44.7675 56.3075C44.7675 56.6371 45.0347 56.9044 45.3644 56.9044Z" fill="black"/>
<path opacity="0.56" d="M33.2274 57.3023C33.557 57.3023 33.8243 57.0351 33.8243 56.7055C33.8243 56.3758 33.557 56.1086 33.2274 56.1086C32.8977 56.1086 32.6305 56.3758 32.6305 56.7055C32.6305 57.0351 32.8977 57.3023 33.2274 57.3023Z" fill="black"/>
<path opacity="0.57" d="M22.8812 50.5374C23.2108 50.5374 23.4781 50.2702 23.4781 49.9405C23.4781 49.6108 23.2108 49.3436 22.8812 49.3436C22.5515 49.3436 22.2843 49.6108 22.2843 49.9405C22.2843 50.2702 22.5515 50.5374 22.8812 50.5374Z" fill="black"/>
<path opacity="0.57" d="M18.5039 38.9974C18.8336 38.9974 19.1008 38.7301 19.1008 38.4005C19.1008 38.0708 18.8336 37.8036 18.5039 37.8036C18.1742 37.8036 17.907 38.0708 17.907 38.4005C17.907 38.7301 18.1742 38.9974 18.5039 38.9974Z" fill="black"/>
<path opacity="0.57" d="M21.4883 26.8605C21.818 26.8605 22.0852 26.5932 22.0852 26.2636C22.0852 25.9339 21.818 25.6667 21.4883 25.6667C21.1587 25.6667 20.8914 25.9339 20.8914 26.2636C20.8914 26.5932 21.1587 26.8605 21.4883 26.8605Z" fill="black"/>
<path opacity="0.57" d="M31.2378 18.9018C31.5675 18.9018 31.8347 18.6346 31.8347 18.3049C31.8347 17.9752 31.5675 17.708 31.2378 17.708C30.9081 17.708 30.6409 17.9752 30.6409 18.3049C30.6409 18.6346 30.9081 18.9018 31.2378 18.9018Z" fill="black"/>
<path opacity="0.58" d="M43.7726 17.907C44.1022 17.907 44.3695 17.6397 44.3695 17.3101C44.3695 16.9804 44.1022 16.7132 43.7726 16.7132C43.4429 16.7132 43.1757 16.9804 43.1757 17.3101C43.1757 17.6397 43.4429 17.907 43.7726 17.907Z" fill="black"/>
<path opacity="0.58" d="M54.5168 24.4729C54.8464 24.4729 55.1137 24.2057 55.1137 23.876C55.1137 23.5464 54.8464 23.2791 54.5168 23.2791C54.1871 23.2791 53.9199 23.5464 53.9199 23.876C53.9199 24.2057 54.1871 24.4729 54.5168 24.4729Z" fill="black"/>
<path opacity="0.58" d="M59.6899 36.013C60.0195 36.013 60.2868 35.7457 60.2868 35.4161C60.2868 35.0864 60.0195 34.8192 59.6899 34.8192C59.3602 34.8192 59.093 35.0864 59.093 35.4161C59.093 35.7457 59.3602 36.013 59.6899 36.013Z" fill="black"/>
<path opacity="0.59" d="M57.1033 48.7467C57.433 48.7467 57.7002 48.4795 57.7002 48.1498C57.7002 47.8202 57.433 47.5529 57.1033 47.5529C56.7736 47.5529 56.5064 47.8202 56.5064 48.1498C56.5064 48.4795 56.7736 48.7467 57.1033 48.7467Z" fill="black"/>
<path opacity="0.59" d="M47.553 57.3023C47.8826 57.3023 48.1499 57.0351 48.1499 56.7055C48.1499 56.3758 47.8826 56.1086 47.553 56.1086C47.2233 56.1086 46.9561 56.3758 46.9561 56.7055C46.9561 57.0351 47.2233 57.3023 47.553 57.3023Z" fill="black"/>
<path opacity="0.59" d="M34.6202 58.8941C34.9499 58.8941 35.2171 58.6268 35.2171 58.2972C35.2171 57.9675 34.9499 57.7003 34.6202 57.7003C34.2905 57.7003 34.0233 57.9675 34.0233 58.2972C34.0233 58.6268 34.2905 58.8941 34.6202 58.8941Z" fill="black"/>
<path opacity="0.6" d="M23.0801 52.7261C23.4098 52.7261 23.677 52.4588 23.677 52.1292C23.677 51.7995 23.4098 51.5323 23.0801 51.5323C22.7505 51.5323 22.4832 51.7995 22.4832 52.1292C22.4832 52.4588 22.7505 52.7261 23.0801 52.7261Z" fill="black"/>
<path opacity="0.6" d="M17.31 40.7881C17.6397 40.7881 17.9069 40.5208 17.9069 40.1912C17.9069 39.8615 17.6397 39.5943 17.31 39.5943C16.9804 39.5943 16.7132 39.8615 16.7132 40.1912C16.7132 40.5208 16.9804 40.7881 17.31 40.7881Z" fill="black"/>
<path opacity="0.6" d="M19.6976 27.8553C20.0273 27.8553 20.2945 27.5881 20.2945 27.2584C20.2945 26.9287 20.0273 26.6615 19.6976 26.6615C19.3679 26.6615 19.1007 26.9287 19.1007 27.2584C19.1007 27.5881 19.3679 27.8553 19.6976 27.8553Z" fill="black"/>
<path opacity="0.6" d="M29.0491 18.5039C29.3788 18.5039 29.646 18.2367 29.646 17.907C29.646 17.5774 29.3788 17.3102 29.0491 17.3102C28.7194 17.3102 28.4522 17.5774 28.4522 17.907C28.4522 18.2367 28.7194 18.5039 29.0491 18.5039Z" fill="black"/>
<path opacity="0.61" d="M42.1809 16.3153C42.5105 16.3153 42.7778 16.048 42.7778 15.7184C42.7778 15.3887 42.5105 15.1215 42.1809 15.1215C41.8512 15.1215 41.584 15.3887 41.584 15.7184C41.584 16.048 41.8512 16.3153 42.1809 16.3153Z" fill="black"/>
<path opacity="0.61" d="M54.3179 22.2842C54.6476 22.2842 54.9148 22.017 54.9148 21.6873C54.9148 21.3576 54.6476 21.0904 54.3179 21.0904C53.9882 21.0904 53.721 21.3576 53.721 21.6873C53.721 22.017 53.9882 22.2842 54.3179 22.2842Z" fill="black"/>
<path opacity="0.61" d="M60.6847 34.2222C61.0144 34.2222 61.2816 33.955 61.2816 33.6253C61.2816 33.3285 61.065 33.0823 60.7812 33.0362C60.7005 33.0311 60.6664 33.0284 60.6847 33.0284C60.7176 33.0284 60.7498 33.0311 60.7812 33.0362C62.1536 33.1228 77.0001 33.9109 77.0001 34.2222C77.0001 34.5519 60.355 34.2222 60.6847 34.2222Z" fill="black"/>
<path opacity="0.62" d="M58.894 47.553C59.2237 47.553 59.4909 47.2857 59.4909 46.9561C59.4909 46.6264 59.2237 46.3592 58.894 46.3592C58.5643 46.3592 58.2971 46.6264 58.2971 46.9561C58.2971 47.2857 58.5643 47.553 58.894 47.553Z" fill="black"/>
<path opacity="0.62" d="M49.7416 57.7002C50.0713 57.7002 50.3385 57.433 50.3385 57.1033C50.3385 56.7736 50.0713 56.5064 49.7416 56.5064C49.412 56.5064 49.1447 56.7736 49.1447 57.1033C49.1447 57.433 49.412 57.7002 49.7416 57.7002Z" fill="black"/>
<path opacity="0.62" d="M36.2119 60.4858C36.5416 60.4858 36.8088 60.2185 36.8088 59.8889C36.8088 59.5592 36.5416 59.292 36.2119 59.292C35.8822 59.292 35.615 59.5592 35.615 59.8889C35.615 60.2185 35.8822 60.4858 36.2119 60.4858Z" fill="black"/>
<path opacity="0.63" d="M23.478 54.9148C23.8077 54.9148 24.0749 54.6476 24.0749 54.3179C24.0749 53.9882 23.8077 53.721 23.478 53.721C23.1483 53.721 22.8811 53.9882 22.8811 54.3179C22.8811 54.6476 23.1483 54.9148 23.478 54.9148Z" fill="black"/>
<path opacity="0.63" d="M16.5142 42.9768C16.8439 42.9768 17.1111 42.7095 17.1111 42.3799C17.1111 42.0502 16.8439 41.783 16.5142 41.783C16.1845 41.783 15.9173 42.0502 15.9173 42.3799C15.9173 42.7095 16.1845 42.9768 16.5142 42.9768Z" fill="black"/>
<path opacity="0.63" d="M17.708 29.0491C18.0377 29.0491 18.3049 28.7819 18.3049 28.4522C18.3049 28.1226 18.0377 27.8553 17.708 27.8553C17.3784 27.8553 17.1111 28.1226 17.1111 28.4522C17.1111 28.7819 17.3784 29.0491 17.708 29.0491Z" fill="black"/>
<path opacity="0.63" d="M26.8604 18.3049C27.1901 18.3049 27.4573 18.0377 27.4573 17.708C27.4573 17.3784 27.1901 17.1111 26.8604 17.1111C26.5307 17.1111 26.2635 17.3784 26.2635 17.708C26.2635 18.0377 26.5307 18.3049 26.8604 18.3049Z" fill="black"/>
<path opacity="0.64" d="M40.5891 14.9225C40.9188 14.9225 41.186 14.6553 41.186 14.3256C41.186 13.996 40.9188 13.7287 40.5891 13.7287C40.2595 13.7287 39.9922 13.996 39.9922 14.3256C39.9922 14.6553 40.2595 14.9225 40.5891 14.9225Z" fill="black"/>
<path opacity="0.64" d="M53.7209 20.0957C54.0506 20.0957 54.3178 19.8284 54.3178 19.4988C54.3178 19.1691 54.0506 18.9019 53.7209 18.9019C53.3912 18.9019 53.124 19.1691 53.124 19.4988C53.124 19.8284 53.3912 20.0957 53.7209 20.0957Z" fill="black"/>
<path opacity="0.64" d="M61.4807 32.0336C61.8103 32.0336 62.0776 31.7663 62.0776 31.4367C62.0776 31.107 61.8103 30.8398 61.4807 30.8398C61.151 30.8398 60.8838 31.107 60.8838 31.4367C60.8838 31.7663 61.151 32.0336 61.4807 32.0336Z" fill="black"/>
<path opacity="0.65" d="M60.8837 46.3591C61.2134 46.3591 61.4806 46.0919 61.4806 45.7622C61.4806 45.4326 61.2134 45.1653 60.8837 45.1653C60.554 45.1653 60.2868 45.4326 60.2868 45.7622C60.2868 46.0919 60.554 46.3591 60.8837 46.3591Z" fill="black"/>
<path opacity="0.65" d="M51.9302 57.7002C52.2599 57.7002 52.5271 57.433 52.5271 57.1033C52.5271 56.7736 52.2599 56.5064 51.9302 56.5064C51.6006 56.5064 51.3333 56.7736 51.3333 57.1033C51.3333 57.433 51.6006 57.7002 51.9302 57.7002Z" fill="#7700A0"/>
<path opacity="0.65" d="M38.0026 61.8786C38.3323 61.8786 38.5995 61.6114 38.5995 61.2817C38.5995 60.9521 38.3323 60.6848 38.0026 60.6848C37.6729 60.6848 37.4057 60.9521 37.4057 61.2817C37.4057 61.6114 37.6729 61.8786 38.0026 61.8786Z" fill="black"/>
<path opacity="0.66" d="M24.2738 57.2028C24.6584 57.2028 24.9702 56.891 24.9702 56.5064C24.9702 56.1218 24.6584 55.8101 24.2738 55.8101C23.8892 55.8101 23.5775 56.1218 23.5775 56.5064C23.5775 56.891 23.8892 57.2028 24.2738 57.2028Z" fill="black"/>
<path opacity="0.66" d="M15.7183 45.2649C16.1029 45.2649 16.4147 44.9531 16.4147 44.5685C16.4147 44.1839 16.1029 43.8721 15.7183 43.8721C15.3337 43.8721 15.0219 44.1839 15.0219 44.5685C15.0219 44.9531 15.3337 45.2649 15.7183 45.2649Z" fill="black"/>
<path opacity="0.66" d="M15.9173 30.5413C16.3019 30.5413 16.6137 30.2295 16.6137 29.8449C16.6137 29.4603 16.3019 29.1486 15.9173 29.1486C15.5327 29.1486 15.2209 29.4603 15.2209 29.8449C15.2209 30.2295 15.5327 30.5413 15.9173 30.5413Z" fill="black"/>
<path opacity="0.66" d="M24.4728 18.4044C24.8574 18.4044 25.1692 18.0926 25.1692 17.708C25.1692 17.3234 24.8574 17.0117 24.4728 17.0117C24.0882 17.0117 23.7765 17.3234 23.7765 17.708C23.7765 18.0926 24.0882 18.4044 24.4728 18.4044Z" fill="black"/>
<path opacity="0.67" d="M38.5994 13.6292C38.984 13.6292 39.2958 13.3174 39.2958 12.9328C39.2958 12.5482 38.984 12.2364 38.5994 12.2364C38.2148 12.2364 37.9031 12.5482 37.9031 12.9328C37.9031 13.3174 38.2148 13.6292 38.5994 13.6292Z" fill="black"/>
<path opacity="0.67" d="M52.925 18.0064C53.3096 18.0064 53.6214 17.6946 53.6214 17.31C53.6214 16.9254 53.3096 16.6136 52.925 16.6136C52.5404 16.6136 52.2287 16.9254 52.2287 17.31C52.2287 17.6946 52.5404 18.0064 52.925 18.0064Z" fill="black"/>
<path opacity="0.67" d="M62.0774 29.9445C62.462 29.9445 62.7738 29.6327 62.7738 29.2481C62.7738 28.8635 62.462 28.5517 62.0774 28.5517C61.6928 28.5517 61.381 28.8635 61.381 29.2481C61.381 29.6327 61.6928 29.9445 62.0774 29.9445Z" fill="black"/>
<path opacity="0.68" d="M62.6744 44.8669C63.059 44.8669 63.3708 44.5551 63.3708 44.1705C63.3708 43.7859 63.059 43.4742 62.6744 43.4742C62.2898 43.4742 61.978 43.7859 61.978 44.1705C61.978 44.5551 62.2898 44.8669 62.6744 44.8669Z" fill="black"/>
<path opacity="0.68" d="M54.3179 57.6008C54.7025 57.6008 55.0143 57.289 55.0143 56.9044C55.0143 56.5198 54.7025 56.208 54.3179 56.208C53.9333 56.208 53.6215 56.5198 53.6215 56.9044C53.6215 57.289 53.9333 57.6008 54.3179 57.6008Z" fill="black"/>
<path opacity="0.68" d="M39.9923 63.1718C40.3769 63.1718 40.6887 62.86 40.6887 62.4754C40.6887 62.0908 40.3769 61.779 39.9923 61.779C39.6077 61.779 39.2959 62.0908 39.2959 62.4754C39.2959 62.86 39.6077 63.1718 39.9923 63.1718Z" fill="black"/>
<path opacity="0.69" d="M25.2687 59.3915C25.6533 59.3915 25.9651 59.0797 25.9651 58.6951C25.9651 58.3105 25.6533 57.9987 25.2687 57.9987C24.8841 57.9987 24.5723 58.3105 24.5723 58.6951C24.5723 59.0797 24.8841 59.3915 25.2687 59.3915Z" fill="black"/>
<path opacity="0.69" d="M15.3205 47.4535C15.7051 47.4535 16.0169 47.1417 16.0169 46.7571C16.0169 46.3725 15.7051 46.0607 15.3205 46.0607C14.9359 46.0607 14.6241 46.3725 14.6241 46.7571C14.6241 47.1417 14.9359 47.4535 15.3205 47.4535Z" fill="black"/>
<path opacity="0.69" d="M14.1266 32.133C14.5112 32.133 14.823 31.8212 14.823 31.4366C14.823 31.052 14.5112 30.7403 14.1266 30.7403C13.742 30.7403 13.4303 31.052 13.4303 31.4366C13.4303 31.8212 13.742 32.133 14.1266 32.133Z" fill="black"/>
<path opacity="0.69" d="M22.0853 18.8023C22.4699 18.8023 22.7817 18.4905 22.7817 18.1059C22.7817 17.7213 22.4699 17.4095 22.0853 17.4095C21.7007 17.4095 21.3889 17.7213 21.3889 18.1059C21.3889 18.4905 21.7007 18.8023 22.0853 18.8023Z" fill="black"/>
<path opacity="0.7" d="M36.4109 12.6343C36.7955 12.6343 37.1073 12.3225 37.1073 11.9379C37.1073 11.5533 36.7955 11.2415 36.4109 11.2415C36.0263 11.2415 35.7145 11.5533 35.7145 11.9379C35.7145 12.3225 36.0263 12.6343 36.4109 12.6343Z" fill="black"/>
<path opacity="0.7" d="M51.7313 15.8179C52.1159 15.8179 52.4277 15.5061 52.4277 15.1215C52.4277 14.7369 52.1159 14.4251 51.7313 14.4251C51.3467 14.4251 51.0349 14.7369 51.0349 15.1215C51.0349 15.5061 51.3467 15.8179 51.7313 15.8179Z" fill="black"/>
<path opacity="0.7" d="M62.4754 27.3579C62.86 27.3579 63.1718 27.0461 63.1718 26.6615C63.1718 26.2769 62.86 25.9651 62.4754 25.9651C62.0908 25.9651 61.779 26.2769 61.779 26.6615C61.779 27.0461 62.0908 27.3579 62.4754 27.3579Z" fill="black"/>
<path opacity="0.71" d="M64.2661 43.2752C64.6507 43.2752 64.9625 42.9634 64.9625 42.5788C64.9625 42.1942 64.6507 41.8824 64.2661 41.8824C63.8815 41.8824 63.5697 42.1942 63.5697 42.5788C63.5697 42.9634 63.8815 43.2752 64.2661 43.2752Z" fill="black"/>
<path opacity="0.71" d="M56.7054 57.2028C57.09 57.2028 57.4018 56.891 57.4018 56.5064C57.4018 56.1218 57.09 55.8101 56.7054 55.8101C56.3208 55.8101 56.009 56.1218 56.009 56.5064C56.009 56.891 56.3208 57.2028 56.7054 57.2028Z" fill="black"/>
<path opacity="0.71" d="M42.3798 64.1666C42.7644 64.1666 43.0762 63.8548 43.0762 63.4702C43.0762 63.0856 42.7644 62.7739 42.3798 62.7739C41.9952 62.7739 41.6835 63.0856 41.6835 63.4702C41.6835 63.8548 41.9952 64.1666 42.3798 64.1666Z" fill="black"/>
<path opacity="0.71" d="M26.4625 61.3811C26.8471 61.3811 27.1589 61.0693 27.1589 60.6847C27.1589 60.3001 26.8471 59.9883 26.4625 59.9883C26.0779 59.9883 25.7661 60.3001 25.7661 60.6847C25.7661 61.0693 26.0779 61.3811 26.4625 61.3811Z" fill="black"/>
<path opacity="0.72" d="M15.1215 50.04C15.5061 50.04 15.8179 49.7282 15.8179 49.3436C15.8179 48.959 15.5061 48.6472 15.1215 48.6472C14.7369 48.6472 14.4251 48.959 14.4251 49.3436C14.4251 49.7282 14.7369 50.04 15.1215 50.04Z" fill="black"/>
<path opacity="0.72" d="M12.5349 33.9237C12.9195 33.9237 13.2313 33.6119 13.2313 33.2273C13.2313 32.8427 12.9195 32.5309 12.5349 32.5309C12.1503 32.5309 11.8385 32.8427 11.8385 33.2273C11.8385 33.6119 12.1503 33.9237 12.5349 33.9237Z" fill="black"/>
<path opacity="0.72" d="M19.6977 19.3993C20.0823 19.3993 20.3941 19.0875 20.3941 18.7029C20.3941 18.3183 20.0823 18.0065 19.6977 18.0065C19.3131 18.0065 19.0013 18.3183 19.0013 18.7029C19.0013 19.0875 19.3131 19.3993 19.6977 19.3993Z" fill="black"/>
<path opacity="0.73" d="M34.0232 11.6395C34.4078 11.6395 34.7196 11.3277 34.7196 10.9431C34.7196 10.5585 34.4078 10.2467 34.0232 10.2467C33.6386 10.2467 33.3268 10.5585 33.3268 10.9431C33.3268 11.3277 33.6386 11.6395 34.0232 11.6395Z" fill="black"/>
<path opacity="0.73" d="M50.3385 13.6292C50.7231 13.6292 51.0349 13.3174 51.0349 12.9328C51.0349 12.5482 50.7231 12.2364 50.3385 12.2364C49.9539 12.2364 49.6421 12.5482 49.6421 12.9328C49.6421 13.3174 49.9539 13.6292 50.3385 13.6292Z" fill="black"/>
<path opacity="0.73" d="M62.4754 24.9702C62.86 24.9702 63.1718 24.6584 63.1718 24.2738C63.1718 23.8892 62.86 23.5775 62.4754 23.5775C62.0908 23.5775 61.779 23.8892 61.779 24.2738C61.779 24.6584 62.0908 24.9702 62.4754 24.9702Z" fill="black"/>
<path opacity="0.74" d="M65.8578 41.0865C66.2424 41.0865 66.5542 40.7747 66.5542 40.3901C66.5542 40.0055 66.2424 39.6938 65.8578 39.6938C65.4732 39.6938 65.1614 40.0055 65.1614 40.3901C65.1614 40.7747 65.4732 41.0865 65.8578 41.0865Z" fill="black"/>
<path opacity="0.74" d="M59.093 56.407C59.4776 56.407 59.7894 56.0952 59.7894 55.7106C59.7894 55.326 59.4776 55.0142 59.093 55.0142C58.7084 55.0142 58.3966 55.326 58.3966 55.7106C58.3966 56.0952 58.7084 56.407 59.093 56.407Z" fill="black"/>
<path opacity="0.74" d="M44.7674 64.9625C45.152 64.9625 45.4638 64.6507 45.4638 64.2661C45.4638 63.8815 45.152 63.5697 44.7674 63.5697C44.3828 63.5697 44.071 63.8815 44.071 64.2661C44.071 64.6507 44.3828 64.9625 44.7674 64.9625Z" fill="black"/>
<path opacity="0.74" d="M28.0542 63.5698C28.4388 63.5698 28.7506 63.258 28.7506 62.8734C28.7506 62.4888 28.4388 62.177 28.0542 62.177C27.6696 62.177 27.3578 62.4888 27.3578 62.8734C27.3578 63.258 27.6696 63.5698 28.0542 63.5698Z" fill="black"/>
<path opacity="0.75" d="M15.1215 52.6266C15.5061 52.6266 15.8179 52.3148 15.8179 51.9302C15.8179 51.5456 15.5061 51.2338 15.1215 51.2338C14.7369 51.2338 14.4251 51.5456 14.4251 51.9302C14.4251 52.3148 14.7369 52.6266 15.1215 52.6266Z" fill="black"/>
<path opacity="0.75" d="M10.9431 36.1124C11.3277 36.1124 11.6395 35.8006 11.6395 35.416C11.6395 35.0314 11.3277 34.7197 10.9431 34.7197C10.5585 34.7197 10.2467 35.0314 10.2467 35.416C10.2467 35.8006 10.5585 36.1124 10.9431 36.1124Z" fill="black"/>
<path opacity="0.75" d="M17.31 20.2946C17.7496 20.2946 18.1059 19.9383 18.1059 19.4987C18.1059 19.0592 17.7496 18.7029 17.31 18.7029C16.8705 18.7029 16.5142 19.0592 16.5142 19.4987C16.5142 19.9383 16.8705 20.2946 17.31 20.2946Z" fill="black"/>
<path opacity="0.76" d="M31.6356 10.9431C32.0752 10.9431 32.4315 10.5868 32.4315 10.1472C32.4315 9.70767 32.0752 9.35135 31.6356 9.35135C31.1961 9.35135 30.8398 9.70767 30.8398 10.1472C30.8398 10.5868 31.1961 10.9431 31.6356 10.9431Z" fill="black"/>
<path opacity="0.76" d="M48.7468 11.7391C49.1863 11.7391 49.5426 11.3827 49.5426 10.9432C49.5426 10.5037 49.1863 10.1473 48.7468 10.1473C48.3072 10.1473 47.9509 10.5037 47.9509 10.9432C47.9509 11.3827 48.3072 11.7391 48.7468 11.7391Z" fill="black"/>
<path opacity="0.76" d="M62.4754 22.4831C62.9149 22.4831 63.2712 22.1268 63.2712 21.6873C63.2712 21.2477 62.9149 20.8914 62.4754 20.8914C62.0358 20.8914 61.6795 21.2477 61.6795 21.6873C61.6795 22.1268 62.0358 22.4831 62.4754 22.4831Z" fill="black"/>
<path opacity="0.77" d="M67.2508 38.9974C67.6903 38.9974 68.0466 38.6411 68.0466 38.2016C68.0466 37.762 67.6903 37.4057 67.2508 37.4057C66.8112 37.4057 66.4549 37.762 66.4549 38.2016C66.4549 38.6411 66.8112 38.9974 67.2508 38.9974Z" fill="black"/>
<path opacity="0.77" d="M61.6797 55.5116C62.1192 55.5116 62.4755 55.1553 62.4755 54.7157C62.4755 54.2762 62.1192 53.9199 61.6797 53.9199C61.2401 53.9199 60.8838 54.2762 60.8838 54.7157C60.8838 55.1553 61.2401 55.5116 61.6797 55.5116Z" fill="black"/>
<path opacity="0.77" d="M47.3541 65.6589C47.7936 65.6589 48.1499 65.3026 48.1499 64.8631C48.1499 64.4235 47.7936 64.0672 47.3541 64.0672C46.9145 64.0672 46.5582 64.4235 46.5582 64.8631C46.5582 65.3026 46.9145 65.6589 47.3541 65.6589Z" fill="black"/>
<path opacity="0.77" d="M29.6461 65.6589C30.0856 65.6589 30.4419 65.3026 30.4419 64.8631C30.4419 64.4235 30.0856 64.0672 29.6461 64.0672C29.2065 64.0672 28.8502 64.4235 28.8502 64.8631C28.8502 65.3026 29.2065 65.6589 29.6461 65.6589Z" fill="black"/>
<path opacity="0.78" d="M15.3205 55.3127C15.76 55.3127 16.1163 54.9564 16.1163 54.5169C16.1163 54.0773 15.76 53.721 15.3205 53.721C14.8809 53.721 14.5246 54.0773 14.5246 54.5169C14.5246 54.9564 14.8809 55.3127 15.3205 55.3127Z" fill="black"/>
<path opacity="0.78" d="M9.74936 38.5994C10.1889 38.5994 10.5452 38.2431 10.5452 37.8036C10.5452 37.364 10.1889 37.0077 9.74936 37.0077C9.30982 37.0077 8.9535 37.364 8.9535 37.8036C8.9535 38.2431 9.30982 38.5994 9.74936 38.5994Z" fill="black"/>
<path opacity="0.78" d="M14.7235 21.4884C15.163 21.4884 15.5193 21.1321 15.5193 20.6926C15.5193 20.253 15.163 19.8967 14.7235 19.8967C14.2839 19.8967 13.9276 20.253 13.9276 20.6926C13.9276 21.1321 14.2839 21.4884 14.7235 21.4884Z" fill="black"/>
<path opacity="0.79" d="M28.8501 10.5452C29.2896 10.5452 29.6459 10.1889 29.6459 9.74936C29.6459 9.30981 29.2896 8.95349 28.8501 8.95349C28.4105 8.95349 28.0542 9.30981 28.0542 9.74936C28.0542 10.1889 28.4105 10.5452 28.8501 10.5452Z" fill="black"/>
<path opacity="0.79" d="M46.9561 9.74939C47.3956 9.74939 47.7519 9.39306 47.7519 8.95352C47.7519 8.51397 47.3956 8.15765 46.9561 8.15765C46.5165 8.15765 46.1602 8.51397 46.1602 8.95352C46.1602 9.39306 46.5165 9.74939 46.9561 9.74939Z" fill="black"/>
<path opacity="0.79" d="M61.8787 19.6977C62.3182 19.6977 62.6745 19.3414 62.6745 18.9019C62.6745 18.4623 62.3182 18.106 61.8787 18.106C61.4391 18.106 61.0828 18.4623 61.0828 18.9019C61.0828 19.3414 61.4391 19.6977 61.8787 19.6977Z" fill="black"/>
<path opacity="0.8" d="M68.4445 36.6099C68.884 36.6099 69.2403 36.2536 69.2403 35.814C69.2403 35.3745 68.884 35.0182 68.4445 35.0182C68.0049 35.0182 67.6486 35.3745 67.6486 35.814C67.6486 36.2536 68.0049 36.6099 68.4445 36.6099Z" fill="black"/>
<path opacity="0.8" d="M64.0671 54.3179C64.5066 54.3179 64.8629 53.9615 64.8629 53.522C64.8629 53.0825 64.5066 52.7261 64.0671 52.7261C63.6275 52.7261 63.2712 53.0825 63.2712 53.522C63.2712 53.9615 63.6275 54.3179 64.0671 54.3179Z" fill="black"/>
<path opacity="0.8" d="M49.9406 66.0568C50.3802 66.0568 50.7365 65.7005 50.7365 65.2609C50.7365 64.8214 50.3802 64.4651 49.9406 64.4651C49.5011 64.4651 49.1447 64.8214 49.1447 65.2609C49.1447 65.7005 49.5011 66.0568 49.9406 66.0568Z" fill="black"/>
<path opacity="0.8" d="M31.8346 67.4496C32.2742 67.4496 32.6305 67.0933 32.6305 66.6538C32.6305 66.2142 32.2742 65.8579 31.8346 65.8579C31.3951 65.8579 31.0388 66.2142 31.0388 66.6538C31.0388 67.0933 31.3951 67.4496 31.8346 67.4496Z" fill="black"/>
<path opacity="0.81" d="M15.9173 58.0981C16.3569 58.0981 16.7132 57.7418 16.7132 57.3023C16.7132 56.8627 16.3569 56.5064 15.9173 56.5064C15.4778 56.5064 15.1215 56.8627 15.1215 57.3023C15.1215 57.7418 15.4778 58.0981 15.9173 58.0981Z" fill="black"/>
<path opacity="0.81" d="M8.55552 40.9871C8.99506 40.9871 9.35138 40.6308 9.35138 40.1913C9.35138 39.7517 8.99506 39.3954 8.55552 39.3954C8.11597 39.3954 7.75965 39.7517 7.75965 40.1913C7.75965 40.6308 8.11597 40.9871 8.55552 40.9871Z" fill="black"/>
<path opacity="0.81" d="M12.3359 22.8811C12.7755 22.8811 13.1318 22.5248 13.1318 22.0853C13.1318 21.6457 12.7755 21.2894 12.3359 21.2894C11.8964 21.2894 11.5401 21.6457 11.5401 22.0853C11.5401 22.5248 11.8964 22.8811 12.3359 22.8811Z" fill="black"/>
<path opacity="0.82" d="M26.0647 10.3462C26.5042 10.3462 26.8605 9.98993 26.8605 9.55038C26.8605 9.11084 26.5042 8.75452 26.0647 8.75452C25.6251 8.75452 25.2688 9.11084 25.2688 9.55038C25.2688 9.98993 25.6251 10.3462 26.0647 10.3462Z" fill="black"/>
<path opacity="0.82" d="M44.7674 7.95867C45.2069 7.95867 45.5632 7.60235 45.5632 7.16281C45.5632 6.72326 45.2069 6.36694 44.7674 6.36694C44.3278 6.36694 43.9715 6.72326 43.9715 7.16281C43.9715 7.60235 44.3278 7.95867 44.7674 7.95867Z" fill="black"/>
<path opacity="0.82" d="M61.2817 17.1112C61.7212 17.1112 62.0775 16.7548 62.0775 16.3153C62.0775 15.8758 61.7212 15.5194 61.2817 15.5194C60.8421 15.5194 60.4858 15.8758 60.4858 16.3153C60.4858 16.7548 60.8421 17.1112 61.2817 17.1112Z" fill="black"/>
<path opacity="0.83" d="M69.4392 34.0232C69.8787 34.0232 70.235 33.6669 70.235 33.2273C70.235 32.7878 69.8787 32.4315 69.4392 32.4315C68.9996 32.4315 68.6433 32.7878 68.6433 33.2273C68.6433 33.6669 68.9996 34.0232 69.4392 34.0232Z" fill="black"/>
<path opacity="0.83" d="M66.2558 52.726C66.6953 52.726 67.0516 52.3697 67.0516 51.9302C67.0516 51.4906 66.6953 51.1343 66.2558 51.1343C65.8162 51.1343 65.4599 51.4906 65.4599 51.9302C65.4599 52.3697 65.8162 52.726 66.2558 52.726Z" fill="black"/>
<path opacity="0.83" d="M52.925 66.0568C53.3646 66.0568 53.7209 65.7005 53.7209 65.2609C53.7209 64.8214 53.3646 64.4651 52.925 64.4651C52.4855 64.4651 52.1292 64.8214 52.1292 65.2609C52.1292 65.7005 52.4855 66.0568 52.925 66.0568Z" fill="black"/>
<path opacity="0.83" d="M34.0233 69.2403C34.4629 69.2403 34.8192 68.884 34.8192 68.4445C34.8192 68.0049 34.4629 67.6486 34.0233 67.6486C33.5838 67.6486 33.2274 68.0049 33.2274 68.4445C33.2274 68.884 33.5838 69.2403 34.0233 69.2403Z" fill="black"/>
<path opacity="0.84" d="M16.9122 60.6847C17.3517 60.6847 17.708 60.3284 17.708 59.8888C17.708 59.4493 17.3517 59.093 16.9122 59.093C16.4726 59.093 16.1163 59.4493 16.1163 59.8888C16.1163 60.3284 16.4726 60.6847 16.9122 60.6847Z" fill="black"/>
<path opacity="0.84" d="M7.75967 43.7725C8.19922 43.7725 8.55554 43.4162 8.55554 42.9767C8.55554 42.5371 8.19922 42.1808 7.75967 42.1808C7.32013 42.1808 6.96381 42.5371 6.96381 42.9767C6.96381 43.4162 7.32013 43.7725 7.75967 43.7725Z" fill="black"/>
<path opacity="0.84" d="M10.1472 24.6718C10.5868 24.6718 10.9431 24.3155 10.9431 23.876C10.9431 23.4364 10.5868 23.0801 10.1472 23.0801C9.70768 23.0801 9.35136 23.4364 9.35136 23.876C9.35136 24.3155 9.70768 24.6718 10.1472 24.6718Z" fill="black"/>
<path opacity="0.85" d="M23.2791 10.3462C23.7187 10.3462 24.075 9.98993 24.075 9.55038C24.075 9.11084 23.7187 8.75452 23.2791 8.75452C22.8396 8.75452 22.4832 9.11084 22.4832 9.55038C22.4832 9.98993 22.8396 10.3462 23.2791 10.3462Z" fill="black"/>
<path opacity="0.85" d="M42.3798 6.36697C42.8194 6.36697 43.1757 6.01065 43.1757 5.5711C43.1757 5.13156 42.8194 4.77524 42.3798 4.77524C41.9403 4.77524 41.584 5.13156 41.584 5.5711C41.584 6.01065 41.9403 6.36697 42.3798 6.36697Z" fill="black"/>
<path opacity="0.85" d="M60.2868 14.4251C60.7813 14.4251 61.1821 14.0242 61.1821 13.5297C61.1821 13.0353 60.7813 12.6344 60.2868 12.6344C59.7923 12.6344 59.3914 13.0353 59.3914 13.5297C59.3914 14.0242 59.7923 14.4251 60.2868 14.4251Z" fill="black"/>
<path opacity="0.86" d="M70.2352 31.3372C70.7296 31.3372 71.1305 30.9364 71.1305 30.4419C71.1305 29.9474 70.7296 29.5465 70.2352 29.5465C69.7407 29.5465 69.3398 29.9474 69.3398 30.4419C69.3398 30.9364 69.7407 31.3372 70.2352 31.3372Z" fill="black"/>
<path opacity="0.86" d="M68.6435 50.836C69.1379 50.836 69.5388 50.4351 69.5388 49.9406C69.5388 49.4461 69.1379 49.0453 68.6435 49.0453C68.149 49.0453 67.7481 49.4461 67.7481 49.9406C67.7481 50.4351 68.149 50.836 68.6435 50.836Z" fill="black"/>
<path opacity="0.86" d="M55.7106 65.9574C56.2051 65.9574 56.6059 65.5565 56.6059 65.062C56.6059 64.5675 56.2051 64.1667 55.7106 64.1667C55.2161 64.1667 54.8152 64.5675 54.8152 65.062C54.8152 65.5565 55.2161 65.9574 55.7106 65.9574Z" fill="black"/>
<path opacity="0.86" d="M36.6098 70.7325C37.1043 70.7325 37.5052 70.3316 37.5052 69.8372C37.5052 69.3427 37.1043 68.9418 36.6098 68.9418C36.1154 68.9418 35.7145 69.3427 35.7145 69.8372C35.7145 70.3316 36.1154 70.7325 36.6098 70.7325Z" fill="black"/>
<path opacity="0.87" d="M17.907 63.5697C18.4015 63.5697 18.8023 63.1689 18.8023 62.6744C18.8023 62.1799 18.4015 61.779 17.907 61.779C17.4125 61.779 17.0117 62.1799 17.0117 62.6744C17.0117 63.1689 17.4125 63.5697 17.907 63.5697Z" fill="black"/>
<path opacity="0.87" d="M7.1628 46.8566C7.65728 46.8566 8.05815 46.4557 8.05815 45.9612C8.05815 45.4667 7.65728 45.0659 7.1628 45.0659C6.66831 45.0659 6.26745 45.4667 6.26745 45.9612C6.26745 46.4557 6.66831 46.8566 7.1628 46.8566Z" fill="black"/>
<path opacity="0.87" d="M7.95865 26.761C8.45314 26.761 8.854 26.3601 8.854 25.8657C8.854 25.3712 8.45314 24.9703 7.95865 24.9703C7.46416 24.9703 7.0633 25.3712 7.0633 25.8657C7.0633 26.3601 7.46416 26.761 7.95865 26.761Z" fill="black"/>
<path opacity="0.88" d="M20.2945 10.8437C20.789 10.8437 21.1899 10.4428 21.1899 9.94836C21.1899 9.45387 20.789 9.05301 20.2945 9.05301C19.8001 9.05301 19.3992 9.45387 19.3992 9.94836C19.3992 10.4428 19.8001 10.8437 20.2945 10.8437Z" fill="black"/>
<path opacity="0.88" d="M39.7933 5.0736C40.2877 5.0736 40.6886 4.67273 40.6886 4.17825C40.6886 3.68376 40.2877 3.2829 39.7933 3.2829C39.2988 3.2829 38.8979 3.68376 38.8979 4.17825C38.8979 4.67273 39.2988 5.0736 39.7933 5.0736Z" fill="black"/>
<path opacity="0.88" d="M58.8941 11.6395C59.3886 11.6395 59.7894 11.2387 59.7894 10.7442C59.7894 10.2497 59.3886 9.84885 58.8941 9.84885C58.3996 9.84885 57.9987 10.2497 57.9987 10.7442C57.9987 11.2387 58.3996 11.6395 58.8941 11.6395Z" fill="black"/>
<path opacity="0.89" d="M70.6331 28.3527C71.1276 28.3527 71.5285 27.9518 71.5285 27.4574C71.5285 26.9629 71.1276 26.562 70.6331 26.562C70.1387 26.562 69.7378 26.9629 69.7378 27.4574C69.7378 27.9518 70.1387 28.3527 70.6331 28.3527Z" fill="black"/>
<path opacity="0.89" d="M70.6331 48.8462C71.1276 48.8462 71.5285 48.4454 71.5285 47.9509C71.5285 47.4564 71.1276 47.0555 70.6331 47.0555C70.1387 47.0555 69.7378 47.4564 69.7378 47.9509C69.7378 48.4454 70.1387 48.8462 70.6331 48.8462Z" fill="black"/>
<path opacity="0.89" d="M58.6951 65.3604C59.1896 65.3604 59.5904 64.9595 59.5904 64.4651C59.5904 63.9706 59.1896 63.5697 58.6951 63.5697C58.2006 63.5697 57.7997 63.9706 57.7997 64.4651C57.7997 64.9595 58.2006 65.3604 58.6951 65.3604Z" fill="black"/>
<path opacity="0.89" d="M39.1964 72.1254C39.6909 72.1254 40.0918 71.7245 40.0918 71.23C40.0918 70.7355 39.6909 70.3347 39.1964 70.3347C38.7019 70.3347 38.3011 70.7355 38.3011 71.23C38.3011 71.7245 38.7019 72.1254 39.1964 72.1254Z" fill="black"/>
<path opacity="0.9" d="M19.4987 66.1564C19.9932 66.1564 20.394 65.7555 20.394 65.261C20.394 64.7666 19.9932 64.3657 19.4987 64.3657C19.0042 64.3657 18.6033 64.7666 18.6033 65.261C18.6033 65.7555 19.0042 66.1564 19.4987 66.1564Z" fill="black"/>
<path opacity="0.9" d="M6.7648 49.8411C7.25929 49.8411 7.66015 49.4403 7.66015 48.9458C7.66015 48.4513 7.25929 48.0504 6.7648 48.0504C6.27031 48.0504 5.86945 48.4513 5.86945 48.9458C5.86945 49.4403 6.27031 49.8411 6.7648 49.8411Z" fill="black"/>
<path opacity="0.9" d="M5.96896 28.9495C6.46344 28.9495 6.86431 28.5487 6.86431 28.0542C6.86431 27.5597 6.46344 27.1588 5.96896 27.1588C5.47447 27.1588 5.07361 27.5597 5.07361 28.0542C5.07361 28.5487 5.47447 28.9495 5.96896 28.9495Z" fill="black"/>
<path opacity="0.91" d="M17.3101 11.4405C17.8046 11.4405 18.2055 11.0397 18.2055 10.5452C18.2055 10.0507 17.8046 9.64984 17.3101 9.64984C16.8157 9.64984 16.4148 10.0507 16.4148 10.5452C16.4148 11.0397 16.8157 11.4405 17.3101 11.4405Z" fill="black"/>
<path opacity="0.91" d="M36.8088 3.8799C37.3033 3.8799 37.7042 3.47904 37.7042 2.98455C37.7042 2.49006 37.3033 2.0892 36.8088 2.0892C36.3144 2.0892 35.9135 2.49006 35.9135 2.98455C35.9135 3.47904 36.3144 3.8799 36.8088 3.8799Z" fill="black"/>
<path opacity="0.91" d="M57.3023 9.053C57.7967 9.053 58.1976 8.65214 58.1976 8.15765C58.1976 7.66316 57.7967 7.2623 57.3023 7.2623C56.8078 7.2623 56.4069 7.66316 56.4069 8.15765C56.4069 8.65214 56.8078 9.053 57.3023 9.053Z" fill="black"/>
<path opacity="0.91" d="M70.8321 25.1693C71.3266 25.1693 71.7275 24.7684 71.7275 24.2739C71.7275 23.7795 71.3266 23.3786 70.8321 23.3786C70.3377 23.3786 69.9368 23.7795 69.9368 24.2739C69.9368 24.7684 70.3377 25.1693 70.8321 25.1693Z" fill="black"/>
<path opacity="0.92" d="M72.6228 46.4587C73.1173 46.4587 73.5182 46.0578 73.5182 45.5633C73.5182 45.0689 73.1173 44.668 72.6228 44.668C72.1284 44.668 71.7275 45.0689 71.7275 45.5633C71.7275 46.0578 72.1284 46.4587 72.6228 46.4587Z" fill="black"/>
<path opacity="0.92" d="M61.6797 64.5646C62.1741 64.5646 62.575 64.1637 62.575 63.6692C62.575 63.1747 62.1741 62.7739 61.6797 62.7739C61.1852 62.7739 60.7843 63.1747 60.7843 63.6692C60.7843 64.1637 61.1852 64.5646 61.6797 64.5646Z" fill="black"/>
<path opacity="0.92" d="M42.1809 73.1202C42.6754 73.1202 43.0763 72.7193 43.0763 72.2248C43.0763 71.7304 42.6754 71.3295 42.1809 71.3295C41.6865 71.3295 41.2856 71.7304 41.2856 72.2248C41.2856 72.7193 41.6865 73.1202 42.1809 73.1202Z" fill="black"/>
<path opacity="0.93" d="M21.2894 68.7429C21.7839 68.7429 22.1847 68.3421 22.1847 67.8476C22.1847 67.3531 21.7839 66.9522 21.2894 66.9522C20.7949 66.9522 20.3941 67.3531 20.3941 67.8476C20.3941 68.3421 20.7949 68.7429 21.2894 68.7429Z" fill="black"/>
<path opacity="0.93" d="M6.7648 53.0245C7.25929 53.0245 7.66015 52.6236 7.66015 52.1291C7.66015 51.6347 7.25929 51.2338 6.7648 51.2338C6.27031 51.2338 5.86945 51.6347 5.86945 52.1291C5.86945 52.6236 6.27031 53.0245 6.7648 53.0245Z" fill="black"/>
<path opacity="0.93" d="M3.97939 31.5362C4.47388 31.5362 4.87474 31.1354 4.87474 30.6409C4.87474 30.1464 4.47388 29.7455 3.97939 29.7455C3.48491 29.7455 3.08405 30.1464 3.08405 30.6409C3.08405 31.1354 3.48491 31.5362 3.97939 31.5362Z" fill="black"/>
<path opacity="0.94" d="M14.3256 12.4354C14.8201 12.4354 15.2209 12.0346 15.2209 11.5401C15.2209 11.0456 14.8201 10.6447 14.3256 10.6447C13.8311 10.6447 13.4303 11.0456 13.4303 11.5401C13.4303 12.0346 13.8311 12.4354 14.3256 12.4354Z" fill="black"/>
<path opacity="0.94" d="M33.8243 2.88504C34.3188 2.88504 34.7197 2.48418 34.7197 1.98969C34.7197 1.49521 34.3188 1.09435 33.8243 1.09435C33.3298 1.09435 32.929 1.49521 32.929 1.98969C32.929 2.48418 33.3298 2.88504 33.8243 2.88504Z" fill="black"/>
<path opacity="0.94" d="M55.3127 6.66545C55.8072 6.66545 56.208 6.26459 56.208 5.7701C56.208 5.27562 55.8072 4.87476 55.3127 4.87476C54.8182 4.87476 54.4173 5.27562 54.4173 5.7701C54.4173 6.26459 54.8182 6.66545 55.3127 6.66545Z" fill="black"/>
<path opacity="0.94" d="M70.8321 21.9858C71.3266 21.9858 71.7275 21.5849 71.7275 21.0904C71.7275 20.5959 71.3266 20.1951 70.8321 20.1951C70.3377 20.1951 69.9368 20.5959 69.9368 21.0904C69.9368 21.5849 70.3377 21.9858 70.8321 21.9858Z" fill="black"/>
<path opacity="0.95" d="M74.4135 43.6731C74.908 43.6731 75.3089 43.2723 75.3089 42.7778C75.3089 42.2833 74.908 41.8824 74.4135 41.8824C73.919 41.8824 73.5182 42.2833 73.5182 42.7778C73.5182 43.2723 73.919 43.6731 74.4135 43.6731Z" fill="black"/>
<path opacity="0.95" d="M64.664 63.6693C65.2135 63.6693 65.6589 63.2239 65.6589 62.6745C65.6589 62.1251 65.2135 61.6797 64.664 61.6797C64.1146 61.6797 63.6692 62.1251 63.6692 62.6745C63.6692 63.2239 64.1146 63.6693 64.664 63.6693Z" fill="black"/>
<path opacity="0.95" d="M45.3643 74.0155C45.9138 74.0155 46.3592 73.5701 46.3592 73.0207C46.3592 72.4712 45.9138 72.0258 45.3643 72.0258C44.8149 72.0258 44.3695 72.4712 44.3695 73.0207C44.3695 73.5701 44.8149 74.0155 45.3643 74.0155Z" fill="black"/>
<path opacity="0.96" d="M23.2791 71.429C23.8285 71.429 24.2739 70.9836 24.2739 70.4341C24.2739 69.8847 23.8285 69.4393 23.2791 69.4393C22.7297 69.4393 22.2843 69.8847 22.2843 70.4341C22.2843 70.9836 22.7297 71.429 23.2791 71.429Z" fill="black"/>
<path opacity="0.96" d="M6.96379 56.3075C7.51322 56.3075 7.95862 55.8621 7.95862 55.3127C7.95862 54.7632 7.51322 54.3178 6.96379 54.3178C6.41436 54.3178 5.96896 54.7632 5.96896 55.3127C5.96896 55.8621 6.41436 56.3075 6.96379 56.3075Z" fill="black"/>
<path opacity="0.96" d="M2.38754 34.4211C2.93697 34.4211 3.38237 33.9757 3.38237 33.4263C3.38237 32.8769 2.93697 32.4315 2.38754 32.4315C1.83811 32.4315 1.39271 32.8769 1.39271 33.4263C1.39271 33.9757 1.83811 34.4211 2.38754 34.4211Z" fill="black"/>
<path opacity="0.97" d="M11.341 13.9277C11.8905 13.9277 12.3359 13.4823 12.3359 12.9329C12.3359 12.3835 11.8905 11.938 11.341 11.938C10.7916 11.938 10.3462 12.3835 10.3462 12.9329C10.3462 13.4823 10.7916 13.9277 11.341 13.9277Z" fill="black"/>
<path opacity="0.97" d="M30.6409 2.38766C31.1903 2.38766 31.6357 1.94226 31.6357 1.39283C31.6357 0.843396 31.1903 0.397995 30.6409 0.397995C30.0914 0.397995 29.646 0.843396 29.646 1.39283C29.646 1.94226 30.0914 2.38766 30.6409 2.38766Z" fill="black"/>
<path opacity="0.97" d="M53.124 4.37721C53.6734 4.37721 54.1188 3.93181 54.1188 3.38237C54.1188 2.83294 53.6734 2.38754 53.124 2.38754C52.5746 2.38754 52.1292 2.83294 52.1292 3.38237C52.1292 3.93181 52.5746 4.37721 53.124 4.37721Z" fill="black"/>
<path opacity="0.97" d="M70.4341 18.9018C70.9836 18.9018 71.429 18.4564 71.429 17.907C71.429 17.3575 70.9836 16.9121 70.4341 16.9121C69.8847 16.9121 69.4393 17.3575 69.4393 17.907C69.4393 18.4564 69.8847 18.9018 70.4341 18.9018Z" fill="black"/>
<path opacity="0.98" d="M76.0052 40.9871C76.5547 40.9871 77.0001 40.5417 77.0001 39.9922C77.0001 39.4428 76.5547 38.9974 76.0052 38.9974C75.4558 38.9974 75.0104 39.4428 75.0104 39.9922C75.0104 40.5417 75.4558 40.9871 76.0052 40.9871Z" fill="black"/>
<path opacity="0.98" d="M67.6485 62.0775C68.1979 62.0775 68.6433 61.6321 68.6433 61.0826C68.6433 60.5332 68.1979 60.0878 67.6485 60.0878C67.099 60.0878 66.6536 60.5332 66.6536 61.0826C66.6536 61.6321 67.099 62.0775 67.6485 62.0775Z" fill="black"/>
<path opacity="0.98" d="M48.5477 74.6124C49.0972 74.6124 49.5426 74.167 49.5426 73.6175C49.5426 73.0681 49.0972 72.6227 48.5477 72.6227C47.9983 72.6227 47.5529 73.0681 47.5529 73.6175C47.5529 74.167 47.9983 74.6124 48.5477 74.6124Z" fill="black"/>
<path opacity="0.99" d="M25.6666 73.6175C26.2161 73.6175 26.6615 73.1721 26.6615 72.6227C26.6615 72.0733 26.2161 71.6279 25.6666 71.6279C25.1172 71.6279 24.6718 72.0733 24.6718 72.6227C24.6718 73.1721 25.1172 73.6175 25.6666 73.6175Z" fill="black"/>
<path opacity="0.99" d="M7.56077 59.4909C8.1102 59.4909 8.5556 59.0455 8.5556 58.4961C8.5556 57.9467 8.1102 57.5013 7.56077 57.5013C7.01134 57.5013 6.56594 57.9467 6.56594 58.4961C6.56594 59.0455 7.01134 59.4909 7.56077 59.4909Z" fill="black"/>
<path opacity="0.99" d="M0.994832 37.4057C1.54426 37.4057 1.98966 36.9603 1.98966 36.4108C1.98966 35.8614 1.54426 35.416 0.994832 35.416C0.445401 35.416 0 35.8614 0 36.4108C0 36.9603 0.445401 37.4057 0.994832 37.4057Z" fill="black"/>
<path d="M8.35663 15.5194C8.90606 15.5194 9.35146 15.074 9.35146 14.5246C9.35146 13.9752 8.90606 13.5298 8.35663 13.5298C7.80719 13.5298 7.36179 13.9752 7.36179 14.5246C7.36179 15.074 7.80719 15.5194 8.35663 15.5194Z" fill="black"/>
<path d="M27.4573 1.98966C28.0068 1.98966 28.4522 1.54426 28.4522 0.994832C28.4522 0.445401 28.0068 0 27.4573 0C26.9079 0 26.4625 0.445401 26.4625 0.994832C26.4625 1.54426 26.9079 1.98966 27.4573 1.98966Z" fill="black"/>
</svg>
