<svg width="182" height="43" viewBox="0 0 182 43" fill="none" xmlns="http://www.w3.org/2000/svg">
<path d="M64.4687 37.0273C66.2436 34.9885 67.131 33.1076 67.131 31.3847C67.131 29.8197 66.8594 28.6926 66.3162 28.0034C65.7729 27.3071 65.2266 26.9589 64.6771 26.9589C63.8686 26.9589 63.259 27.2784 62.8485 27.9173C62.4379 28.549 62.2232 29.4464 62.2043 30.6094V34.1845H60.3757V30.6094C60.3567 29.4464 60.1419 28.5131 59.7314 27.8096C59.3272 27.099 58.7997 26.7435 58.1492 26.7435C57.3785 26.7435 56.8164 27.1096 56.4627 27.8419C56.109 28.567 55.9321 29.5361 55.9321 30.7494V34.2706L54.0846 34.2598V30.7494C54.0846 29.5218 53.8446 28.5849 53.3645 27.9389C52.8845 27.2855 52.3034 26.9589 51.6212 26.9589C51.0717 26.9589 50.5316 27.3143 50.0011 28.025C49.4769 28.7286 49.2148 30.0064 49.2148 31.8585C49.2148 34.5936 50.0769 36.7401 51.8013 38.298C53.5319 39.8486 56.3459 40.6239 60.243 40.6239H63.4075V42.5946H59.7882C55.8911 42.5946 52.8371 41.6505 50.6264 39.7625C48.422 37.8673 47.3198 35.2541 47.3198 31.9231C47.3198 29.5899 47.7525 27.8993 48.6178 26.8513C49.4831 25.8031 50.4843 25.279 51.6212 25.279C53.0803 25.279 54.2078 26.1693 55.0037 27.9496C55.4269 26.0257 56.4753 25.0637 58.1492 25.0637C59.6398 25.0637 60.6883 26.0257 61.2947 27.9496C62.0906 26.1693 63.218 25.279 64.6771 25.279C65.814 25.279 66.8152 25.7672 67.6805 26.7435C68.5458 27.7199 68.9785 29.2669 68.9785 31.3847C68.9785 33.2154 68.3058 35.0962 66.9605 37.0273H64.4687ZM78.9078 30.7816C78.9078 29.7838 78.6267 28.8685 78.0646 28.0358C77.5087 27.1958 76.8297 26.7758 76.0275 26.7758C75.3454 26.7758 74.7485 27.1384 74.2368 27.8634C73.7252 28.5813 73.4694 30.4514 73.4694 33.4737C73.4694 37.0129 74.8875 40.0281 77.7235 42.5191H75.0706C72.7778 40.2004 71.6313 37.1853 71.6313 33.4737C71.6313 29.913 72.0451 27.6265 72.8725 26.6143C73.7063 25.6021 74.7579 25.096 76.0275 25.096C77.6698 25.096 78.9204 26.1334 79.7795 28.208C80.6448 26.1334 81.9017 25.096 83.5503 25.096C84.8134 25.096 85.8623 25.6021 86.6962 26.6143C87.5293 27.6265 87.9466 29.913 87.9466 33.4737C87.9466 37.1853 86.797 40.2004 84.4977 42.5191H81.8448C84.6813 39.9491 86.0985 36.9339 86.0985 33.4737C86.0985 30.4658 85.8428 28.5993 85.3315 27.8742C84.8201 27.142 84.2262 26.7758 83.5503 26.7758C82.7418 26.7758 82.0628 27.1851 81.5133 28.0034C80.9638 28.8147 80.6795 29.7299 80.6605 30.7494L80.6511 35.649H78.9078V30.7816ZM100.339 37.0488C100.339 38.8077 99.9066 40.1788 99.0414 41.1624C98.1761 42.1387 96.985 42.6269 95.4695 42.6269C94.01 42.6269 92.8637 42.049 92.0298 40.8932C91.2027 39.7301 90.7887 38.1974 90.7887 36.295V25.2898H92.5318V36.295C92.5318 37.6662 92.8002 38.7861 93.3378 39.6548C93.8805 40.5163 94.5916 40.947 95.4695 40.947C96.3974 40.947 97.134 40.6024 97.6766 39.9132C98.2202 39.224 98.4919 38.2693 98.4919 37.0488C98.5046 35.6202 98.0305 34.4177 97.0705 33.4415C96.1163 32.4651 95.6338 31.6037 95.6211 30.8571C95.583 30.1392 95.5991 29.4895 95.6685 28.908H97.4684C97.3736 29.4536 97.3168 29.974 97.2974 30.4694C97.4049 30.9073 97.9323 31.6754 98.8797 32.7738C99.8279 33.8651 100.314 35.29 100.339 37.0488ZM108.563 25.0852C108.373 26.7076 109.034 28.2978 110.543 29.8556C112.059 31.4062 112.817 33.3589 112.817 35.7136C112.817 37.817 112.352 39.4969 111.425 40.7532C110.496 42.0023 109.368 42.6269 108.042 42.6269C106.526 42.6269 105.304 41.9556 104.375 40.6132C103.453 39.2636 102.992 37.4652 102.992 35.2182C102.992 33.7394 103.216 32.6159 103.665 31.8478L105.38 32.6016C105.019 33.5492 104.84 34.5219 104.84 35.5198C104.84 37.1349 105.139 38.4415 105.74 39.4395C106.346 40.4373 107.114 40.9362 108.042 40.9362C108.781 40.9362 109.454 40.4839 110.06 39.5795C110.666 38.6677 110.969 37.4796 110.969 36.0151C110.969 33.9476 110.24 32.1923 108.781 30.7494C107.328 29.3064 106.602 27.4147 106.602 25.0745L108.563 25.0852ZM122.756 35.8643C122.756 34.5793 122.474 33.5563 121.912 32.7954C121.357 32.0272 120.741 31.6431 120.065 31.6431C119.13 31.6431 118.439 32.0559 117.99 32.8815C117.548 33.6999 117.324 34.7085 117.317 35.9075C117.317 38.1831 118.704 40.3511 121.476 42.4114H118.738C116.566 40.7388 115.479 38.5923 115.479 35.972C115.479 34.845 115.669 33.6747 116.048 32.4616C116.8 30.3151 117.915 28.549 119.392 27.1635C120.87 25.778 123.135 25.0852 126.185 25.0852V26.7651C124.682 26.7651 123.23 27.0558 121.828 27.6373C120.425 28.2188 119.273 29.1916 118.369 30.5555C119.045 30.1607 119.61 29.9633 120.065 29.9633C121.581 29.9633 122.768 31.0006 123.628 33.0754C124.493 31.0006 125.686 29.9633 127.209 29.9633C128.598 29.9633 129.71 30.5233 130.543 31.6431C131.377 32.763 131.795 34.206 131.795 35.972C131.795 38.5923 130.676 40.7388 128.44 42.4114H125.778C128.557 40.2722 129.947 38.1256 129.947 35.972C129.947 34.7588 129.691 33.7358 129.18 32.903C128.668 32.0631 128.011 31.6431 127.209 31.6431C126.526 31.6431 125.911 32.0164 125.361 32.763C124.812 33.5025 124.527 34.4895 124.509 35.7243L124.499 38.3195L122.756 38.3411V35.8643ZM136.342 42.4114C135.079 39.4825 134.447 36.3956 134.447 33.1507C134.447 30.7889 134.877 28.8541 135.736 27.3465C136.601 25.839 137.795 25.0852 139.317 25.0852C140.827 25.0852 142.017 25.839 142.889 27.3465C143.761 28.8541 144.197 30.7889 144.197 33.1507C144.197 36.3956 143.568 39.4825 142.311 42.4114H140.207C141.61 38.8364 142.311 35.6167 142.311 32.7523C142.311 31.094 142.039 29.6833 141.496 28.5203C140.959 27.3573 140.227 26.7758 139.298 26.7758C138.357 26.7758 137.621 27.3537 137.091 28.5096C136.566 29.6582 136.305 31.0724 136.305 32.7523C136.305 35.6167 137.018 38.8364 138.446 42.4114H136.342ZM156.428 36.6397C156.428 38.7502 155.941 40.2721 154.969 41.2054C153.996 42.1387 152.875 42.6053 151.605 42.6053C150.21 42.6053 149.038 42.1351 148.091 41.1946C147.143 40.247 146.67 38.962 146.67 37.3396C146.67 36.4853 146.931 35.5951 147.456 34.6691L149.199 35.4013C148.776 36.0043 148.564 36.6504 148.564 37.3396C148.564 38.5025 148.902 39.3999 149.578 40.0317C150.254 40.6563 150.949 40.9685 151.663 40.9685C152.338 40.9685 152.999 40.6563 153.643 40.0317C154.293 39.3999 154.618 38.2693 154.618 36.6397V29.1557C154.618 27.5691 154.037 26.7758 152.875 26.7758C151.946 26.7758 151.482 27.6373 151.482 29.3603L151.492 31.6431L149.882 31.6539V29.3603C149.882 27.6373 148.811 26.7758 146.67 26.7758V25.096C148.703 25.096 149.904 25.8677 150.269 27.4112C150.731 25.8677 151.599 25.096 152.875 25.096C155.244 25.096 156.428 26.4492 156.428 29.1557V36.6397ZM164.33 29.9633C165.568 29.9633 166.66 30.5233 167.608 31.6431V29.4787C167.608 28.5454 167.337 27.8419 166.793 27.3681C166.25 26.8872 165.605 26.6466 164.86 26.6466C163.85 26.6466 163.098 26.8082 162.605 27.1312C162.119 27.4471 161.876 27.8275 161.876 28.2727H159.915C159.915 27.1168 160.351 26.2985 161.223 25.8175C162.101 25.3293 163.177 25.0817 164.453 25.0745C166.114 25.0817 167.355 25.5052 168.177 26.3452C168.998 27.1779 169.408 28.2224 169.408 29.4787V36.1874C169.408 38.377 168.988 39.9994 168.148 41.0546C167.308 42.1028 166.098 42.6269 164.519 42.6269C162.807 42.6269 161.504 42.0669 160.606 40.947C159.716 39.8199 159.27 38.2334 159.27 36.1874C159.27 34.2778 159.716 32.763 160.606 31.6431C161.504 30.5233 162.745 29.9633 164.33 29.9633ZM164.33 31.6431C163.331 31.6431 162.555 32.0344 161.999 32.8169C161.444 33.5922 161.165 34.6942 161.165 36.1228C161.165 37.6591 161.44 38.8471 161.99 39.6871C162.546 40.527 163.389 40.947 164.519 40.947C165.511 40.947 166.272 40.5665 166.803 39.8056C167.339 39.0446 167.608 37.8385 167.608 36.1874C167.608 34.5434 167.308 33.3768 166.708 32.6877C166.114 31.9913 165.322 31.6431 164.33 31.6431ZM174.145 42.4114C172.882 39.4825 172.25 36.3956 172.25 33.1507C172.25 30.7889 172.68 28.8541 173.539 27.3465C174.404 25.839 175.598 25.0852 177.12 25.0852C178.63 25.0852 179.821 25.839 180.692 27.3465C181.564 28.8541 182 30.7889 182 33.1507C182 36.3956 181.371 39.4825 180.115 42.4114H178.011C179.414 38.8364 180.115 35.6167 180.115 32.7523C180.115 31.094 179.843 29.6833 179.299 28.5203C178.762 27.3573 178.03 26.7758 177.101 26.7758C176.16 26.7758 175.424 27.3537 174.894 28.5096C174.369 29.6582 174.108 31.0724 174.108 32.7523C174.108 35.6167 174.822 38.8364 176.249 42.4114H174.145Z" fill="#553D8F"/>
<path d="M25.5312 0.72353H3.99344V5.11338H25.257C25.257 5.11909 25.257 5.12765 25.2545 5.13337C29.9687 6.47003 34.6829 7.80668 39.3972 9.14049C39.3972 7.72956 39.3972 6.31866 39.3972 4.90774C34.7769 3.51396 30.154 2.12016 25.5312 0.72353Z" fill="#A5A1C9"/>
<path d="M17.8616 17.4289C13.4521 16.0979 9.04503 14.767 4.6354 13.436C4.62524 10.7228 4.61763 8.00943 4.60747 5.29613C9.02472 6.62993 13.4445 7.96373 17.8616 9.29468C17.8616 12.008 17.8616 14.7185 17.8616 17.4289Z" fill="#CFD1E2"/>
<path d="M38.0717 9.26334H17.8616V17.8374H38.0717V9.26334Z" fill="#DCDDDF"/>
<path d="M39.9253 21.696H17.7656V36.9419H39.9253V21.696Z" fill="#DCDDDF"/>
<path d="M38.9476 24.7127L18.3821 24.6091" stroke="#CFD1E2" stroke-width="0.149931" stroke-miterlimit="10"/>
<path d="M18.3463 34.043L38.7621 34.2069" stroke="#CFD1E2" stroke-width="0.149931" stroke-miterlimit="10"/>
<path d="M38.9527 33.1691L26.8028 33.1033" stroke="#CFD1E2" stroke-width="0.149931" stroke-miterlimit="10"/>
<path d="M17.8618 9.29758C13.2389 7.90379 8.61604 6.50716 3.9932 5.11338C3.88912 5.01342 3.0133 4.13372 3.08945 2.73994C3.15292 1.55466 3.86119 0.849199 3.9932 0.72353C8.61604 2.11732 13.2389 3.51396 17.8618 4.90774C17.7424 4.99342 16.9149 5.60176 16.7829 6.76706C16.6711 7.74385 17.0926 8.72921 17.8618 9.29758Z" fill="#A39DC5"/>
<path d="M36.3583 15.2955H17.8567" stroke="#CFD1E2" stroke-width="0.149931" stroke-miterlimit="10"/>
<path d="M17.8467 11.2427C13.4346 9.92029 9.02497 8.59794 4.61281 7.27556C4.61281 7.22129 4.61281 7.16703 4.61281 7.11277C9.58855 8.61223 13.9728 9.93463 17.8594 11.1056C17.8569 11.1514 17.8518 11.197 17.8467 11.2427Z" fill="#DCDDDF"/>
<path d="M17.8567 12.465C13.4446 11.1426 9.02988 9.81734 4.61772 8.49495C4.61772 8.4407 4.61772 8.38643 4.61772 8.33216C9.59601 9.83447 13.9828 11.154 17.872 12.3279C17.8669 12.3736 17.8618 12.4193 17.8567 12.465Z" fill="#DCDDDF"/>
<path d="M17.8619 40.8234C13.239 39.4296 8.61612 38.033 3.99329 36.6392C3.21393 35.6652 0.0101784 31.4439 2.3915e-05 24.9692C-0.0101306 18.4601 3.21647 14.213 3.99329 13.2448C8.61612 14.6385 13.239 16.0324 17.8619 17.4262C16.9454 18.6542 14.3281 22.49 14.0742 28.2165C13.7696 35.0626 17.0622 39.7467 17.8619 40.8234Z" fill="#A39DC5"/>
<path d="M39.3993 17.8745C39.9096 16.8406 40.7905 14.7242 40.8794 11.868C40.986 8.46928 39.9121 5.9559 39.3993 4.91056C38.0538 4.91056 36.7084 4.91056 35.3629 4.91056C29.5291 4.91056 23.6954 4.91056 17.8616 4.91056C17.1203 5.24187 16.5974 5.98732 16.5161 6.84415C16.417 7.86665 16.9629 8.88056 17.8616 9.29755H36.6729C36.7794 10.0659 36.8379 10.9055 36.815 11.8081C36.7464 14.3243 36.0737 16.2751 35.566 17.4261H21.893C21.893 17.4261 21.8955 17.4232 21.8955 17.4203C20.55 17.4203 19.2045 17.4203 17.8591 17.4203C17.0695 18.4399 13.8657 22.8041 13.9521 29.3817C14.0333 35.628 17.0289 39.7437 17.8591 40.8147V40.8205H39.3968C40.2472 39.7351 43.154 35.7651 43.2835 29.7588C43.4231 23.2382 40.1889 18.8827 39.3993 17.8745ZM37.8609 36.4335H19.3796C18.5978 34.5141 17.9504 32.0464 17.9504 29.1218C17.9504 26.2 18.5953 23.7352 19.3771 21.8188H37.6807C38.4981 23.7066 39.2039 26.18 39.2369 29.1332C39.2699 32.0464 38.6352 34.5113 37.8609 36.4335Z" fill="#553D8F"/>
<path d="M34.9311 24.4721C34.1873 23.6353 33.4436 22.7985 32.6999 21.9616C31.9028 22.7985 31.1032 23.6353 30.3062 24.4721V15.2955H34.9311V24.4721Z" fill="#A39DC5"/>
</svg>
