<svg width="439" height="439" viewBox="0 0 439 439" fill="none" xmlns="http://www.w3.org/2000/svg">
<path d="M125.018 243.987C123.982 243.803 122.946 243.601 121.91 243.373" stroke="#304886" stroke-width="1.2569" stroke-miterlimit="10" stroke-linecap="round"/>
<path d="M115.773 241.678C104.482 237.973 94.183 231.248 86.3425 222.31C76.4035 210.992 70.4771 196.215 69.8361 181.158C69.1425 164.801 75.6924 147.118 89.9247 139.04C101.409 132.525 116.765 133.623 127.205 141.709C130.901 144.571 134.071 148.373 135.238 152.904C136.406 157.434 135.212 162.737 131.56 165.652C126.177 169.954 117.257 167.136 114.087 161.016C110.927 154.897 112.849 147.021 117.406 141.867C121.972 136.705 128.68 133.904 135.414 132.464C149.796 129.382 165.319 131.99 177.918 139.593C188.7 146.099 197.234 156.214 201.975 167.865" stroke="#304886" stroke-width="1.2569" stroke-miterlimit="10" stroke-linecap="round" stroke-dasharray="7.26 7.26"/>
<path d="M203.099 170.859C203.441 171.86 203.757 172.861 204.038 173.879" stroke="#304886" stroke-width="1.2569" stroke-miterlimit="10" stroke-linecap="round"/>
<path d="M385.925 171.579C381.061 169.208 376.302 173.668 376.302 173.668C377.61 168.602 373.58 161.973 365.204 162.685C362.473 162.913 360.682 164.326 359.488 166.118C358.004 161.868 351.393 156.995 344.633 159.05C335.22 161.912 337.407 173.475 337.407 173.475C325.545 161.403 316.695 179.411 323.991 181.57C333.298 184.319 342.877 186.066 353.307 186.364C369.893 186.075 386.978 181.527 386.978 181.527C390.376 181.333 390.78 173.949 385.925 171.579Z" fill="white"/>
<path d="M122.815 102.199C124.975 102.085 125.229 97.4141 122.147 95.9127C119.074 94.4113 116.063 97.2297 116.063 97.2297C116.897 94.025 114.342 89.8282 109.039 90.276C107.309 90.4252 106.177 91.312 105.421 92.4446C105.395 92.3568 105.36 92.2778 105.325 92.19C104.043 94.8679 104.64 98.0287 104.64 98.0287C96.8697 91.154 91.8651 101.927 94.7362 104.728C96.9312 105.009 99.1876 105.184 101.497 105.255C112.006 105.079 122.815 102.199 122.815 102.199Z" fill="white"/>
<path d="M333.315 103.683C334.878 104.113 336.169 100.847 334.342 99.0472C332.507 97.2473 329.689 98.5379 329.689 98.5379C331.041 96.4571 330.225 92.8573 326.344 91.9178C325.079 91.6105 324.061 91.9705 323.253 92.6027C323.253 92.5324 323.253 92.4709 323.244 92.4007C321.699 94.0074 321.366 96.3956 321.366 96.3956C317.467 89.6526 311.339 96.1322 312.717 98.8101C314.219 99.5301 315.773 100.197 317.406 100.794C324.93 103.156 333.315 103.683 333.315 103.683Z" fill="white"/>
<path d="M382.378 126.827H377.575L380.973 123.429L379.963 122.42L376.565 125.817V121.015H375.143V125.817L371.745 122.42L370.735 123.429L374.133 126.827H369.331V128.249H374.133L370.735 131.647L371.745 132.657L375.143 129.259V134.062H376.565V129.259L379.963 132.657L380.973 131.647L377.575 128.249H382.378V126.827Z" fill="#C94B58"/>
<path d="M65.9466 234.672H61.9166L64.7701 231.818L63.9184 230.975L61.0649 233.829V229.79H59.8708V233.829L57.0173 230.975L56.1744 231.818L59.0279 234.672H54.9891V235.866H59.0279L56.1744 238.719L57.0173 239.571L59.8708 236.718V240.748H61.0649V236.718L63.9184 239.571L64.7701 238.719L61.9166 235.866H65.9466V234.672Z" fill="#576DAF"/>
<path d="M263.83 127.091H260.16L262.759 124.492L261.986 123.719L259.388 126.318V122.648H258.299V126.318L255.7 123.719L254.927 124.492L257.526 127.091H253.856V128.179H257.526L254.927 130.778L255.7 131.551L258.299 128.952V132.622H259.388V128.952L261.986 131.551L262.759 130.778L260.16 128.179H263.83V127.091Z" fill="#C94B58"/>
<path d="M132.086 71.1443L133.043 73.4973C133.395 74.3665 134.088 75.0602 134.957 75.4114L137.31 76.3684L134.957 77.3254C134.088 77.6766 133.395 78.3702 133.043 79.2394L132.086 81.5925L131.129 79.2394C130.778 78.3702 130.084 77.6766 129.215 77.3254L126.862 76.3684L129.215 75.4114C130.084 75.0602 130.778 74.3665 131.129 73.4973L132.086 71.1443Z" fill="#576DAF"/>
<path d="M61.2229 123.35L61.8639 124.931C62.1009 125.519 62.5663 125.984 63.1545 126.221L64.7349 126.862L63.1545 127.503C62.5663 127.74 62.1009 128.206 61.8639 128.794L61.2229 130.374L60.582 128.803C60.3449 128.214 59.8796 127.749 59.2913 127.512L57.7109 126.871L59.2913 126.23C59.8796 125.993 60.3449 125.528 60.582 124.939L61.2229 123.35Z" fill="#C94B58"/>
<path d="M322.911 128.364L323.517 129.847C323.745 130.401 324.175 130.84 324.728 131.059L326.212 131.665L324.728 132.271C324.175 132.499 323.736 132.929 323.517 133.482L322.911 134.966L322.305 133.482C322.077 132.929 321.647 132.49 321.093 132.271L319.61 131.665L321.093 131.059C321.647 130.831 322.086 130.401 322.305 129.847L322.911 128.364Z" fill="#304886"/>
<path d="M105.378 191.685C105.378 192.879 104.412 193.854 103.209 193.854C102.015 193.854 101.04 192.888 101.04 191.685C101.04 190.491 102.006 189.516 103.209 189.516C104.412 189.516 105.378 190.491 105.378 191.685Z" fill="#C94B58"/>
<path d="M386.338 248.377C386.302 249.115 385.67 249.686 384.933 249.642C384.195 249.607 383.625 248.974 383.668 248.237C383.704 247.499 384.336 246.929 385.073 246.973C385.802 247.016 386.373 247.64 386.338 248.377Z" fill="#304886"/>
<path d="M313.253 70.6965C313.253 71.6448 312.489 72.4086 311.541 72.4086C310.592 72.4086 309.829 71.6448 309.829 70.6965C309.829 69.7483 310.592 68.9844 311.541 68.9844C312.489 68.9844 313.253 69.7571 313.253 70.6965Z" fill="#C94B58"/>
<path d="M404.038 201.062L404.679 202.642C404.916 203.231 405.381 203.696 405.97 203.933L407.55 204.574L405.97 205.215C405.381 205.452 404.916 205.917 404.679 206.506L404.038 208.086L403.397 206.506C403.16 205.917 402.695 205.452 402.106 205.215L400.526 204.574L402.106 203.933C402.695 203.696 403.16 203.231 403.397 202.642L404.038 201.062Z" fill="#C94B58"/>
<path d="M374.054 360.287H230.844V383.835H374.054V360.287Z" fill="#A2ADED"/>
<path d="M374.054 360.287H230.835L247.104 351.665H385.512L374.054 360.287Z" fill="#A2ADED"/>
<path d="M374.054 360.287V383.844L385.512 375.415V372.948L376.592 379.507V361.165L385.512 354.457V351.665L374.054 360.287Z" fill="#A2ADED"/>
<path d="M376.592 379.507L385.512 372.948V354.457L376.592 361.165V379.507Z" fill="#A2ADED"/>
<path d="M246.771 360.946H240.897V383.835H246.771V360.946Z" fill="#A2ADED"/>
<path d="M255.015 360.946H251.81V383.835H255.015V360.946Z" fill="#A2ADED"/>
<path d="M361.095 360.946H355.221V383.835H361.095V360.946Z" fill="#A2ADED"/>
<path d="M350.173 360.946H346.968V383.835H350.173V360.946Z" fill="#A2ADED"/>
<path d="M364.598 338.039H241.942V358.206H364.598V338.039Z" fill="#4B3E63"/>
<path d="M364.598 338.048H241.942L255.867 330.664H374.406L364.598 338.048Z" fill="#4B3E63"/>
<path d="M364.598 338.048V358.215L374.406 350.998V348.882L366.767 354.51V338.803L374.406 333.052V330.664L364.598 338.048Z" fill="#4B3E63"/>
<path d="M366.767 354.51L374.406 348.882V333.052L366.767 338.803V354.51Z" fill="#4B3E63"/>
<path d="M350.146 342.236H260.661V355.704H350.146V342.236Z" fill="#4B3E63"/>
<path d="M277.097 171.017C274.542 173.027 274.542 332.446 277.097 335.466C279.652 338.486 369.822 338.82 371.104 335.466C372.377 332.112 370.595 175.723 369.568 173.036C368.549 170.35 277.097 171.017 277.097 171.017Z" fill="#304886"/>
<path d="M364.37 177.848C362.579 175.389 343.342 175.942 343.342 175.942L346.318 333.113C346.318 333.113 365.986 333.561 367.346 331.77C368.707 329.979 366.161 180.306 364.37 177.848Z" fill="white"/>
<path d="M357.565 188.7L358.751 313.095" stroke="#F5E4D4" stroke-width="0.9939" stroke-miterlimit="10" stroke-linecap="round" stroke-linejoin="round"/>
<path d="M362.5 201.677L363.518 303.252" stroke="#F5E4D4" stroke-width="0.9939" stroke-miterlimit="10" stroke-linecap="round" stroke-linejoin="round"/>
<path d="M354.668 202.124L354.835 300.785" stroke="#F5E4D4" stroke-width="0.9939" stroke-miterlimit="10" stroke-linecap="round" stroke-linejoin="round"/>
<path d="M355.125 337.336H244.189V171.333H355.125C357.522 171.333 359.471 173.282 359.471 175.679V332.999C359.471 335.396 357.522 337.336 355.125 337.336Z" fill="#576DAF"/>
<g opacity="0.15">
<path d="M269.458 172.448C261.047 183.239 252.609 194.02 244.189 204.811C244.119 208.982 244.058 213.389 244.023 217.937C258.369 202.923 272.549 187.778 286.588 172.483C280.591 172.448 274.744 172.448 269.458 172.448Z" fill="white"/>
<path d="M291.197 172.483C275.911 190.587 260.16 208.297 243.97 225.611C243.926 234.268 243.926 243.232 243.987 251.863C268.229 225.488 292.479 199.104 316.712 172.729C308.819 172.597 299.925 172.527 291.197 172.483Z" fill="white"/>
</g>
<path d="M300.838 250.168L339.338 250.258L339.467 195.541L300.967 195.451L300.838 250.168Z" fill="#F6F9FD"/>
<path d="M308.538 207.48L312.182 207.489C313.104 207.489 313.859 206.743 313.859 205.821L313.867 202.177C313.867 201.255 313.121 200.5 312.199 200.5L308.556 200.491C307.634 200.491 306.879 201.238 306.879 202.159L306.87 205.803C306.87 206.725 307.616 207.48 308.538 207.48Z" fill="#49578C"/>
<path d="M308.266 238.43L334.237 238.491C334.676 238.491 335.036 238.131 335.036 237.692C335.036 237.253 334.676 236.893 334.237 236.893L308.266 236.832C307.827 236.832 307.467 237.192 307.467 237.631C307.467 238.061 307.827 238.421 308.266 238.43Z" fill="#C94B58"/>
<path d="M308.31 221.897L334.281 221.958C334.72 221.958 335.08 221.598 335.08 221.159C335.08 220.72 334.72 220.36 334.281 220.36L308.31 220.299C307.871 220.299 307.511 220.659 307.511 221.098C307.502 221.537 307.862 221.897 308.31 221.897Z" fill="#49578C"/>
<path d="M308.318 215.066L334.29 215.128C334.729 215.128 335.089 214.768 335.089 214.329C335.089 213.89 334.729 213.53 334.29 213.53L308.318 213.468C307.879 213.468 307.52 213.828 307.52 214.267C307.52 214.706 307.879 215.066 308.318 215.066Z" fill="#C94B58"/>
<path d="M327.951 205.838L334.316 205.856C334.755 205.856 335.115 205.496 335.115 205.057C335.115 204.618 334.755 204.258 334.316 204.258L327.951 204.24C327.512 204.24 327.152 204.6 327.152 205.039C327.152 205.478 327.512 205.838 327.951 205.838Z" fill="#49578C"/>
<path d="M319.706 233.566L334.255 233.601C334.694 233.601 335.054 233.241 335.054 232.802C335.054 232.363 334.694 232.003 334.255 232.003L319.706 231.968C319.267 231.968 318.907 232.328 318.907 232.767C318.907 233.197 319.267 233.566 319.706 233.566Z" fill="#49578C"/>
<path d="M252.908 179.086C250.862 247.851 253.575 331.383 253.575 331.383" stroke="#222941" stroke-width="0.8363" stroke-miterlimit="10" stroke-linecap="round" stroke-linejoin="round"/>
<path d="M183.019 354.133C182.721 355.625 174.055 366.539 190.342 373.115C206.629 379.691 211.264 382.975 211.264 382.975L128.469 383.124C128.469 383.124 148.944 373.264 154.326 366.389C158.997 360.419 152.386 354.431 152.386 354.431L183.019 354.133Z" fill="#222941"/>
<path d="M235.936 324.763C217.621 319.232 205.496 312.972 195.487 302.998C184.854 292.409 181.087 282.119 178.208 267.711C174.186 247.631 169.832 215.593 148.092 207.928C127.881 200.799 109.89 216.866 99.5828 233.364C86.3337 254.559 82.3213 275.789 82.3037 300.697C82.2861 320.856 87.4751 357.846 151.192 357.846C151.192 357.846 194.697 357.846 226.91 357.846C268.765 357.838 262.241 332.709 235.936 324.763Z" fill="white"/>
<path d="M230.299 323.403C226.55 315.703 210.623 318.012 193.441 300.013C183.493 289.582 179.349 280.574 176.531 267C174.143 255.524 165.204 217.182 149.321 215.672C142.921 215.066 136.38 215.865 130.743 218.964C122.929 223.258 115.466 231.774 111.172 239.58C106.87 247.385 104.069 254.436 102.094 263.119C99.293 275.446 98.5028 286.325 99.6267 296.861C102.243 321.48 115.589 335.133 135.95 340.006C156.477 344.914 175.021 343.219 199.297 342.991C208.586 342.903 238.052 339.312 230.299 323.403Z" fill="white"/>
<path d="M230.589 323.236C228.684 319.381 223.89 317.915 220.176 316.484C217.27 315.369 214.372 314.227 211.572 312.875C208.033 311.163 204.653 309.126 201.51 306.764C197.699 303.902 194.266 300.566 191.132 296.984C188.533 294.007 186.154 290.829 184.169 287.405C180.376 280.863 178.287 273.664 176.733 266.315C175.784 261.811 174.696 257.333 173.458 252.899C171.833 247.104 169.963 241.362 167.619 235.822C165.433 230.651 162.834 225.462 159.129 221.203C157.627 219.482 155.906 217.902 153.896 216.796C151.525 215.488 149.023 215.224 146.345 215.163C141.832 215.057 137.258 215.716 133.087 217.472C129.101 219.14 125.554 221.792 122.402 224.724C119.153 227.736 116.256 231.142 113.754 234.795C111.216 238.491 109.127 242.504 107.283 246.586C103.376 255.208 101.093 264.454 99.7935 273.813C98.5731 282.611 98.4062 291.601 99.7584 300.39C100.83 307.353 102.972 314.219 106.651 320.259C109.908 325.606 114.342 330.163 119.601 333.561C125.308 337.257 131.735 339.452 138.346 340.884C146.766 342.701 155.371 343.482 163.975 343.702C173.177 343.939 182.387 343.605 191.588 343.43C197.243 343.316 202.827 343.351 208.437 342.561C213.547 341.841 218.727 340.717 223.442 338.539C227.165 336.818 231.186 334.035 231.845 329.671C232.161 327.45 231.555 325.238 230.589 323.236C230.405 322.849 229.825 323.183 230.01 323.569C230.993 325.606 231.581 327.924 231.046 330.172C230.58 332.121 229.351 333.745 227.85 335.036C224.162 338.206 219.114 339.716 214.46 340.787C209.991 341.814 205.399 342.429 200.816 342.613C196.935 342.771 193.037 342.736 189.156 342.815C184.573 342.912 179.999 343.026 175.416 343.087C166.864 343.193 158.286 343.079 149.778 342.095C142.192 341.217 134.448 339.839 127.371 336.889C121.612 334.492 116.326 330.988 112.094 326.397C107.652 321.585 104.517 315.72 102.542 309.504C100.11 301.83 99.3281 293.665 99.495 285.64C99.6881 276.166 101.216 266.578 103.911 257.5C105.184 253.206 106.817 249.027 108.758 244.988C110.654 241.055 112.762 237.236 115.334 233.706C117.959 230.106 120.971 226.77 124.351 223.872C127.714 220.984 131.489 218.534 135.756 217.208C140.12 215.856 144.8 215.549 149.33 216.006C151.402 216.216 153.325 217.077 155.002 218.28C159.137 221.212 161.982 225.83 164.283 230.247C167.057 235.585 169.173 241.248 170.999 246.973C172.606 252.004 173.967 257.114 175.161 262.259C176.496 268.036 177.575 273.857 179.674 279.424C182.343 286.509 186.452 292.804 191.509 298.406C197.181 304.692 203.828 309.899 211.475 313.569C214.197 314.877 217.006 315.975 219.816 317.063C222.002 317.906 224.241 318.723 226.278 319.891C227.832 320.786 229.219 321.945 230.027 323.578C230.203 323.964 230.782 323.622 230.589 323.236Z" fill="#394971"/>
<path d="M124.448 223.038C120.391 226.533 116.914 230.686 113.947 235.128C110.689 240.01 108.012 245.278 105.825 250.722C103.516 256.455 101.76 262.417 100.557 268.475C99.3545 274.515 98.696 280.67 98.696 286.834C98.696 292.804 99.3106 298.792 100.733 304.596C102.076 310.092 104.157 315.439 107.142 320.251C110.092 325.018 113.92 329.215 118.46 332.516C124.43 336.854 131.533 339.452 138.636 341.226C147.504 343.439 156.679 344.273 165.802 344.492C174.854 344.703 183.976 344.343 193.002 343.649C195.1 343.491 197.208 343.324 199.306 343.201C199.587 343.184 199.587 342.754 199.306 342.771C194.977 343.017 190.64 343.149 186.303 343.342C181.834 343.544 177.365 343.693 172.896 343.711C163.747 343.755 154.554 343.395 145.52 341.832C137.609 340.462 129.54 338.25 122.542 334.211C117.678 331.41 113.42 327.617 110.057 323.13C106.721 318.67 104.254 313.604 102.559 308.31C100.777 302.726 99.8286 296.887 99.5213 291.039C99.1964 284.955 99.5476 278.844 100.452 272.821C101.365 266.772 102.831 260.801 104.833 255.015C106.765 249.422 109.197 243.996 112.191 238.886C114.948 234.189 118.179 229.737 122.016 225.857C122.885 224.979 123.789 224.127 124.729 223.311C124.895 223.152 124.632 222.88 124.448 223.038Z" fill="#394971"/>
<path d="M302.506 335.589L335.431 366.925L340.971 378.181L383.019 356.389C384.046 355.853 384.441 354.589 383.914 353.571C383.519 352.798 382.685 352.359 381.825 352.455L359.365 353.404L327.073 319.469" fill="#EECFC2"/>
<path d="M386.478 354.045C385.354 352.912 383.791 351.806 382.817 351.867L359.286 353.43C350.866 363.176 335.422 366.925 335.422 366.925L340.401 382.694C340.646 383.177 341.235 383.361 341.718 383.115L388.655 359.093C389.595 358.601 386.513 354.08 386.478 354.045Z" fill="white"/>
<path d="M363.887 352.122C363.527 354.08 363.395 356.082 363.501 358.075" stroke="#394971" stroke-width="0.8049" stroke-miterlimit="10"/>
<path d="M367.057 352.333C366.732 354.457 366.741 355.581 366.811 357.355" stroke="#394971" stroke-width="0.8049" stroke-miterlimit="10"/>
<path d="M369.647 352.341C369.41 353.755 369.383 355.546 369.375 356.977" stroke="#394971" stroke-width="0.8049" stroke-miterlimit="10"/>
<path d="M339.487 380.297L387.444 355.441" stroke="#394971" stroke-width="0.8049" stroke-miterlimit="10"/>
<path d="M337.196 372.518C337.196 372.518 348.61 366.969 353.061 373.273" stroke="#394971" stroke-width="0.8049" stroke-miterlimit="10"/>
<path d="M377.997 352.183C377.997 352.183 377.145 358.206 377.575 360.559" stroke="#394971" stroke-width="0.8049" stroke-miterlimit="10"/>
<path d="M249.308 320.689L260.23 360.226L258.527 372.658L305.57 378.093C306.721 378.225 307.757 377.399 307.888 376.249C307.985 375.389 307.546 374.555 306.782 374.151L287.633 362.377L278.677 321.049" fill="#EECFC2"/>
<path d="M309.758 378.076C309.46 376.513 308.784 374.713 307.941 374.221L287.554 362.368C275.121 365.74 260.222 360.217 260.222 360.217L255.533 376.074C255.472 376.609 255.858 377.092 256.394 377.154L308.74 383.475C309.802 383.598 309.767 378.128 309.758 378.076Z" fill="white"/>
<path d="M292.102 363.861C290.706 365.283 289.485 366.872 288.458 368.584" stroke="#394971" stroke-width="0.8049" stroke-miterlimit="10"/>
<path d="M294.613 365.801C293.155 367.382 292.541 368.312 291.601 369.831" stroke="#394971" stroke-width="0.8049" stroke-miterlimit="10"/>
<path d="M296.755 367.259C295.772 368.295 294.753 369.77 293.937 370.946" stroke="#394971" stroke-width="0.8049" stroke-miterlimit="10"/>
<path d="M257.315 372.983L310.979 379.182" stroke="#394971" stroke-width="0.8049" stroke-miterlimit="10"/>
<path d="M259.765 365.248C259.765 365.248 272.329 367.021 272.496 374.748" stroke="#394971" stroke-width="0.8049" stroke-miterlimit="10"/>
<path d="M304.956 371.201C304.956 371.201 300.891 375.714 299.925 377.909" stroke="#394971" stroke-width="0.8049" stroke-miterlimit="10"/>
<path d="M156.477 189.657C150.709 189.63 144.888 191.983 141.077 196.312C135.879 202.221 134.931 210.834 130.322 217.217C125.888 223.363 118.644 226.708 111.743 229.852C109.75 230.765 107.713 231.704 106.133 233.223C104.429 234.865 102.129 236.331 101.119 238.474C99.6003 241.669 99.293 245.761 99.4686 249.299C99.6354 252.539 101.242 255.595 101.207 258.834C101.181 261.389 100.118 263.839 99.9515 266.394C99.7232 270.064 101.418 273.699 103.982 276.333C106.554 278.967 109.926 280.705 113.411 281.891C116.581 282.971 119.891 283.638 123.227 283.866C128.188 284.209 133.386 283.629 137.934 285.631C139.418 286.281 140.77 287.194 142.236 287.861C147.144 290.091 153.035 289.441 157.864 287.036C162.693 284.63 166.565 280.644 169.761 276.289C171.623 273.752 173.3 271.039 174.353 268.08C177.216 260.046 175.275 251.169 173.106 242.916C170.938 234.663 168.55 226.015 170.604 217.726C171.386 214.574 172.79 211.607 173.774 208.507C174.81 205.241 175.372 201.826 175.433 198.393C175.468 196.619 175.064 195.065 173.177 194.696C172.501 194.565 171.869 194.811 171.175 194.582C170.235 194.275 169.357 193.459 168.497 192.976C164.836 190.904 160.683 189.674 156.477 189.657Z" fill="#222941"/>
<path d="M143.351 201.009C142.982 211.984 149.453 223.39 162.974 223.398L172.246 239.273L179.244 204.969C179.586 202.651 175.512 197.006 173.502 195.785C167.997 192.466 165.003 189.63 158.681 190.807C158.681 190.798 143.834 186.821 143.351 201.009Z" fill="#222941"/>
<path d="M173.089 221.133C173.142 218.736 175.126 216.84 177.523 216.901C179.92 216.954 181.807 218.938 181.755 221.335C181.702 223.732 179.718 225.628 177.321 225.567C174.933 225.506 173.036 223.521 173.089 221.133Z" fill="#C94B58"/>
<path d="M159.515 212.581C159.313 212.818 156.539 212.713 156.231 212.704C154.941 212.669 151.964 212.327 151.464 215.698C150.963 219.105 154.177 221.107 156.135 221.256C156.697 221.3 158.005 221.449 158.374 221.871C159.524 223.179 158.049 233.118 158.883 236.63C160.709 244.391 156.53 240.66 156.53 240.66C156.53 240.66 183.52 270.784 176.557 241.09C176.557 241.09 175.372 222.731 175.468 222.634C177.084 221.089 183.23 220.554 179.665 207.401C176.373 195.223 167.47 195.882 165.204 196.224C163.299 196.532 169.375 200.816 159.515 212.581Z" fill="#EECFC2"/>
<path d="M176.733 198.147C177.707 201.975 166.003 204.548 162.465 197.374C162.465 197.374 162.219 190.113 167.838 189.692C170.745 189.472 174.757 190.385 176.733 198.147Z" fill="#222941"/>
<path d="M152.912 216.717C152.912 216.717 155.046 212.476 157.487 218.28L152.912 216.717Z" fill="#E6B6B3"/>
<path d="M178.094 214.1L172.501 216.726C172.501 216.726 175.161 218.754 176.645 217.709C178.129 216.673 178.094 214.1 178.094 214.1Z" fill="white"/>
<path d="M167.487 208.885C166.996 209.543 167.32 207.208 168.119 206.69C168.918 206.172 169.928 206.312 170.385 206.997C170.393 207.006 168.681 207.305 167.487 208.885Z" fill="#F3D837"/>
<path d="M176.873 203.898C177.663 204.135 176.021 202.449 175.064 202.502C174.107 202.555 173.379 203.266 173.423 204.082C173.423 204.091 174.985 203.327 176.873 203.898Z" fill="#F3D837"/>
<path d="M167.487 208.885C166.996 209.543 167.32 207.208 168.119 206.69C168.918 206.172 169.928 206.312 170.385 206.997C170.393 207.006 168.681 207.305 167.487 208.885Z" fill="#222941"/>
<path d="M176.873 203.898C177.663 204.135 176.021 202.449 175.064 202.502C174.107 202.555 173.379 203.266 173.423 204.082C173.423 204.091 174.985 203.327 176.873 203.898Z" fill="#222941"/>
<path d="M170.007 211.326C170.262 211.993 170.727 212.432 171.052 212.309C171.377 212.186 171.43 211.545 171.184 210.878C170.929 210.211 170.464 209.772 170.139 209.895C169.814 210.018 169.761 210.659 170.007 211.326Z" fill="#222941"/>
<path d="M175.187 208.999C175.424 209.64 175.872 210.062 176.179 209.939C176.487 209.824 176.548 209.21 176.302 208.578C176.065 207.937 175.618 207.515 175.31 207.638C175.003 207.752 174.95 208.367 175.187 208.999Z" fill="#222941"/>
<path d="M175.468 222.643C175.468 222.643 169.673 223.618 166.767 223.363C163.852 223.109 175.978 231.467 175.468 222.643Z" fill="#E6B6B3"/>
<path d="M173.159 208.191C173.624 209.017 174.257 209.789 174.95 210.43C175.6 211.036 176.513 211.37 177.11 212.002C177.883 212.818 177.242 213.969 176.171 213.925C175.907 213.916 175.784 213.591 175.969 213.407C176.215 213.152 176.618 212.924 176.25 212.406C176.153 212.274 175.863 212.178 175.732 212.09C175.284 211.8 174.862 211.475 174.476 211.115C173.66 210.351 173.124 209.473 172.685 208.455C172.545 208.139 172.975 207.884 173.159 208.191Z" fill="#222941"/>
<path d="M153.984 222.433C154.036 220.036 156.021 218.139 158.418 218.201C160.814 218.253 162.711 220.238 162.65 222.634C162.597 225.031 160.613 226.928 158.216 226.866C155.827 226.805 153.931 224.821 153.984 222.433Z" fill="#C94B58"/>
<path d="M227.463 265.595C227.463 265.595 195.97 307.239 188.928 302.032C188.928 302.032 180.85 296.053 185.513 272.496C185.574 270.196 185.618 268.607 185.548 268.247C185.548 268.247 184.301 244.857 180.578 239.931C180.166 239.387 178.919 238.377 179.086 238.333C190.877 235.664 194.688 265.244 197.611 278.949C197.734 279.52 220.606 258.229 220.606 258.229C220.606 258.229 232.679 242.995 233.478 243.9C234.637 245.208 229.931 252.021 229.931 252.021C229.931 252.021 230.212 252.82 231.09 253.233C231.968 253.645 232.451 254.251 232.723 255.445C232.995 256.639 234.163 257.351 234.347 258.053C234.531 258.738 230.01 263.839 227.463 265.595Z" fill="#847BBD"/>
<path d="M221.01 258.141C221.01 258.141 223.53 251.477 224.513 251.696C225.497 251.916 229.799 253.891 229.658 255.568C229.518 257.245 225.804 255.779 225.804 255.779C225.804 255.779 226.41 259.546 224.522 260.002C222.643 260.45 221.01 258.141 221.01 258.141Z" fill="#847BBD"/>
<path d="M226.902 255.507C226.902 255.507 226.761 257.184 228.14 257.509C228.14 257.509 228.394 259.291 230.185 258.94C230.185 258.94 229.676 259.721 230.756 259.941C230.756 259.941 225.997 264.875 226.902 255.507Z" fill="#847BBD"/>
<path d="M226.085 252.232C227.279 252.82 228.456 253.452 229.606 254.128C230.036 254.383 230.528 254.778 230.414 255.27C230.352 255.533 230.115 255.726 229.878 255.858C229.035 256.323 228.025 256.332 227.068 256.288C226.893 256.279 226.673 256.297 226.585 256.455C226.542 256.543 226.55 256.657 226.568 256.754C226.664 257.351 226.77 257.956 226.866 258.553" fill="#847BBD"/>
<path d="M226.094 252.223C227.472 252.846 228.842 253.373 230.133 254.199C230.343 254.365 230.563 254.576 230.659 254.91C230.765 255.243 230.607 255.638 230.378 255.84C229.29 256.745 227.902 256.473 226.761 256.525C226.682 256.516 226.743 256.85 226.77 257.078L226.893 258.562L226.866 258.571L226.621 257.105C226.612 256.894 226.445 256.552 226.647 256.376C226.875 256.218 227.147 256.297 227.384 256.288C228.35 256.306 229.421 256.253 230.185 255.621C230.37 255.463 230.466 255.217 230.396 254.98C230.141 254.26 229.29 254.032 228.701 253.663C228.693 253.654 226.006 252.249 226.094 252.223Z" fill="#222941"/>
<path d="M230.045 251.828C229.72 252.162 228.807 252.996 228.482 253.329L230.045 251.828Z" fill="#847BBD"/>
<path d="M230.062 251.837C229.816 252.557 229.219 253.11 228.499 253.338C228.895 252.855 229.553 252.214 230.062 251.837Z" fill="#222941"/>
<path d="M231.994 254.365C231.046 255.428 229.939 256.35 228.736 257.105C228.464 257.28 228.175 257.447 227.85 257.491C227.525 257.535 227.165 257.438 226.98 257.175" fill="#847BBD"/>
<path d="M232.011 254.374C231.397 255.48 228.104 258.834 226.972 257.184L226.998 257.166C227.323 257.605 227.964 257.535 228.394 257.28C229.737 256.534 230.949 255.41 232.011 254.374Z" fill="#222941"/>
<path d="M228.06 257.509C228.166 258.123 228.324 258.834 228.895 259.107C229.527 259.414 230.264 258.992 230.8 258.545C231.423 258.027 232.494 256.85 233.012 256.227" fill="#847BBD"/>
<path d="M228.078 257.509C228.763 260.107 230.387 258.676 231.66 257.43C232.099 257.052 232.556 256.543 233.021 256.244C232.635 256.701 232.24 257.149 231.827 257.588C231.054 258.343 230.018 259.66 228.807 259.089C228.298 258.764 228.069 258.009 228.078 257.509Z" fill="#222941"/>
<path d="M230.089 258.641C230.062 259.063 230.361 260.134 230.756 260.283C231.151 260.432 231.59 260.38 231.985 260.257C232.565 260.072 232.714 260.143 233.127 259.695" fill="#847BBD"/>
<path d="M230.106 258.641C230.22 259.124 230.44 259.66 230.765 260.011C230.817 260.072 230.975 260.099 231.125 260.107C231.713 260.063 232.573 260.011 233.109 259.686L233.127 259.704C232.705 260.204 231.722 260.415 231.09 260.388C230.686 260.388 230.414 260.072 230.291 259.712C230.203 259.396 230.01 258.931 230.106 258.641Z" fill="#222941"/>
<path d="M176.294 237.806C176.294 237.806 186.707 237.438 189.595 243.698C192.484 249.958 198.568 277.755 198.568 277.755L204.372 272.821L211.317 286.149C211.317 286.149 197.26 306.571 189.674 304.034C182.097 301.479 176.013 246.235 176.294 237.806Z" fill="#847BBD"/>
<path opacity="0.3" d="M199.736 284.033C201.483 287.405 203.292 290.741 205.127 294.051C200.404 299.486 193.994 305.465 189.683 304.025C182.843 301.734 177.224 256.534 176.399 241.538C183.932 255.805 192.3 269.678 199.736 284.033Z" fill="#394971"/>
<path d="M176.39 238.114C176.039 238.904 189.148 263.883 188.577 271.732C187.997 279.634 182.325 293.454 182.721 294.657C182.721 294.657 159.427 292.4 144.809 292.242C134.606 282.892 140.067 248.114 143.79 238.386C143.79 238.386 155.459 233.372 158.339 233.232C158.339 233.232 179.56 269.546 176.39 238.114Z" fill="#847BBD"/>
<g opacity="0.3">
<path d="M143.123 243.847C143.123 243.847 145.774 241.599 148.9 239.176C149.111 239.554 149.339 239.922 149.55 240.3C148.066 242.188 148.514 244.409 149.225 247.491C153.035 264.023 154.774 273.602 161.271 292.822C152.807 292.822 155.02 292.339 144.809 292.234C134.606 282.892 139.409 253.566 143.123 243.847Z" fill="#394971"/>
</g>
<path d="M172.545 326.432C172.545 326.432 168.848 339.022 182.009 339.716C213.995 341.41 269.142 309.715 269.142 309.715L324.878 364.712L353.421 340.787C353.421 340.787 316.001 301.031 304.894 290.17C300.267 285.64 290.767 275.508 278.835 274.876C266.903 274.243 196.795 292.242 196.795 292.242" fill="#5661ED"/>
<path d="M172.545 326.432C172.545 326.432 168.848 339.022 182.009 339.716C213.995 341.41 269.142 309.715 269.142 309.715L324.878 364.712L353.421 340.787C353.421 340.787 316.001 301.031 304.894 290.17C300.267 285.64 290.767 275.508 278.835 274.876C266.903 274.243 196.795 292.242 196.795 292.242" fill="#443E9F"/>
<path d="M182.378 332.762C209.956 334.228 254.831 309.434 266.596 304.104C268.369 303.305 270.442 303.674 271.829 305.044L328.618 361.569" fill="#5661ED"/>
<path d="M182.378 332.762C209.956 334.228 254.831 309.434 266.596 304.104C268.369 303.305 270.442 303.674 271.829 305.044L328.618 361.569" stroke="white" stroke-width="0.8049" stroke-miterlimit="10"/>
<path d="M144.343 291.803C144.343 291.803 133.342 338.144 172.773 340.234C200.562 341.709 239.94 306.65 239.94 306.65L255.41 357.39L292.91 351.033C292.91 351.033 280.503 304.166 276.228 288.247C272.593 274.7 264.436 263.418 255.226 261.065C246.016 258.712 235.629 261.802 223.126 267.167C213.047 271.495 180.613 293.735 180.613 293.735" fill="#443E9F"/>
<path d="M154.791 292.356C154.791 292.356 147.785 330.918 175.986 332.411C192.888 333.306 229.869 303.981 240.186 297.045C241.555 296.123 243.425 296.799 243.9 298.38L261.451 356.371" fill="#443E9F"/>
<path d="M154.791 292.356C154.791 292.356 147.785 330.918 175.986 332.411C192.888 333.306 229.869 303.981 240.186 297.045C241.555 296.123 243.425 296.799 243.9 298.38L261.451 356.371" stroke="white" stroke-width="0.8049" stroke-miterlimit="10"/>
<path d="M153.94 302.094C153.94 302.094 165.204 302.067 167.162 293.006L153.94 302.094Z" fill="#5661ED"/>
<path d="M153.94 302.094C153.94 302.094 165.204 302.067 167.162 293.006" stroke="white" stroke-width="0.8049" stroke-miterlimit="10"/>
<path d="M253.268 350.34L290.996 343.79" stroke="white" stroke-width="0.8049" stroke-miterlimit="10"/>
<path d="M319.539 359.453L348.206 335.264" stroke="white" stroke-width="0.8049" stroke-miterlimit="10"/>
<path d="M107.028 276.263C111.032 283.568 117.792 292.971 123.06 299.951C123.06 299.951 123.087 299.986 123.122 300.03C123.359 300.39 124.228 301.76 124.246 301.786C126.634 305.114 129.531 309.091 132.174 312.647C133.517 314.438 134.791 316.124 135.914 317.581C135.932 317.608 135.958 317.625 135.976 317.643C138.215 320.567 139.857 322.498 140.085 322.34C140.673 321.971 138.706 318.521 137.53 316.677C138.522 318.003 139.62 319.539 140.55 320.751C141.595 322.077 142.455 322.999 142.807 322.805C143.404 322.481 141.753 319.197 140.313 316.844C140.146 316.563 139.98 316.291 139.813 316.054C139.962 316.238 140.129 316.449 140.304 316.686C142.06 318.986 145.116 323.534 145.687 323.192C146.494 322.709 143.184 316.712 142.649 315.729C143.211 316.607 146.512 321.743 147.214 320.918C147.504 320.584 146.345 318.565 145.177 316.554C144.045 314.614 142.877 312.7 142.965 312.331C143.079 311.83 144.036 313.06 144.773 313.709C145.151 314.052 145.467 314.227 145.59 313.955C145.687 313.736 144.967 312.269 143.86 310.259C140.963 304.991 135.467 295.939 135.23 295.561C135.221 295.552 135.221 295.552 135.221 295.552C131.7 288.941 127.617 279.45 125.203 274.349C127.986 271.82 159.164 239.949 159.164 239.949C159.164 239.949 149.655 231.651 134.738 243.092C121.041 253.601 112.147 261.477 107.608 267.052C104.939 270.292 105.018 272.593 107.028 276.263Z" fill="#EECFC2"/>
<path d="M125.185 274.34C125.773 275.587 129.707 282.865 130.462 284.525C125.879 287.141 117.415 292.506 112.876 295.201C110.417 291.575 107.256 279.59 105.5 276.394C103.49 272.716 104.939 270.292 107.59 267.052C112.129 261.486 121.032 253.61 134.72 243.101C149.638 231.651 159.146 239.949 159.146 239.949C159.146 239.949 171.886 248.562 125.185 274.34Z" fill="#847BBD"/>
<g opacity="0.3">
<path d="M183.002 258.062C177.11 261.618 171.219 266.087 166.978 271.565C165.134 273.945 163.624 276.728 163.457 279.792C163.334 282.066 164.063 284.981 166.434 285.868C169.041 286.843 171.456 284.656 172.281 282.338C173.326 279.388 173.001 275.859 172.387 272.847C171.052 266.324 167.391 260.494 163.334 255.322C158.242 248.825 152.386 242.925 146.003 237.683C145.678 237.42 145.212 237.876 145.537 238.149C150.516 242.231 155.151 246.718 159.375 251.573C163.422 256.218 167.277 261.214 169.761 266.886C170.999 269.704 171.886 272.707 172.149 275.789C172.395 278.677 172.483 282.76 169.867 284.665C168.646 285.552 166.996 285.745 165.775 284.735C164.607 283.761 164.142 282.128 164.089 280.661C163.984 277.615 165.38 274.779 167.154 272.391C169.217 269.59 171.851 267.175 174.494 264.936C177.259 262.601 180.218 260.494 183.318 258.632C183.695 258.404 183.362 257.842 183.002 258.062Z" fill="#6B6EAD"/>
</g>
<g opacity="0.3">
<path d="M137.89 242.012C136.915 255.278 128.249 267.061 115.817 271.82C112.393 273.128 108.793 273.883 105.132 274.076C104.71 274.094 104.71 274.752 105.132 274.735C118.591 274.041 130.708 265.612 135.906 253.154C137.389 249.607 138.267 245.849 138.548 242.012C138.575 241.59 137.916 241.59 137.89 242.012Z" fill="#6B6EAD"/>
</g>
<g opacity="0.3">
<path d="M115.571 259.361C118.591 268.703 117.099 279.16 111.594 287.282C111.357 287.633 111.927 287.958 112.165 287.615C117.766 279.362 119.276 268.677 116.212 259.186C116.072 258.79 115.439 258.957 115.571 259.361Z" fill="#6B6EAD"/>
</g>
<g opacity="0.3">
<path d="M185.758 240.844C184.916 243.733 185.477 247.113 185.89 250.028C186.461 254.032 187.33 258 188.322 261.916C189.218 265.446 190.359 268.879 191.448 272.347C192.554 275.885 193.625 279.467 195.285 282.795C197.357 286.93 200.412 290.398 203.722 293.586C204.03 293.875 204.495 293.419 204.188 293.12C201.202 290.249 198.41 287.159 196.409 283.515C194.644 280.301 193.538 276.798 192.44 273.313C190.227 266.28 188.111 259.308 186.865 252.021C186.505 249.905 186.197 247.772 186.083 245.62C185.996 244.093 185.952 242.486 186.382 241.002C186.514 240.616 185.881 240.44 185.758 240.844Z" fill="#6B6EAD"/>
</g>
<g opacity="0.3">
<path d="M208.824 285.631C204.978 283.339 200.105 284.252 196.549 286.676C192.537 289.415 190.069 293.823 187.76 297.967C187.558 298.336 188.12 298.669 188.331 298.3C190.482 294.455 192.721 290.425 196.277 287.685C199.692 285.06 204.627 283.884 208.499 286.193C208.859 286.412 209.192 285.85 208.824 285.631Z" fill="#6B6EAD"/>
</g>
<path d="M57.3685 359.014L50.5377 367.083C51.0645 368.874 55.2086 369.339 55.2086 369.339L59.5021 359.883L57.3685 359.014Z" fill="#222941"/>
<path d="M91.4788 306.554L98.3097 298.485C97.7829 296.694 93.6387 296.228 93.6387 296.228L89.3453 305.684L91.4788 306.554Z" fill="#222941"/>
<path d="M75.4553 371.157C67.9396 371.157 60.2923 369.067 53.5053 365.046L55.4808 361.71C64.4276 367.013 74.9549 368.628 84.3846 366.144C92.5851 363.984 99.1174 358.997 103.297 351.718C108.661 342.376 110.207 331.542 107.555 322.015C105.351 314.096 100.434 307.836 93.3402 303.893L95.2191 300.504C103.235 304.956 108.793 312.032 111.278 320.97C114.21 331.498 112.524 343.403 106.651 353.641C101.945 361.841 94.5869 367.452 85.3679 369.884C82.1545 370.744 78.8181 371.157 75.4553 371.157Z" fill="#222941"/>
<path d="M77.5537 369.155H69.4586C69.52 371.631 66.5524 375.643 66.5524 375.643H80.337C80.337 375.643 77.6679 371.078 77.5537 369.155Z" fill="#222941"/>
<path d="M50.8274 382.65H96.2376C96.2376 382.65 95.0874 377.461 93.1031 376.056C91.1276 374.651 57.0788 374.406 54.4887 375.644C51.8986 376.882 50.8274 382.65 50.8274 382.65Z" fill="#222941"/>
<path d="M103.033 346.652C103.016 346.687 102.998 346.722 102.981 346.766C101.356 350.041 99.0998 352.956 96.378 355.432C96.3605 355.449 96.3429 355.458 96.3253 355.476C96.3166 355.476 96.3166 355.476 96.3166 355.476C96.299 355.493 96.2814 355.511 96.2551 355.528C92.5324 358.874 87.9492 361.385 82.9271 362.825C82.8392 362.851 82.7515 362.877 82.6637 362.904C80.0033 363.65 77.2288 364.098 74.3929 364.212C72.6281 364.282 70.9072 364.203 69.2303 363.992C69.1776 363.984 69.1161 363.975 69.0634 363.966C64.849 363.387 60.9595 361.92 57.5353 359.769C57.5002 359.743 57.4651 359.725 57.4299 359.699C56.1393 358.874 54.9189 357.961 53.7687 356.951C52.2585 355.625 50.8801 354.15 49.6509 352.552C49.6157 352.499 49.5806 352.455 49.5455 352.403C47.4559 349.663 45.8052 346.555 44.6814 343.21C44.655 343.131 44.6287 343.043 44.6024 342.964C43.5575 339.751 42.9956 336.335 42.9956 332.806C42.9956 330.268 43.2941 327.828 43.8648 325.51C43.8736 325.457 43.8824 325.422 43.9 325.369C44.9887 321.032 46.9993 317.125 49.7211 313.771C49.7387 313.736 49.7738 313.709 49.8001 313.674C52.838 309.969 56.7451 306.949 61.2229 304.824C61.2931 304.789 61.3546 304.763 61.4248 304.736C62.5575 304.209 63.7164 303.735 64.9105 303.331C67.9045 302.304 71.0916 301.646 74.3929 301.417C76.5791 301.268 78.6863 301.365 80.7057 301.69C80.8725 301.716 81.0306 301.742 81.1974 301.777C82.3125 301.979 83.4012 302.243 84.4636 302.585C84.5338 302.603 84.604 302.629 84.6743 302.655C86.3864 303.208 88.0195 303.937 89.556 304.806C90.153 305.149 90.7413 305.5 91.312 305.895C91.3471 305.913 91.3822 305.939 91.4173 305.965C93.7528 307.546 95.86 309.469 97.6862 311.672C97.7301 311.716 97.7653 311.76 97.8004 311.804C98.8979 313.13 99.89 314.552 100.768 316.054C100.873 316.22 100.979 316.396 101.067 316.563C102.989 319.943 104.377 323.701 105.149 327.661C105.167 327.722 105.176 327.792 105.184 327.863C105.492 329.487 105.702 331.146 105.79 332.823C106.089 337.863 105.053 342.534 103.033 346.652Z" fill="#789DEF"/>
<path d="M82.3213 328.056C81.5399 329.856 79.1956 330.163 77.4659 331.085C74.4281 332.709 73.2428 337.047 75.0339 339.997C75.9031 341.428 77.2991 342.455 78.2649 343.816C79.2307 345.186 79.6697 347.214 78.5283 348.443C77.8523 349.172 76.7899 349.409 75.789 349.4C72.4526 349.374 68.1065 346.081 68.7913 342.35C69.0196 341.103 69.6781 339.97 69.9942 338.741C70.3102 337.512 70.161 335.993 69.1162 335.282C67.9748 334.5 66.4295 335.036 65.1739 335.589C63.9184 336.133 62.2414 337.284 60.863 337.249C59.7128 337.213 58.0534 336.713 57.2983 335.809C56.4115 334.694 56.7451 332.99 57.5968 331.849C58.4485 330.707 59.704 329.952 60.8278 329.083C61.9517 328.214 63.0316 327.09 63.2336 325.685C63.5935 323.165 60.9683 321.12 58.4485 320.795C56.8856 320.593 54.9628 321.058 54.4887 322.56C54.2165 323.402 54.4975 324.307 54.5238 325.185C54.594 327.722 52.6273 329.786 51.0557 331.779C49.4841 333.78 48.2022 336.643 49.6246 338.741C50.7133 340.348 52.8995 340.725 54.8311 340.655C58.1148 340.55 62.2063 340.12 64.4891 343.078C64.9369 343.658 65.2793 344.431 65.0159 345.115C64.6998 345.941 63.6638 346.222 62.7858 346.204C61.5566 346.187 60.3274 345.818 59.107 346.002C57.8953 346.187 56.6486 347.249 56.9207 348.452C57.2807 350.059 59.7655 350.261 60.3713 351.788C60.8366 352.956 59.9235 354.22 58.9226 354.993C57.4388 356.134 55.6301 356.758 53.7687 356.951C47.1047 351.112 42.9869 342.35 42.9869 332.806C42.9869 318.775 52.2147 307.678 64.9018 303.323C65.4988 303.867 66.1661 304.341 66.9387 304.71C69.4235 305.913 72.3209 305.474 74.9549 306.053C75.9119 306.264 76.9304 306.677 77.3606 307.563C77.9488 308.775 77.0445 310.268 75.8504 310.909C74.6563 311.549 73.2515 311.602 71.9258 311.874C70.758 312.103 69.5464 312.559 68.844 313.525C68.1504 314.491 68.2382 316.089 69.283 316.659C70.6351 317.406 72.9355 316.326 73.5676 317.748C74.1032 318.969 72.3648 320.136 72.4877 321.453C72.5579 322.191 73.2164 322.762 73.9276 322.981C74.6388 323.201 75.4026 323.139 76.1402 323.113C77.7206 323.051 79.3888 323.157 80.7321 323.991C82.0754 324.834 82.9534 326.607 82.3213 328.056Z" fill="#2730CC"/>
<path d="M96.3254 355.467C94.8328 355.485 93.349 355.511 91.8651 355.528C90.8291 355.546 89.7755 355.555 88.7921 355.256C87.8088 354.949 86.8781 354.255 86.5532 353.281C85.7104 350.717 89.2399 348.259 88.4936 345.66C88.0458 344.097 86.1318 343.078 86.2284 341.454C86.2811 340.638 86.8605 339.935 87.5717 339.531C88.2741 339.127 89.0907 338.961 89.8896 338.803C92.8046 338.232 95.7108 337.652 98.6257 337.082C99.8988 336.827 101.47 336.248 101.506 334.957C101.549 333.719 100.039 332.99 98.8101 333.131C96.3868 333.412 94.3762 335.73 91.9617 335.387C90.1794 335.133 88.8273 333.175 89.2399 331.419C89.635 329.715 91.3735 328.152 90.7062 326.537C90.0301 324.904 87.4927 324.948 86.483 323.49C85.6665 322.314 86.2459 320.593 87.3522 319.68C88.4585 318.767 89.9248 318.459 91.3296 318.17C92.7344 317.88 94.2006 317.555 95.2806 316.615C96.3693 315.685 96.8873 313.92 96.0093 312.787C94.7713 311.172 92.1549 312.015 90.276 311.242C88.6078 310.549 87.7298 308.441 88.2741 306.712C88.5024 305.965 88.9677 305.307 89.5648 304.815C99.0033 310.145 105.149 321.023 105.808 332.832C106.308 341.963 102.515 349.874 96.3254 355.467Z" fill="#2730CC"/>
<path opacity="0.5" d="M80.9955 307.537C83.3485 311.611 78.7917 318.653 70.8195 323.253C62.8472 327.854 54.4711 328.284 52.1181 324.21C49.765 320.136 54.3219 313.095 62.2941 308.494C70.2663 303.885 78.6425 303.454 80.9955 307.537Z" fill="white"/>
<path opacity="0.5" d="M96.7029 320.382C99.653 322.744 102.48 325.264 105.193 327.845C105.184 327.775 105.167 327.713 105.158 327.643C102.463 325.079 99.6706 322.586 96.7293 320.242C97.2034 317.854 97.537 315.457 97.7214 313.06C98.8891 314.175 100.013 315.334 101.075 316.545C100.988 316.37 100.882 316.203 100.777 316.036C99.811 314.965 98.7926 313.92 97.739 312.91C97.7653 312.542 97.7916 312.164 97.818 311.787C97.7829 311.743 97.7477 311.699 97.7038 311.655C97.6775 312.041 97.6512 312.427 97.6248 312.814C95.3947 310.698 92.989 308.757 90.4516 307.01C90.7764 306.659 91.0925 306.299 91.4261 305.948C91.391 305.922 91.3559 305.895 91.3208 305.878C90.9871 306.229 90.6711 306.58 90.3462 306.931C88.2039 305.456 85.9738 304.13 83.6646 302.954C84.007 302.849 84.3407 302.743 84.6831 302.638C84.6129 302.611 84.5426 302.585 84.4724 302.568C84.1475 302.664 83.8227 302.77 83.5066 302.866C82.7515 302.48 81.9876 302.111 81.215 301.76C81.0482 301.725 80.8901 301.698 80.7233 301.672C81.6013 302.058 82.4793 302.48 83.3398 302.91C79.9858 304.007 76.746 305.57 73.6554 307.607C69.6517 306.369 65.5427 305.474 61.4424 304.719C61.3722 304.745 61.3107 304.78 61.2405 304.806C65.3671 305.562 69.4937 306.457 73.5237 307.686C72.5404 308.336 71.5658 309.038 70.6175 309.785C67.1055 312.524 63.9096 315.86 61.1878 319.574C57.4388 317.529 53.6458 315.562 49.8177 313.665C49.7914 313.701 49.7563 313.727 49.7387 313.762C53.5668 315.659 57.351 317.634 61.1088 319.671C60.0552 321.12 59.0631 322.612 58.1587 324.166C56.4027 327.187 54.9101 330.427 53.6634 333.868C50.2567 331.208 46.9993 328.372 43.9176 325.36C43.9 325.413 43.8912 325.448 43.8824 325.501C46.9642 328.504 50.2128 331.348 53.6107 334.009C52.0478 338.346 50.8801 343.017 50.1162 347.995C48.1934 346.415 46.3584 344.738 44.62 342.956C44.6463 343.035 44.6726 343.122 44.699 343.201C46.4023 344.931 48.211 346.573 50.0987 348.118C49.888 349.523 49.7036 350.945 49.5631 352.403C49.5982 352.456 49.6333 352.499 49.6685 352.552C49.8177 351.077 50.0021 349.637 50.2128 348.215C53.1366 350.594 56.2622 352.745 59.5547 354.633C58.826 356.31 58.1236 357.996 57.4563 359.69C57.351 359.954 57.2456 360.217 57.1402 360.48L57.2544 360.524C57.3597 360.27 57.4563 360.015 57.5617 359.752C58.229 358.048 58.9401 356.371 59.6601 354.686C60.2571 355.028 60.8717 355.37 61.4863 355.695C65.1739 357.653 69.0371 359.278 72.9794 360.533C71.7238 361.692 70.4244 362.833 69.0898 363.94C69.1425 363.949 69.204 363.957 69.2566 363.966C70.5912 362.86 71.8731 361.727 73.1198 360.577C76.2631 361.578 79.4766 362.351 82.69 362.877C82.7778 362.851 82.8656 362.825 82.9534 362.798C79.6434 362.272 76.386 361.499 73.2076 360.489C76.544 357.39 79.5731 354.124 82.2774 350.7C86.8518 352.587 91.5315 354.194 96.2815 355.493C96.299 355.476 96.3166 355.458 96.3429 355.441C96.3429 355.441 96.3429 355.441 96.3517 355.441C96.3693 355.423 96.3868 355.414 96.4044 355.397C91.6456 354.097 86.9659 352.482 82.3827 350.585C84.648 347.723 86.6762 344.755 88.4761 341.682C89.2399 340.392 89.9511 339.084 90.6184 337.758C94.8152 340.655 98.9506 343.64 103.007 346.722C103.025 346.687 103.042 346.652 103.06 346.608C99.0033 343.526 94.8767 340.541 90.6798 337.644C93.4894 332.086 95.5176 326.256 96.7029 320.382ZM90.3638 307.098C92.9275 308.863 95.3596 310.83 97.5985 312.963C97.4141 315.369 97.0892 317.775 96.6151 320.171C93.1119 317.388 89.4331 314.833 85.5172 312.665C87.0976 310.768 88.7131 308.907 90.3638 307.098ZM83.4978 303.007C85.8333 304.192 88.0985 305.535 90.2584 307.028C88.599 308.845 86.9835 310.707 85.4031 312.603C83.3661 311.479 81.2765 310.461 79.1166 309.574C77.3781 308.854 75.6134 308.239 73.8222 307.678C76.8952 305.676 80.1526 304.095 83.4978 303.007ZM73.6993 307.765C75.5168 308.327 77.3079 308.959 79.0727 309.679C81.2238 310.557 83.3046 311.576 85.324 312.691C81.4521 317.327 77.8259 322.182 74.4544 327.222C70.1171 324.597 65.7183 322.068 61.2668 319.636C64.7788 314.868 69.0284 310.83 73.6993 307.765ZM58.2553 324.237C59.1684 322.674 60.1518 321.172 61.1966 319.732C65.6481 322.156 70.0556 324.693 74.3929 327.318C73.7344 328.302 73.0847 329.294 72.4438 330.295C69.9854 334.132 67.7026 338.083 65.5603 342.104C61.4688 339.619 57.5266 336.897 53.7512 333.956C55.0067 330.514 56.4993 327.266 58.2553 324.237ZM59.5811 354.545C56.2974 352.657 53.1541 350.506 50.2216 348.101C50.9767 343.114 52.1356 338.443 53.7073 334.097C57.4563 337.029 61.3985 339.751 65.4988 342.236C63.3565 346.266 61.381 350.375 59.5811 354.545ZM73.0496 360.472C68.405 358.997 63.9184 357.021 59.6777 354.607C61.4863 350.436 63.4618 346.336 65.5954 342.306C66.3066 342.736 67.0177 343.157 67.7377 343.57C72.3999 346.266 77.2113 348.636 82.1369 350.673C79.4327 354.106 76.3948 357.372 73.0496 360.472ZM88.3444 341.656C86.5357 344.729 84.4987 347.706 82.2335 350.568C76.5177 348.197 70.9687 345.388 65.6656 342.183C68.3611 337.117 71.3199 332.174 74.5071 327.397C79.9331 330.681 85.2626 334.132 90.4867 337.731C89.8282 339.048 89.1082 340.365 88.3444 341.656ZM90.5481 337.626C85.3328 334.026 79.9946 330.585 74.5773 327.301C77.9401 322.261 81.575 317.397 85.4382 312.761C89.3628 314.939 93.068 317.502 96.58 320.312C95.421 326.186 93.3929 332.016 90.5481 337.626Z" fill="white"/>
<path d="M175.258 378.163H97.6951V382.711H175.258V378.163Z" fill="#C94B58"/>
<path d="M106.317 378.286H103.139V382.711H106.317V378.286Z" fill="#EFC83E"/>
<path d="M110.786 378.286H109.048V382.711H110.786V378.286Z" fill="#EFC83E"/>
<path d="M168.234 378.286H165.055V382.711H168.234V378.286Z" fill="#EFC83E"/>
<path d="M162.325 378.286H160.586V382.711H162.325V378.286Z" fill="#EFC83E"/>
<path d="M175.811 360.577H109.381V377.909H175.811V360.577Z" fill="#304886"/>
<path d="M167.988 364.186H119.522V375.758H167.988V364.186Z" fill="#576DAF"/>
<path d="M140.901 359.076L145.836 360.472L145.88 356.846L140.91 358.127C140.7 358.18 140.55 358.373 140.541 358.593C140.55 358.821 140.691 359.014 140.901 359.076Z" fill="#222941"/>
<path d="M166.802 361.885L166.873 355.924L177.005 356.038C178.647 356.055 179.972 357.408 179.946 359.049C179.929 360.691 178.576 362.017 176.935 361.991L166.802 361.885Z" fill="#EFC83E"/>
<path d="M179.946 359.049C179.946 358.909 179.937 358.768 179.92 358.637C179.7 360.085 178.445 361.183 176.943 361.174L166.811 361.06L166.802 361.885L176.935 361.999C178.576 362.017 179.929 360.7 179.946 359.049Z" fill="#D8AB1D"/>
<path d="M166.864 356.371L158.655 356.275L147.864 356.152L147.803 361.218L158.593 361.341L166.802 361.438L166.864 356.371Z" fill="#C94B58"/>
<path d="M149.831 356.398C149.778 356.336 149.743 356.266 149.743 356.178C149.743 356.003 149.883 355.871 150.059 355.871L160.99 355.994C161.166 355.994 161.297 356.134 161.297 356.31C161.297 356.486 161.157 356.617 160.981 356.617L150.05 356.494C149.962 356.486 149.883 356.45 149.831 356.398Z" fill="#222941"/>
<path d="M146.608 361.201L147.803 361.218L147.864 356.152L146.67 356.134C146.196 356.126 145.809 356.512 145.801 356.986L145.766 360.331C145.757 360.805 146.134 361.201 146.608 361.201Z" fill="#222941"/>
<path d="M176.004 361.991L175.986 363.439C175.986 363.711 175.758 363.931 175.486 363.922L171.491 363.878L170.938 363.492C170.587 363.246 170.174 363.114 169.753 363.106L165.863 363.062C165.398 363.053 165.02 363.431 165.011 363.896C165.003 364.361 165.38 364.739 165.845 364.748L176.092 364.862C176.539 364.87 176.908 364.51 176.908 364.063L176.935 362.008L176.004 361.991Z" fill="#EFC83E"/>
<path d="M124.413 337.512C125.519 338.17 126.722 338.504 128.021 338.337C128.1 338.328 128.214 338.346 128.267 338.39C128.46 338.557 128.645 338.732 128.82 338.917C128.864 338.961 128.899 339.057 128.882 339.119C128.75 339.566 128.609 340.005 128.469 340.462C128.671 340.585 128.934 340.585 129.163 340.523C129.206 340.365 129.25 340.207 129.303 340.049C129.584 339.198 129.953 338.407 130.725 337.863C130.892 337.749 131.006 337.529 131.085 337.336C131.191 337.073 131.033 336.827 130.743 336.845C130.506 336.853 130.251 336.932 130.049 337.055C129.672 337.275 129.496 337.679 129.321 338.056C129.233 338.232 129.154 338.416 129.066 338.618C128.908 338.443 128.767 338.302 128.636 338.144C128.601 338.1 128.592 338.004 128.609 337.951C128.873 337.345 128.75 336.801 128.355 336.292C128.021 335.87 127.591 335.572 127.117 335.317C126.063 334.746 124.922 334.421 123.763 334.149C123.456 334.079 123.148 334.017 122.78 333.938C122.832 334.386 122.85 334.79 122.929 335.185C123.131 336.142 123.543 337.003 124.413 337.512Z" fill="#222941"/>
<path d="M141.174 347.179C141.121 345.897 140.884 344.65 140.392 343.465C139.901 342.279 139.216 341.226 138.092 340.55C136.845 339.795 135.467 339.496 134.018 339.47C132.666 339.444 131.375 339.768 130.102 340.207C129.874 340.286 129.645 340.357 129.4 340.436C129.4 340.462 128.627 340.585 128.364 340.348C127.837 340.172 127.328 339.997 126.818 339.839C125.343 339.391 123.859 339.25 122.332 339.584C120.488 339.988 119.013 340.901 118.073 342.578C117.16 344.202 116.827 345.958 116.8 347.793C116.765 350.085 117.222 352.289 118.1 354.396C119.004 356.582 120.409 358.364 122.49 359.55C124.07 360.445 125.73 360.867 127.547 360.437C128.364 360.243 129.171 359.954 130.014 360.34C130.102 360.384 130.207 360.393 130.313 360.41C131.314 360.603 132.306 360.717 133.316 360.445C135.748 359.796 137.627 358.382 138.935 356.266C140.638 353.492 141.305 350.427 141.174 347.179Z" fill="#C94B58"/>
<path opacity="0.5" d="M123.605 341.428C124.272 342.095 123.754 343.684 122.455 344.975C121.155 346.274 119.566 346.784 118.908 346.125C118.24 345.458 118.758 343.869 120.058 342.578C121.357 341.279 122.946 340.769 123.605 341.428Z" fill="white"/>
<path d="M402.194 382.422H36.797V384.423H402.194V382.422Z" fill="#222941"/>
<path d="M261.223 148.601L251.889 140.585C254.875 136.195 256.622 130.883 256.622 125.176C256.622 110.031 244.374 97.7565 229.263 97.7565C228.842 97.7565 228.429 97.7653 228.008 97.7916C227.902 97.8004 227.806 97.8004 227.701 97.8092C227.288 97.8355 226.875 97.8618 226.471 97.9057C226.463 97.9057 226.454 97.9057 226.436 97.9057C226.041 97.9496 225.637 98.0023 225.251 98.055C225.154 98.0726 225.049 98.0813 224.952 98.0989C224.548 98.1604 224.153 98.2306 223.758 98.3096C223.741 98.3096 223.714 98.3184 223.697 98.3272C223.319 98.4062 222.951 98.494 222.573 98.5906C222.476 98.6169 222.38 98.6433 222.283 98.6608C221.897 98.7662 221.519 98.8715 221.133 98.9857C221.107 98.9945 221.08 99.0032 221.054 99.012C220.694 99.1262 220.343 99.2403 220 99.372C219.904 99.4071 219.816 99.4422 219.728 99.4686C219.36 99.6091 218.991 99.7495 218.631 99.8988C218.596 99.9164 218.561 99.9251 218.534 99.9427C218.201 100.083 217.876 100.232 217.542 100.39C217.454 100.434 217.366 100.469 217.279 100.513C216.927 100.68 216.585 100.865 216.243 101.049C216.207 101.067 216.172 101.093 216.137 101.11C215.927 101.225 215.725 101.339 215.523 101.462L215.514 101.47C207.375 106.22 201.905 115.053 201.905 125.176C201.905 140.322 214.153 152.596 229.263 152.596H259.756C261.855 152.596 262.821 149.98 261.223 148.601Z" fill="#627FF9" stroke="white" stroke-width="1.9842" stroke-miterlimit="10"/>
<path d="M240.513 121C241.341 121 242 120.323 242 119.508C242 118.677 241.326 118 240.513 118H218.487C217.659 118 217 118.677 217 119.492C217 120.323 217.675 121 218.487 121H240.513Z" fill="white"/>
<path d="M235.55 133C236.357 133 237 132.323 237 131.508C237 130.677 236.342 130 235.55 130H221.45C220.643 130 220 130.677 220 131.492C220 132.323 220.658 133 221.45 133H235.55Z" fill="white"/>
<path d="M222.591 167.303C214.048 167.303 207.129 174.239 207.129 182.8C207.129 186.031 208.112 189.025 209.807 191.509L204.53 196.04C203.626 196.812 204.17 198.296 205.364 198.296H222.599C231.142 198.296 238.061 191.36 238.061 182.8C238.052 174.239 231.133 167.303 222.591 167.303Z" fill="#627FF9" stroke="white" stroke-width="1.9842" stroke-miterlimit="10"/>
<path d="M228.886 181.395C229.36 181.395 229.737 181.008 229.737 180.543C229.737 180.069 229.351 179.683 228.886 179.683H216.269C215.795 179.683 215.417 180.069 215.417 180.534C215.417 181.008 215.804 181.395 216.269 181.395H228.886Z" fill="white"/>
<path d="M226.225 188.278C226.7 188.278 227.077 187.892 227.077 187.427C227.077 186.953 226.691 186.566 226.225 186.566H217.946C217.472 186.566 217.094 186.953 217.094 187.418C217.094 187.892 217.481 188.278 217.946 188.278H226.225Z" fill="white"/>
<path d="M312.085 119.742C312.085 110.119 304.28 102.313 294.657 102.313C285.034 102.313 277.228 110.119 277.228 119.742C277.228 127.67 282.523 134.36 289.766 136.467L291.68 142.35C292.075 143.562 293.77 143.632 294.262 142.447L296.501 137.073C305.263 136.151 312.085 128.741 312.085 119.742Z" fill="#627FF9" stroke="white" stroke-width="1.9842" stroke-miterlimit="10"/>
<path d="M290.109 124.342C289.617 124.342 289.187 124.175 288.836 123.833C288.484 123.491 288.309 123.06 288.309 122.525C288.309 121.989 288.484 121.559 288.836 121.234C289.187 120.909 289.608 120.742 290.109 120.742C290.618 120.742 291.039 120.909 291.391 121.234C291.733 121.559 291.909 121.989 291.909 122.525C291.909 123.06 291.733 123.491 291.391 123.833C291.048 124.175 290.609 124.342 290.109 124.342Z" fill="white"/>
<path d="M294.973 124.342C294.481 124.342 294.051 124.175 293.7 123.833C293.349 123.491 293.173 123.06 293.173 122.525C293.173 121.989 293.349 121.559 293.7 121.234C294.051 120.909 294.472 120.742 294.973 120.742C295.482 120.742 295.904 120.909 296.255 121.234C296.597 121.559 296.773 121.989 296.773 122.525C296.773 123.06 296.597 123.491 296.255 123.833C295.904 124.175 295.473 124.342 294.973 124.342Z" fill="white"/>
<path d="M299.828 124.342C299.337 124.342 298.906 124.175 298.555 123.833C298.204 123.491 298.028 123.06 298.028 122.525C298.028 121.989 298.204 121.559 298.555 121.234C298.906 120.909 299.328 120.742 299.828 120.742C300.337 120.742 300.759 120.909 301.11 121.234C301.453 121.559 301.628 121.989 301.628 122.525C301.628 123.06 301.453 123.491 301.11 123.833C300.768 124.175 300.337 124.342 299.828 124.342Z" fill="white"/>
</svg>
