<svg width="460" height="350" viewBox="0 0 460 350" fill="none" xmlns="http://www.w3.org/2000/svg">
<g clip-path="url(#clip0_1_25)">
<path d="M375.7 46.6263C375.7 46.6263 328.348 -2.25704 253.377 0.081293C178.405 2.41963 114.47 49.7626 61.5944 86.8213C8.71839 123.88 -5.47949 181.463 25.3011 226.401C56.0816 271.339 105.009 252.422 167.346 281.59C229.684 310.758 241.486 327.326 310.978 320.233C380.47 313.141 433.312 240.597 425.415 163.321C417.517 86.0455 375.7 46.6263 375.7 46.6263Z" fill="#98B7FD"/>
<path opacity="0.7" d="M375.7 46.6263C375.7 46.6263 328.348 -2.25704 253.377 0.081293C178.405 2.41963 114.47 49.7626 61.5944 86.8213C8.71839 123.88 -5.47949 181.463 25.3011 226.401C56.0816 271.339 105.009 252.422 167.346 281.59C229.684 310.758 241.486 327.326 310.978 320.233C380.47 313.141 433.312 240.597 425.415 163.321C417.517 86.0455 375.7 46.6263 375.7 46.6263Z" fill="white"/>
<path d="M393.847 344.115C393.847 347.373 320.639 350 230.427 350C140.215 350 66.9961 347.373 66.9961 344.115C66.9961 340.857 140.204 338.242 230.427 338.242C320.65 338.242 393.847 340.868 393.847 344.115Z" fill="#407BFF"/>
<path opacity="0.6" d="M393.847 344.115C393.847 347.373 320.639 350 230.427 350C140.215 350 66.9961 347.373 66.9961 344.115C66.9961 340.857 140.204 338.242 230.427 338.242C320.65 338.242 393.847 340.868 393.847 344.115Z" fill="white"/>
<path d="M75.8477 160.684C75.9143 160.684 75.0824 156.55 74.9936 156.251C74.0397 153.303 70.4569 148.161 66.974 148.161C66.3963 148.179 65.8287 148.318 65.3082 148.569C64.7877 148.82 64.3258 149.178 63.9525 149.619C63.5792 150.06 63.3027 150.574 63.1411 151.129C62.9794 151.683 62.9362 152.265 63.0142 152.838C63.2693 155.276 65.4655 157.359 67.451 158.556C69.7803 160.008 75.8477 160.684 75.8477 160.684Z" fill="#407BFF"/>
<path d="M82.5806 132.845C79.3085 134.02 77.689 140.071 77.7888 143.174C77.7888 143.44 78.41 147.607 78.4766 147.607H78.5431C78.2769 148.56 77.9996 149.579 77.7223 150.71C77.2342 152.793 76.7018 155.143 76.2914 157.758C75.8156 160.56 75.5044 163.387 75.3597 166.225C75.1883 169.405 75.296 172.594 75.6813 175.755C75.6856 175.792 75.6856 175.829 75.6813 175.866C75.2598 174.946 73.9732 172.409 73.8512 172.22C72.143 169.627 67.329 165.571 63.9681 166.535C63.4173 166.705 62.9083 166.988 62.4741 167.367C62.0398 167.746 61.6901 168.211 61.4475 168.734C61.2049 169.256 61.0748 169.824 61.0658 170.399C61.0567 170.975 61.1687 171.546 61.3947 172.076C62.2821 174.37 64.9442 175.789 67.1737 176.431C69.6916 177.141 75.3042 176.299 75.7479 176.232C76.2288 179.436 76.918 182.604 77.811 185.718C78.3324 187.536 78.9202 189.353 79.497 191.16C79.1088 190.373 78.7428 189.675 78.6873 189.586C76.9791 186.993 72.1652 182.937 68.8043 183.901C68.2534 184.07 67.7444 184.354 67.3102 184.733C66.876 185.111 66.5263 185.577 66.2836 186.099C66.041 186.622 65.911 187.189 65.9019 187.765C65.8928 188.341 66.0049 188.912 66.2309 189.442C67.1183 191.725 69.7804 193.154 72.0099 193.786C74.2394 194.418 79.0755 193.786 80.34 193.631C80.573 194.318 80.8059 195.016 81.0499 195.703C82.1591 199.028 83.3571 202.353 84.3775 205.611C84.7436 206.719 85.0542 207.916 85.3758 209.068C85.032 208.37 84.7214 207.783 84.6659 207.705C82.9689 205.101 78.1438 201.056 74.794 202.02C74.2422 202.189 73.732 202.471 73.2965 202.849C72.8611 203.228 72.5101 203.693 72.2664 204.216C72.0227 204.738 71.8917 205.306 71.8819 205.882C71.8721 206.459 71.9837 207.031 72.2095 207.561C73.0969 209.844 75.7701 211.274 77.9996 211.905C80.2291 212.537 84.5883 211.983 86.0968 211.772C86.3963 212.958 86.6958 214.155 86.9287 215.319C87.0618 216.117 87.2504 216.87 87.3502 217.69L87.683 220.062C87.8383 221.58 88.0157 223.143 88.1267 224.628C88.2154 225.669 88.282 226.656 88.3485 227.642C88.0047 226.534 87.2393 224.24 87.2393 224.063C86.0114 221.624 84.1783 219.541 81.9151 218.012C81.7891 217.734 81.6407 217.467 81.4714 217.214C81.1551 216.731 80.7408 216.319 80.2553 216.006C79.7698 215.693 79.2239 215.486 78.653 215.397C78.0821 215.308 77.4988 215.34 76.9411 215.491C76.3833 215.642 75.8634 215.908 75.4151 216.272C72.7863 218.544 73.4407 224.772 74.6498 227.631C74.7163 227.797 75.759 229.548 76.3358 230.634L74.9271 228.883C73.951 227.698 72.9527 226.545 71.8879 225.304C71.3406 224.727 70.7971 224.14 70.2573 223.542C69.7249 222.943 69.0927 222.378 68.5048 221.78C67.1072 220.439 65.6319 219.142 64.0679 217.879C65.1106 217.025 68.7377 213.967 69.7804 211.883C70.823 209.8 71.5662 206.885 70.4792 204.68C70.2402 204.155 69.8935 203.687 69.4616 203.305C69.0297 202.922 68.5222 202.635 67.972 202.462C67.4218 202.288 66.8413 202.232 66.2681 202.298C65.6949 202.363 65.1418 202.548 64.6447 202.84C61.6942 204.68 61.3947 210.941 62.1601 213.922C62.1601 214.111 63.0031 216.216 63.4579 217.358C62.5372 216.593 61.6277 215.84 60.6738 215.141C57.9229 213.025 55.1277 210.963 52.2438 208.891L49.6593 206.974C50.0253 206.675 54.4178 203.128 55.5936 200.79C56.6362 198.718 57.3794 195.792 56.2924 193.598C56.0547 193.071 55.7084 192.599 55.2761 192.215C54.8438 191.831 54.3352 191.542 53.7836 191.367C53.2319 191.193 52.6496 191.136 52.0747 191.202C51.4997 191.267 50.945 191.453 50.4468 191.747C47.5074 193.598 47.208 199.848 47.9733 202.829C48.0288 203.051 49.1713 206.065 49.504 206.819C47.6073 205.411 45.7327 203.993 43.958 202.519C41.5306 200.533 39.2335 198.394 37.0809 196.113C37.2473 195.98 41.8505 192.29 43.0484 189.907C44.0911 187.835 44.8343 184.909 43.7472 182.704C43.5071 182.182 43.16 181.716 42.7285 181.336C42.2969 180.956 41.7905 180.671 41.2418 180.498C40.6931 180.326 40.1143 180.271 39.5428 180.336C38.9713 180.4 38.4198 180.584 37.9239 180.875C34.9734 182.726 34.685 188.988 35.4393 191.958C35.4947 192.157 36.3599 194.462 36.8036 195.537L36.6372 195.648C34.5301 193.294 32.6369 190.757 30.9802 188.068C30.0596 186.605 29.2499 185.142 28.4956 183.712C29.4273 183.114 33.6312 180.388 34.9512 178.304C36.2712 176.221 37.2805 173.528 36.4375 171.223C36.2571 170.681 35.9658 170.183 35.5822 169.761C35.1985 169.338 34.731 168.999 34.2093 168.767C33.6876 168.534 33.1232 168.413 32.552 168.41C31.9808 168.408 31.4153 168.524 30.8915 168.752C27.7635 170.259 26.7763 176.509 27.2089 179.523C27.2089 179.69 27.6526 181.363 27.9854 182.571C27.6526 181.928 27.2977 181.252 26.9982 180.621C25.889 178.26 24.9461 176.021 24.1697 174.038C23.7371 172.93 23.36 171.821 23.0605 170.89C23.6595 169.838 26.0443 165.527 26.2661 163.133C26.4879 160.739 26.133 157.825 24.325 156.162C23.9123 155.757 23.4191 155.443 22.8772 155.241C22.3353 155.039 21.7569 154.953 21.1796 154.988C20.6022 155.024 20.0388 155.18 19.5258 155.447C19.0129 155.715 18.5619 156.086 18.2021 156.539C16.1279 159.321 18.1134 165.272 19.9103 167.798C20.0656 168.02 22.883 171.123 22.9163 171.123V171.057C23.2269 171.999 23.5596 172.996 23.9589 174.093C24.7021 176.099 25.5562 178.36 26.6543 180.742C27.8066 183.343 29.1103 185.874 30.5587 188.323C32.1739 191.067 34.0299 193.663 36.1048 196.08L36.1824 196.158C35.3172 195.626 32.8548 194.218 32.6441 194.13C29.7934 192.9 23.5485 192.212 21.2636 194.828C20.8963 195.274 20.6272 195.792 20.4737 196.348C20.3201 196.905 20.2857 197.488 20.3725 198.059C20.4594 198.629 20.6656 199.175 20.9777 199.661C21.2899 200.147 21.701 200.562 22.1842 200.879C24.1808 202.297 27.1978 201.987 29.4052 201.322C31.9009 200.535 36.0604 196.734 36.4486 196.435C38.6183 198.843 40.9453 201.105 43.4145 203.206C44.8453 204.436 46.3206 205.633 47.8513 206.819C47.086 206.387 46.3982 205.999 46.2984 205.954C43.4477 204.724 37.214 204.037 34.929 206.653C34.5596 207.097 34.2883 207.614 34.1329 208.171C33.9775 208.727 33.9416 209.31 34.0275 209.881C34.1134 210.453 34.3191 210.999 34.6312 211.486C34.9433 211.972 35.3548 212.387 35.8386 212.703C37.8462 214.122 40.8522 213.812 43.0706 213.147C45.289 212.482 48.9605 209.268 49.9255 208.415L51.6559 209.767C54.4511 211.905 57.2019 214.022 59.9195 216.183C60.8623 216.948 61.7608 217.724 62.6703 218.51C61.9937 218.123 61.4169 217.801 61.3171 217.757C58.4664 216.538 52.2327 215.84 49.9477 218.466C49.5783 218.91 49.307 219.428 49.1516 219.984C48.9962 220.541 48.9603 221.124 49.0462 221.695C49.1321 222.266 49.3378 222.813 49.6499 223.299C49.962 223.786 50.3735 224.201 50.8573 224.517C52.8649 225.935 55.8709 225.625 58.0893 224.949C60.3077 224.273 63.6353 221.381 64.7446 220.383C65.643 221.203 66.5526 222.035 67.3956 222.877C67.9502 223.464 68.5048 223.985 69.0594 224.617L70.6455 226.423C71.6217 227.598 72.6199 228.806 73.5406 229.98C74.1839 230.8 74.7829 231.587 75.393 232.374C74.4612 231.609 72.6088 230.158 72.4314 230.036C69.8025 228.385 63.7463 226.767 61.0842 229.005C60.6545 229.391 60.3109 229.862 60.0757 230.389C59.8405 230.916 59.719 231.487 59.719 232.064C59.719 232.641 59.8405 233.211 60.0757 233.738C60.3109 234.265 60.6545 234.737 61.0842 235.123C62.8478 236.829 65.8648 237.006 68.1609 236.652C70.6788 236.264 75.2488 233.327 75.8145 232.917C76.8127 234.225 77.7667 235.51 78.654 236.729C81.7265 240.974 84.1224 244.631 85.7641 247.202L85.9304 247.468L88.0601 246.437L87.7274 245.928C86.0081 243.368 83.5124 239.733 80.3068 235.51C79.3085 234.169 78.1993 232.773 77.0568 231.332C78.2434 230.038 79.3545 228.676 80.3844 227.254C82.8247 228.207 87.9159 228.241 88.5704 228.241C88.6813 229.892 88.77 231.488 88.8255 232.995C89.0473 238.237 89.0251 242.603 88.9808 245.651C88.9808 245.772 88.9808 245.883 88.9808 246.005L91.3212 244.897C91.3212 241.86 91.1992 237.76 90.8997 232.906C90.7888 231.244 90.6446 229.46 90.4893 227.631C91.1326 227.476 96.4236 226.113 98.4201 224.517C100.239 223.076 102.147 220.727 102.081 218.278C102.085 217.701 101.968 217.129 101.736 216.6C101.505 216.071 101.165 215.597 100.738 215.208C100.311 214.819 99.8071 214.524 99.2587 214.343C98.7103 214.162 98.1298 214.098 97.555 214.155C94.0942 214.598 91.2103 220.151 90.6446 223.209C90.6446 223.387 90.456 225.426 90.3895 226.634C90.3229 225.891 90.2564 225.171 90.1787 224.417C90.0234 222.899 89.8238 221.392 89.6241 219.763C89.491 218.987 89.3579 218.189 89.2359 217.391C89.1139 216.593 88.9031 215.773 88.7367 214.964C88.3152 213.069 87.805 211.174 87.2393 209.279C88.5704 209.146 93.2956 208.592 95.3144 207.428C97.3331 206.265 99.5626 204.248 99.8732 201.81C99.9642 201.24 99.9343 200.658 99.7854 200.101C99.6366 199.544 99.372 199.024 99.0091 198.576C98.6461 198.127 98.1927 197.76 97.6785 197.498C97.1643 197.236 96.6007 197.085 96.0242 197.055C92.5413 196.967 88.8366 202.02 87.8161 204.957C87.7495 205.134 87.2504 207.317 87.0064 208.525C86.6514 207.417 86.3187 206.254 85.8972 205.112C84.788 201.787 83.5345 198.54 82.3144 195.249L81.2052 192.224C81.6822 192.224 87.3059 191.647 89.5686 190.34C91.5763 189.231 93.8169 187.159 94.1275 184.721C94.2203 184.151 94.1917 183.568 94.0435 183.01C93.8954 182.453 93.631 181.932 93.2677 181.483C92.9043 181.035 92.4503 180.668 91.9352 180.406C91.4201 180.145 90.8556 179.995 90.2785 179.967C86.7956 179.878 83.0909 184.943 82.0704 187.868C81.9927 188.09 81.2829 191.193 81.1387 192.046C80.34 189.83 79.5636 187.613 78.9202 185.397C77.9938 182.401 77.253 179.352 76.7018 176.265C76.9237 176.265 82.8025 175.711 85.1207 174.381C87.1284 173.218 89.369 171.19 89.6796 168.752C89.7707 168.181 89.7404 167.598 89.5909 167.04C89.4414 166.482 89.1759 165.962 88.8117 165.514C88.4475 165.065 87.9928 164.698 87.4773 164.437C86.9617 164.176 86.3969 164.026 85.8195 163.997C82.3477 163.909 78.6429 168.973 77.6225 171.899C77.5559 172.087 77.0124 174.492 76.7795 175.634H76.5798C76.1217 172.512 75.9435 169.356 76.0474 166.203C76.0474 164.474 76.2138 162.812 76.3802 161.205C77.4894 161.205 82.5363 161.205 84.7547 160.252C86.9731 159.298 89.3246 157.548 89.9014 155.165C90.0553 154.607 90.0894 154.022 90.0016 153.45C89.9138 152.878 89.7061 152.331 89.3919 151.844C89.0778 151.358 88.6644 150.943 88.1787 150.627C87.6931 150.311 87.1462 150.102 86.5738 150.012C83.1241 149.546 78.887 154.167 77.5559 156.96C77.4783 157.115 76.9126 158.744 76.5133 159.941C76.5909 159.21 76.6685 158.467 76.7684 157.725C77.1233 155.121 77.6003 152.76 78.044 150.666C78.3102 149.48 78.5653 148.449 78.8204 147.418C79.9296 146.864 84.2777 144.592 85.7752 142.742C87.2726 140.891 88.5815 138.242 87.9936 135.86C87.8713 135.286 87.6277 134.745 87.2791 134.274C86.9304 133.802 86.4848 133.41 85.9721 133.125C85.4594 132.839 84.8916 132.667 84.3066 132.618C83.7217 132.57 83.1332 132.648 82.5806 132.845Z" fill="#407BFF"/>
<path d="M19.7107 186.416C22.4282 186.306 27.8634 183.513 27.8744 183.513C27.8855 183.513 24.9461 180.499 24.7354 180.321C22.3062 178.393 16.4718 176.077 13.5767 178.005C13.1049 178.338 12.7084 178.765 12.4129 179.261C12.1174 179.756 11.9295 180.308 11.8615 180.881C11.7935 181.454 11.8469 182.035 12.0182 182.585C12.1895 183.136 12.4749 183.645 12.8558 184.078C14.4197 185.973 17.4257 186.505 19.7107 186.416Z" fill="#407BFF"/>
<g opacity="0.5">
<path d="M75.8477 160.684C75.9143 160.684 75.0824 156.55 74.9936 156.251C74.0397 153.303 70.4569 148.161 66.974 148.161C66.3963 148.179 65.8287 148.318 65.3082 148.569C64.7877 148.82 64.3258 149.178 63.9525 149.619C63.5792 150.06 63.3027 150.574 63.1411 151.129C62.9794 151.683 62.9362 152.265 63.0142 152.838C63.2693 155.276 65.4655 157.359 67.451 158.556C69.7803 160.008 75.8477 160.684 75.8477 160.684Z" fill="#E9ADAD"/>
<path d="M82.5806 132.845C79.3085 134.02 77.689 140.071 77.7888 143.174C77.7888 143.44 78.41 147.607 78.4766 147.607H78.5431C78.2769 148.56 77.9996 149.579 77.7223 150.71C77.2342 152.793 76.7018 155.143 76.2914 157.758C75.8156 160.56 75.5044 163.387 75.3597 166.225C75.1883 169.405 75.296 172.594 75.6813 175.755C75.6856 175.792 75.6856 175.829 75.6813 175.866C75.2598 174.946 73.9732 172.409 73.8512 172.22C72.143 169.627 67.329 165.571 63.9681 166.535C63.4173 166.705 62.9083 166.988 62.4741 167.367C62.0398 167.746 61.6901 168.211 61.4475 168.734C61.2049 169.256 61.0748 169.824 61.0658 170.399C61.0567 170.975 61.1687 171.546 61.3947 172.076C62.2821 174.37 64.9442 175.789 67.1737 176.431C69.6916 177.141 75.3042 176.299 75.7479 176.232C76.2288 179.436 76.918 182.604 77.811 185.718C78.3324 187.536 78.9202 189.353 79.497 191.16C79.1088 190.373 78.7428 189.675 78.6873 189.586C76.9791 186.993 72.1652 182.937 68.8043 183.901C68.2534 184.07 67.7444 184.354 67.3102 184.733C66.876 185.111 66.5263 185.577 66.2836 186.099C66.041 186.622 65.911 187.189 65.9019 187.765C65.8928 188.341 66.0049 188.912 66.2309 189.442C67.1183 191.725 69.7804 193.154 72.0099 193.786C74.2394 194.418 79.0755 193.786 80.34 193.631C80.573 194.318 80.8059 195.016 81.0499 195.703C82.1591 199.028 83.3571 202.353 84.3775 205.611C84.7436 206.719 85.0542 207.916 85.3758 209.068C85.032 208.37 84.7214 207.783 84.6659 207.705C82.9689 205.101 78.1438 201.056 74.794 202.02C74.2422 202.189 73.732 202.471 73.2965 202.849C72.8611 203.228 72.5101 203.693 72.2664 204.216C72.0227 204.738 71.8917 205.306 71.8819 205.882C71.8721 206.459 71.9837 207.031 72.2095 207.561C73.0969 209.844 75.7701 211.274 77.9996 211.905C80.2291 212.537 84.5883 211.983 86.0968 211.772C86.3963 212.958 86.6958 214.155 86.9287 215.319C87.0618 216.117 87.2504 216.87 87.3502 217.69L87.683 220.062C87.8383 221.58 88.0157 223.143 88.1267 224.628C88.2154 225.669 88.282 226.656 88.3485 227.642C88.0047 226.534 87.2393 224.24 87.2393 224.063C86.0114 221.624 84.1783 219.541 81.9151 218.012C81.7891 217.734 81.6407 217.467 81.4714 217.214C81.1551 216.731 80.7408 216.319 80.2553 216.006C79.7698 215.693 79.2239 215.486 78.653 215.397C78.0821 215.308 77.4988 215.34 76.9411 215.491C76.3833 215.642 75.8634 215.908 75.4151 216.272C72.7863 218.544 73.4407 224.772 74.6498 227.631C74.7163 227.797 75.759 229.548 76.3358 230.634L74.9271 228.883C73.951 227.698 72.9527 226.545 71.8879 225.304C71.3406 224.727 70.7971 224.14 70.2573 223.542C69.7249 222.943 69.0927 222.378 68.5048 221.78C67.1072 220.439 65.6319 219.142 64.0679 217.879C65.1106 217.025 68.7377 213.967 69.7804 211.883C70.823 209.8 71.5662 206.885 70.4792 204.68C70.2402 204.155 69.8935 203.687 69.4616 203.305C69.0297 202.922 68.5222 202.635 67.972 202.462C67.4218 202.288 66.8413 202.232 66.2681 202.298C65.6949 202.363 65.1418 202.548 64.6447 202.84C61.6942 204.68 61.3947 210.941 62.1601 213.922C62.1601 214.111 63.0031 216.216 63.4579 217.358C62.5372 216.593 61.6277 215.84 60.6738 215.141C57.9229 213.025 55.1277 210.963 52.2438 208.891L49.6593 206.974C50.0253 206.675 54.4178 203.128 55.5936 200.79C56.6362 198.718 57.3794 195.792 56.2924 193.598C56.0547 193.071 55.7084 192.599 55.2761 192.215C54.8438 191.831 54.3352 191.542 53.7836 191.367C53.2319 191.193 52.6496 191.136 52.0747 191.202C51.4997 191.267 50.945 191.453 50.4468 191.747C47.5074 193.598 47.208 199.848 47.9733 202.829C48.0288 203.051 49.1713 206.065 49.504 206.819C47.6073 205.411 45.7327 203.993 43.958 202.519C41.5306 200.533 39.2335 198.394 37.0809 196.113C37.2473 195.98 41.8505 192.29 43.0484 189.907C44.0911 187.835 44.8343 184.909 43.7472 182.704C43.5071 182.182 43.16 181.716 42.7285 181.336C42.2969 180.956 41.7905 180.671 41.2418 180.498C40.6931 180.326 40.1143 180.271 39.5428 180.336C38.9713 180.4 38.4198 180.584 37.9239 180.875C34.9734 182.726 34.685 188.988 35.4393 191.958C35.4947 192.157 36.3599 194.462 36.8036 195.537L36.6372 195.648C34.5301 193.294 32.6369 190.757 30.9802 188.068C30.0596 186.605 29.2499 185.142 28.4956 183.712C29.4273 183.114 33.6312 180.388 34.9512 178.304C36.2712 176.221 37.2805 173.528 36.4375 171.223C36.2571 170.681 35.9658 170.183 35.5822 169.761C35.1985 169.338 34.731 168.999 34.2093 168.767C33.6876 168.534 33.1232 168.413 32.552 168.41C31.9808 168.408 31.4153 168.524 30.8915 168.752C27.7635 170.259 26.7763 176.509 27.2089 179.523C27.2089 179.69 27.6526 181.363 27.9854 182.571C27.6526 181.928 27.2977 181.252 26.9982 180.621C25.889 178.26 24.9461 176.021 24.1697 174.038C23.7371 172.93 23.36 171.821 23.0605 170.89C23.6595 169.838 26.0443 165.527 26.2661 163.133C26.4879 160.739 26.133 157.825 24.325 156.162C23.9123 155.757 23.4191 155.443 22.8772 155.241C22.3353 155.039 21.7569 154.953 21.1796 154.988C20.6022 155.024 20.0388 155.18 19.5258 155.447C19.0129 155.715 18.5619 156.086 18.2021 156.539C16.1279 159.321 18.1134 165.272 19.9103 167.798C20.0656 168.02 22.883 171.123 22.9163 171.123V171.057C23.2269 171.999 23.5596 172.996 23.9589 174.093C24.7021 176.099 25.5562 178.36 26.6543 180.742C27.8066 183.343 29.1103 185.874 30.5587 188.323C32.1739 191.067 34.0299 193.663 36.1048 196.08L36.1824 196.158C35.3172 195.626 32.8548 194.218 32.6441 194.13C29.7934 192.9 23.5485 192.212 21.2636 194.828C20.8963 195.274 20.6272 195.792 20.4737 196.348C20.3201 196.905 20.2857 197.488 20.3725 198.059C20.4594 198.629 20.6656 199.175 20.9777 199.661C21.2899 200.147 21.701 200.562 22.1842 200.879C24.1808 202.297 27.1978 201.987 29.4052 201.322C31.9009 200.535 36.0604 196.734 36.4486 196.435C38.6183 198.843 40.9453 201.105 43.4145 203.206C44.8453 204.436 46.3206 205.633 47.8513 206.819C47.086 206.387 46.3982 205.999 46.2984 205.954C43.4477 204.724 37.214 204.037 34.929 206.653C34.5596 207.097 34.2883 207.614 34.1329 208.171C33.9775 208.727 33.9416 209.31 34.0275 209.881C34.1134 210.453 34.3191 210.999 34.6312 211.486C34.9433 211.972 35.3548 212.387 35.8386 212.703C37.8462 214.122 40.8522 213.812 43.0706 213.147C45.289 212.482 48.9605 209.268 49.9255 208.415L51.6559 209.767C54.4511 211.905 57.2019 214.022 59.9195 216.183C60.8623 216.948 61.7608 217.724 62.6703 218.51C61.9937 218.123 61.4169 217.801 61.3171 217.757C58.4664 216.538 52.2327 215.84 49.9477 218.466C49.5783 218.91 49.307 219.428 49.1516 219.984C48.9962 220.541 48.9603 221.124 49.0462 221.695C49.1321 222.266 49.3378 222.813 49.6499 223.299C49.962 223.786 50.3735 224.201 50.8573 224.517C52.8649 225.935 55.8709 225.625 58.0893 224.949C60.3077 224.273 63.6353 221.381 64.7446 220.383C65.643 221.203 66.5526 222.035 67.3956 222.877C67.9502 223.464 68.5048 223.985 69.0594 224.617L70.6455 226.423C71.6217 227.598 72.6199 228.806 73.5406 229.98C74.1839 230.8 74.7829 231.587 75.393 232.374C74.4612 231.609 72.6088 230.158 72.4314 230.036C69.8025 228.385 63.7463 226.767 61.0842 229.005C60.6545 229.391 60.3109 229.862 60.0757 230.389C59.8405 230.916 59.719 231.487 59.719 232.064C59.719 232.641 59.8405 233.211 60.0757 233.738C60.3109 234.265 60.6545 234.737 61.0842 235.123C62.8478 236.829 65.8648 237.006 68.1609 236.652C70.6788 236.264 75.2488 233.327 75.8145 232.917C76.8127 234.225 77.7667 235.51 78.654 236.729C81.7265 240.974 84.1224 244.631 85.7641 247.202L85.9304 247.468L88.0601 246.437L87.7274 245.928C86.0081 243.368 83.5124 239.733 80.3068 235.51C79.3085 234.169 78.1993 232.773 77.0568 231.332C78.2434 230.038 79.3545 228.676 80.3844 227.254C82.8247 228.207 87.9159 228.241 88.5704 228.241C88.6813 229.892 88.77 231.488 88.8255 232.995C89.0473 238.237 89.0251 242.603 88.9808 245.651C88.9808 245.772 88.9808 245.883 88.9808 246.005L91.3212 244.897C91.3212 241.86 91.1992 237.76 90.8997 232.906C90.7888 231.244 90.6446 229.46 90.4893 227.631C91.1326 227.476 96.4236 226.113 98.4201 224.517C100.239 223.076 102.147 220.727 102.081 218.278C102.085 217.701 101.968 217.129 101.736 216.6C101.505 216.071 101.165 215.597 100.738 215.208C100.311 214.819 99.8071 214.524 99.2587 214.343C98.7103 214.162 98.1298 214.098 97.555 214.155C94.0942 214.598 91.2103 220.151 90.6446 223.209C90.6446 223.387 90.456 225.426 90.3895 226.634C90.3229 225.891 90.2564 225.171 90.1787 224.417C90.0234 222.899 89.8238 221.392 89.6241 219.763C89.491 218.987 89.3579 218.189 89.2359 217.391C89.1139 216.593 88.9031 215.773 88.7367 214.964C88.3152 213.069 87.805 211.174 87.2393 209.279C88.5704 209.146 93.2956 208.592 95.3144 207.428C97.3331 206.265 99.5626 204.248 99.8732 201.81C99.9642 201.24 99.9343 200.658 99.7854 200.101C99.6366 199.544 99.372 199.024 99.0091 198.576C98.6461 198.127 98.1927 197.76 97.6785 197.498C97.1643 197.236 96.6007 197.085 96.0242 197.055C92.5413 196.967 88.8366 202.02 87.8161 204.957C87.7495 205.134 87.2504 207.317 87.0064 208.525C86.6514 207.417 86.3187 206.254 85.8972 205.112C84.788 201.787 83.5345 198.54 82.3144 195.249L81.2052 192.224C81.6822 192.224 87.3059 191.647 89.5686 190.34C91.5763 189.231 93.8169 187.159 94.1275 184.721C94.2203 184.151 94.1917 183.568 94.0435 183.01C93.8954 182.453 93.631 181.932 93.2677 181.483C92.9043 181.035 92.4503 180.668 91.9352 180.406C91.4201 180.145 90.8556 179.995 90.2785 179.967C86.7956 179.878 83.0909 184.943 82.0704 187.868C81.9927 188.09 81.2829 191.193 81.1387 192.046C80.34 189.83 79.5636 187.613 78.9202 185.397C77.9938 182.401 77.253 179.352 76.7018 176.265C76.9237 176.265 82.8025 175.711 85.1207 174.381C87.1284 173.218 89.369 171.19 89.6796 168.752C89.7707 168.181 89.7404 167.598 89.5909 167.04C89.4414 166.482 89.1759 165.962 88.8117 165.514C88.4475 165.065 87.9928 164.698 87.4773 164.437C86.9617 164.176 86.3969 164.026 85.8195 163.997C82.3477 163.909 78.6429 168.973 77.6225 171.899C77.5559 172.087 77.0124 174.492 76.7795 175.634H76.5798C76.1217 172.512 75.9435 169.356 76.0474 166.203C76.0474 164.474 76.2138 162.812 76.3802 161.205C77.4894 161.205 82.5363 161.205 84.7547 160.252C86.9731 159.298 89.3246 157.548 89.9014 155.165C90.0553 154.607 90.0894 154.022 90.0016 153.45C89.9138 152.878 89.7061 152.331 89.3919 151.844C89.0778 151.358 88.6644 150.943 88.1787 150.627C87.6931 150.311 87.1462 150.102 86.5738 150.012C83.1241 149.546 78.887 154.167 77.5559 156.96C77.4783 157.115 76.9126 158.744 76.5133 159.941C76.5909 159.21 76.6685 158.467 76.7684 157.725C77.1233 155.121 77.6003 152.76 78.044 150.666C78.3102 149.48 78.5653 148.449 78.8204 147.418C79.9296 146.864 84.2777 144.592 85.7752 142.742C87.2726 140.891 88.5815 138.242 87.9936 135.86C87.8713 135.286 87.6277 134.745 87.2791 134.274C86.9304 133.802 86.4848 133.41 85.9721 133.125C85.4594 132.839 84.8916 132.667 84.3066 132.618C83.7217 132.57 83.1332 132.648 82.5806 132.845Z" fill="#E9ADAD"/>
<path d="M19.7107 186.416C22.4282 186.306 27.8634 183.513 27.8744 183.513C27.8855 183.513 24.9461 180.499 24.7354 180.321C22.3062 178.393 16.4718 176.077 13.5767 178.005C13.1049 178.338 12.7084 178.765 12.4129 179.261C12.1174 179.756 11.9295 180.308 11.8615 180.881C11.7935 181.454 11.8469 182.035 12.0182 182.585C12.1895 183.136 12.4749 183.645 12.8558 184.078C14.4197 185.973 17.4257 186.505 19.7107 186.416Z" fill="#E9ADAD"/>
</g>
<path d="M51.4451 254.406C51.4451 254.406 67.939 214.687 77.1677 216.416C86.3963 218.145 61.3392 279.739 61.3392 279.739C61.3392 279.739 90.3561 225.049 110.144 225.049C129.933 225.049 102.89 285.491 77.8332 305.638C77.8332 305.638 117.399 263.038 140.492 272.259C163.586 281.479 94.316 324.644 94.316 324.644C94.316 324.644 134.547 311.977 129.933 321.763C125.318 331.548 112.818 333.277 112.818 333.277L158.295 335.582H0L35.6167 332.125C35.6167 332.125 -1.31996 313.706 8.552 306.215C18.424 298.723 40.2088 314.848 40.2088 314.848C40.2088 314.848 2.61773 273.4 9.87196 257.863C17.1262 242.326 49.4485 286.067 49.4485 286.067C49.4485 286.067 23.0605 230.235 28.3736 220.439C33.6867 210.642 51.4451 254.406 51.4451 254.406Z" fill="#407BFF"/>
<path opacity="0.4" d="M51.4451 254.406C51.4451 254.406 67.939 214.687 77.1677 216.416C86.3963 218.145 61.3392 279.739 61.3392 279.739C61.3392 279.739 90.3561 225.049 110.144 225.049C129.933 225.049 102.89 285.491 77.8332 305.638C77.8332 305.638 117.399 263.038 140.492 272.259C163.586 281.479 94.316 324.644 94.316 324.644C94.316 324.644 134.547 311.977 129.933 321.763C125.318 331.548 112.818 333.277 112.818 333.277L158.295 335.582H0L35.6167 332.125C35.6167 332.125 -1.31996 313.706 8.552 306.215C18.424 298.723 40.2088 314.848 40.2088 314.848C40.2088 314.848 2.61773 273.4 9.87196 257.863C17.1262 242.326 49.4485 286.067 49.4485 286.067C49.4485 286.067 23.0605 230.235 28.3736 220.439C33.6867 210.642 51.4451 254.406 51.4451 254.406Z" fill="#EBC7C7"/>
<path d="M46.1763 256.5C60.6848 299.332 60.6848 329.642 60.6848 329.642C60.6848 329.642 43.5364 330.307 25.7225 317.13" stroke="#263238" stroke-linecap="round" stroke-linejoin="round"/>
<path d="M53.4307 279.562C56.4168 266.757 60.3847 254.201 65.2992 242.005" stroke="#263238" stroke-linecap="round" stroke-linejoin="round"/>
<path d="M96.3015 254.527L59.3648 309.218C59.3648 309.218 34.2967 288.162 25.7225 276.271" stroke="#263238" stroke-linecap="round" stroke-linejoin="round"/>
<path d="M60.0193 322.394C60.0193 322.394 98.9303 303.943 114.77 293.404" stroke="#263238" stroke-linecap="round" stroke-linejoin="round"/>
<path d="M384.152 160.684C384.086 160.684 384.929 156.55 385.006 156.251C385.96 153.303 389.554 148.161 393.026 148.161C393.604 148.179 394.171 148.318 394.692 148.569C395.212 148.82 395.674 149.178 396.048 149.619C396.421 150.06 396.697 150.574 396.859 151.129C397.021 151.683 397.064 152.265 396.986 152.838C396.731 155.276 394.535 157.359 392.549 158.556C390.22 160.008 384.152 160.684 384.152 160.684Z" fill="#407BFF"/>
<path d="M377.419 132.845C380.691 134.02 382.322 140.071 382.211 143.174C382.211 143.44 381.59 147.607 381.535 147.607H381.468C381.723 148.56 382 149.58 382.278 150.71C382.766 152.793 383.298 155.143 383.709 157.758C384.184 160.56 384.496 163.387 384.64 166.225C384.817 169.405 384.71 172.595 384.319 175.756C384.314 175.792 384.314 175.83 384.319 175.866C384.751 174.947 386.038 172.409 386.149 172.22C387.857 169.627 392.671 165.571 396.032 166.535C396.584 166.703 397.094 166.986 397.529 167.364C397.964 167.743 398.315 168.209 398.557 168.731C398.8 169.254 398.93 169.822 398.938 170.399C398.947 170.975 398.833 171.547 398.605 172.076C397.718 174.37 395.056 175.789 392.826 176.432C390.308 177.141 384.696 176.299 384.252 176.232C383.777 179.437 383.087 182.606 382.189 185.718C381.671 187.536 381.109 189.35 380.503 191.16C380.891 190.373 381.257 189.675 381.313 189.586C383.021 186.993 387.846 182.937 391.196 183.901C391.748 184.069 392.258 184.352 392.693 184.73C393.128 185.108 393.478 185.574 393.721 186.097C393.964 186.62 394.094 187.188 394.102 187.764C394.11 188.341 393.997 188.912 393.769 189.442C392.882 191.725 390.22 193.154 387.99 193.786C385.761 194.418 380.924 193.786 379.66 193.631L378.961 195.703C377.852 199.028 376.643 202.353 375.634 205.611C375.267 206.719 374.946 207.916 374.624 209.068C374.979 208.37 375.279 207.783 375.334 207.705C377.042 205.101 381.856 201.056 385.206 202.02C385.758 202.189 386.268 202.471 386.703 202.849C387.139 203.228 387.49 203.693 387.734 204.216C387.977 204.738 388.108 205.306 388.118 205.882C388.128 206.459 388.016 207.031 387.79 207.561C386.903 209.844 384.23 211.274 382 211.905C379.771 212.537 375.412 211.983 373.903 211.773C373.604 212.958 373.315 214.155 373.082 215.319C372.938 216.117 372.75 216.87 372.65 217.69L372.317 220.062C372.162 221.58 371.984 223.143 371.873 224.628C371.785 225.67 371.718 226.656 371.651 227.642C372.006 226.534 372.761 224.24 372.816 224.063C374.048 221.627 375.88 219.544 378.14 218.012C378.266 217.732 378.418 217.465 378.595 217.214C378.909 216.73 379.322 216.317 379.806 216.003C380.291 215.689 380.836 215.481 381.407 215.392C381.977 215.303 382.56 215.336 383.118 215.487C383.675 215.639 384.194 215.906 384.64 216.272C387.28 218.544 386.615 224.772 385.406 227.631C385.339 227.797 384.352 229.548 383.72 230.634C384.197 230.047 384.64 229.526 385.139 228.883C386.104 227.698 387.103 226.545 388.168 225.304L389.798 223.542C390.331 222.943 390.974 222.378 391.562 221.78C392.948 220.439 394.424 219.142 395.943 217.879C394.912 217.025 391.273 213.967 390.231 211.883C389.188 209.8 388.445 206.885 389.532 204.68C389.771 204.154 390.118 203.684 390.55 203.301C390.983 202.917 391.492 202.63 392.044 202.456C392.595 202.282 393.177 202.227 393.751 202.293C394.326 202.359 394.88 202.546 395.377 202.84C398.317 204.68 398.616 210.941 397.851 213.922C397.851 214.111 397.008 216.216 396.553 217.358C397.474 216.593 398.383 215.84 399.337 215.141C402.088 213.025 404.939 210.964 407.767 208.891L410.352 206.974C409.986 206.675 405.593 203.128 404.417 200.79C403.386 198.718 402.632 195.792 403.719 193.598C403.956 193.071 404.303 192.6 404.735 192.215C405.167 191.831 405.676 191.542 406.228 191.367C406.779 191.193 407.361 191.136 407.936 191.202C408.511 191.267 409.066 191.453 409.564 191.747C412.515 193.598 412.803 199.848 412.038 202.829C411.982 203.051 410.84 206.065 410.518 206.819C412.404 205.411 414.278 203.993 416.064 202.519C418.492 200.533 420.789 198.394 422.941 196.113C422.775 195.98 418.172 192.29 416.974 189.907C415.931 187.835 415.188 184.909 416.275 182.704C416.513 182.178 416.859 181.709 417.29 181.325C417.722 180.942 418.229 180.654 418.779 180.479C419.33 180.305 419.91 180.248 420.484 180.312C421.058 180.377 421.612 180.561 422.109 180.853C425.06 182.704 425.359 188.965 424.594 191.935C424.539 192.135 423.673 194.44 423.241 195.515C423.292 195.558 423.348 195.595 423.407 195.626C425.511 193.272 427.4 190.735 429.053 188.046C429.985 186.583 430.783 185.12 431.538 183.69C430.606 183.092 426.402 180.366 425.082 178.282C423.762 176.199 422.764 173.506 423.596 171.201C423.775 170.652 424.068 170.148 424.456 169.72C424.843 169.292 425.317 168.95 425.845 168.717C426.373 168.484 426.945 168.365 427.522 168.367C428.1 168.369 428.671 168.492 429.197 168.729C432.336 170.237 433.312 176.487 432.88 179.501C432.88 179.668 432.436 181.341 432.114 182.549C432.436 181.906 432.791 181.23 433.091 180.598C434.2 178.238 435.143 175.999 435.919 174.016C436.363 172.907 436.729 171.799 437.028 170.868C436.418 169.816 434.044 165.505 433.812 163.111C433.579 160.717 433.956 157.802 435.764 156.14C436.175 155.735 436.668 155.422 437.209 155.22C437.75 155.017 438.327 154.931 438.904 154.967C439.48 155.002 440.043 155.159 440.555 155.426C441.067 155.693 441.517 156.065 441.875 156.517C443.961 159.299 441.975 165.25 440.178 167.776C440.023 167.998 437.195 171.101 437.161 171.101V171.035C436.851 171.977 436.518 172.974 436.119 174.071C435.387 176.077 434.532 178.338 433.434 180.72C432.274 183.319 430.966 185.85 429.519 188.301C427.904 191.045 426.048 193.641 423.973 196.058L423.895 196.136C424.76 195.604 427.223 194.196 427.434 194.108C430.295 192.877 436.529 192.19 438.814 194.806C439.182 195.251 439.452 195.768 439.606 196.324C439.76 196.881 439.796 197.463 439.71 198.034C439.624 198.605 439.419 199.151 439.108 199.637C438.797 200.124 438.387 200.539 437.904 200.857C435.897 202.275 432.891 201.965 430.672 201.3C428.177 200.513 424.017 196.712 423.64 196.413C421.47 198.821 419.143 201.083 416.674 203.184C415.243 204.414 413.757 205.611 412.237 206.797C413.003 206.364 413.69 205.977 413.79 205.932C416.641 204.702 422.875 204.015 425.16 206.63C425.529 207.075 425.8 207.592 425.956 208.149C426.111 208.705 426.147 209.288 426.061 209.859C425.975 210.431 425.77 210.977 425.457 211.464C425.145 211.95 424.734 212.365 424.25 212.681C422.254 214.1 419.237 213.789 417.029 213.125C414.822 212.46 411.128 209.246 410.174 208.392C409.586 208.847 409.065 209.301 408.433 209.744C405.649 211.883 402.887 214 400.169 216.161C399.226 216.926 398.328 217.701 397.418 218.488L398.772 217.735C401.622 216.516 407.856 215.817 410.141 218.444C410.51 218.888 410.782 219.406 410.937 219.962C411.092 220.519 411.128 221.102 411.043 221.673C410.957 222.244 410.751 222.791 410.439 223.277C410.127 223.764 409.715 224.178 409.231 224.495C407.224 225.913 404.218 225.603 402.01 224.927C399.803 224.251 396.464 221.359 395.355 220.361C394.457 221.181 393.547 222.012 392.715 222.855C392.15 223.442 391.606 223.963 391.052 224.595L389.454 226.401C388.489 227.576 387.48 228.784 386.559 229.958C385.916 230.778 385.317 231.565 384.718 232.352C385.639 231.587 387.502 230.136 387.668 230.014C390.297 228.362 396.365 226.744 399.016 228.983C399.445 229.369 399.789 229.84 400.024 230.367C400.259 230.894 400.381 231.465 400.381 232.042C400.381 232.619 400.259 233.189 400.024 233.716C399.789 234.243 399.445 234.715 399.016 235.1C397.241 236.807 394.224 236.984 391.939 236.63C389.41 236.242 384.84 233.305 384.274 232.895C383.276 234.203 382.322 235.488 381.435 236.707C378.362 240.952 375.966 244.609 374.325 247.18C374.325 247.28 374.214 247.357 374.158 247.446L372.029 246.415L372.361 245.906C374.081 243.346 376.587 239.711 379.782 235.488C380.791 234.147 381.889 232.751 383.032 231.31C381.843 230.018 380.732 228.656 379.704 227.232C377.253 228.185 372.173 228.218 371.507 228.218C371.407 229.87 371.319 231.465 371.252 232.973C371.03 238.215 371.052 242.581 371.108 245.628V245.983L368.768 244.875C368.768 241.838 368.89 237.738 369.2 232.884C369.3 231.222 369.444 229.437 369.611 227.609C368.956 227.454 363.665 226.091 361.669 224.495C359.861 223.054 357.953 220.705 358.019 218.256C358.013 217.678 358.129 217.105 358.36 216.576C358.591 216.046 358.931 215.571 359.358 215.182C359.785 214.792 360.29 214.498 360.839 214.317C361.388 214.136 361.97 214.074 362.545 214.133C365.995 214.576 368.89 220.128 369.455 223.187C369.455 223.364 369.633 225.404 369.699 226.611C369.777 225.869 369.832 225.149 369.921 224.395C370.065 222.877 370.265 221.37 370.476 219.741C370.598 218.965 370.731 218.167 370.853 217.369C370.975 216.571 371.186 215.751 371.352 214.942C371.773 213.047 372.284 211.152 372.849 209.257C371.518 209.124 366.804 208.57 364.774 207.406C362.744 206.243 360.526 204.226 360.227 201.787C360.134 201.218 360.162 200.635 360.311 200.077C360.459 199.519 360.723 198.999 361.086 198.55C361.45 198.101 361.904 197.734 362.419 197.473C362.934 197.211 363.499 197.062 364.076 197.033C367.547 196.945 371.252 201.998 372.273 204.935C372.339 205.112 372.838 207.295 373.082 208.503C373.437 207.395 373.77 206.231 374.192 205.09C375.301 201.765 376.554 198.518 377.774 195.227C378.151 194.218 378.506 193.21 378.883 192.201C378.407 192.201 372.783 191.625 370.52 190.317C368.512 189.209 366.272 187.137 365.961 184.699C365.87 184.129 365.9 183.547 366.049 182.99C366.198 182.433 366.462 181.913 366.825 181.465C367.188 181.016 367.642 180.649 368.156 180.387C368.67 180.126 369.234 179.975 369.81 179.945C373.293 179.856 376.998 184.92 378.018 187.846C378.096 188.068 378.806 191.171 378.95 192.024C379.749 189.808 380.536 187.591 381.168 185.375C382.105 182.382 382.846 179.332 383.387 176.243C383.165 176.243 377.297 175.689 374.979 174.359C372.96 173.196 370.72 171.168 370.42 168.729C370.327 168.16 370.356 167.577 370.504 167.019C370.652 166.461 370.917 165.941 371.28 165.492C371.643 165.043 372.097 164.676 372.613 164.415C373.128 164.153 373.692 164.004 374.269 163.975C377.741 163.887 381.446 168.951 382.466 171.877C382.533 172.065 383.087 174.47 383.32 175.611H383.509C383.967 172.49 384.145 169.334 384.041 166.181C384.041 164.452 383.875 162.789 383.709 161.183C382.599 161.183 377.564 161.183 375.345 160.229C373.127 159.276 370.764 157.525 370.187 155.143C370.033 154.585 369.999 154 370.087 153.428C370.175 152.856 370.383 152.309 370.697 151.822C371.011 151.336 371.424 150.921 371.91 150.605C372.396 150.289 372.943 150.08 373.515 149.99C376.965 149.524 381.202 154.145 382.544 156.938C382.61 157.093 383.187 158.722 383.575 159.919C383.498 159.188 383.42 158.445 383.32 157.703C382.976 155.098 382.488 152.738 382.045 150.643C381.779 149.458 381.523 148.427 381.268 147.396C380.159 146.842 375.811 144.57 374.325 142.72C372.838 140.869 371.507 138.22 372.106 135.838C372.233 135.278 372.476 134.751 372.819 134.29C373.163 133.83 373.598 133.447 374.099 133.165C374.599 132.883 375.153 132.709 375.725 132.654C376.297 132.599 376.874 132.664 377.419 132.845Z" fill="#407BFF"/>
<path d="M440.289 186.416C437.572 186.306 432.137 183.513 432.137 183.513C432.137 183.513 435.054 180.499 435.265 180.321C437.694 178.393 443.528 176.077 446.423 178.005C446.896 178.336 447.294 178.764 447.591 179.259C447.887 179.755 448.076 180.307 448.144 180.88C448.212 181.454 448.158 182.035 447.986 182.586C447.814 183.137 447.527 183.646 447.144 184.078C445.58 185.973 442.608 186.505 440.289 186.416Z" fill="#407BFF"/>
<g opacity="0.5">
<path d="M384.152 160.684C384.086 160.684 384.929 156.55 385.006 156.251C385.96 153.303 389.554 148.161 393.026 148.161C393.604 148.179 394.171 148.318 394.692 148.569C395.212 148.82 395.674 149.178 396.048 149.619C396.421 150.06 396.697 150.574 396.859 151.129C397.021 151.683 397.064 152.265 396.986 152.838C396.731 155.276 394.535 157.359 392.549 158.556C390.22 160.008 384.152 160.684 384.152 160.684Z" fill="white"/>
<path d="M377.419 132.845C380.691 134.02 382.322 140.071 382.211 143.174C382.211 143.44 381.59 147.607 381.535 147.607H381.468C381.723 148.56 382 149.58 382.278 150.71C382.766 152.793 383.298 155.143 383.709 157.758C384.184 160.56 384.496 163.387 384.64 166.225C384.817 169.405 384.71 172.595 384.319 175.756C384.314 175.792 384.314 175.83 384.319 175.866C384.751 174.947 386.038 172.409 386.149 172.22C387.857 169.627 392.671 165.571 396.032 166.535C396.584 166.703 397.094 166.986 397.529 167.364C397.964 167.743 398.315 168.209 398.557 168.731C398.8 169.254 398.93 169.822 398.938 170.399C398.947 170.975 398.833 171.547 398.605 172.076C397.718 174.37 395.056 175.789 392.826 176.432C390.308 177.141 384.696 176.299 384.252 176.232C383.777 179.437 383.087 182.606 382.189 185.718C381.671 187.536 381.109 189.35 380.503 191.16C380.891 190.373 381.257 189.675 381.313 189.586C383.021 186.993 387.846 182.937 391.196 183.901C391.748 184.069 392.258 184.352 392.693 184.73C393.128 185.108 393.478 185.574 393.721 186.097C393.964 186.62 394.094 187.188 394.102 187.764C394.11 188.341 393.997 188.912 393.769 189.442C392.882 191.725 390.22 193.154 387.99 193.786C385.761 194.418 380.924 193.786 379.66 193.631L378.961 195.703C377.852 199.028 376.643 202.353 375.634 205.611C375.267 206.719 374.946 207.916 374.624 209.068C374.979 208.37 375.279 207.783 375.334 207.705C377.042 205.101 381.856 201.056 385.206 202.02C385.758 202.189 386.268 202.471 386.703 202.849C387.139 203.228 387.49 203.693 387.734 204.216C387.977 204.738 388.108 205.306 388.118 205.882C388.128 206.459 388.016 207.031 387.79 207.561C386.903 209.844 384.23 211.274 382 211.905C379.771 212.537 375.412 211.983 373.903 211.773C373.604 212.958 373.315 214.155 373.082 215.319C372.938 216.117 372.75 216.87 372.65 217.69L372.317 220.062C372.162 221.58 371.984 223.143 371.873 224.628C371.785 225.67 371.718 226.656 371.651 227.642C372.006 226.534 372.761 224.24 372.816 224.063C374.048 221.627 375.88 219.544 378.14 218.012C378.266 217.732 378.418 217.465 378.595 217.214C378.909 216.73 379.322 216.317 379.806 216.003C380.291 215.689 380.836 215.481 381.407 215.392C381.977 215.303 382.56 215.336 383.118 215.487C383.675 215.639 384.194 215.906 384.64 216.272C387.28 218.544 386.615 224.772 385.406 227.631C385.339 227.797 384.352 229.548 383.72 230.634C384.197 230.047 384.64 229.526 385.139 228.883C386.104 227.698 387.103 226.545 388.168 225.304L389.798 223.542C390.331 222.943 390.974 222.378 391.562 221.78C392.948 220.439 394.424 219.142 395.943 217.879C394.912 217.025 391.273 213.967 390.231 211.883C389.188 209.8 388.445 206.885 389.532 204.68C389.771 204.154 390.118 203.684 390.55 203.301C390.983 202.917 391.492 202.63 392.044 202.456C392.595 202.282 393.177 202.227 393.751 202.293C394.326 202.359 394.88 202.546 395.377 202.84C398.317 204.68 398.616 210.941 397.851 213.922C397.851 214.111 397.008 216.216 396.553 217.358C397.474 216.593 398.383 215.84 399.337 215.141C402.088 213.025 404.939 210.964 407.767 208.891L410.352 206.974C409.986 206.675 405.593 203.128 404.417 200.79C403.386 198.718 402.632 195.792 403.719 193.598C403.956 193.071 404.303 192.6 404.735 192.215C405.167 191.831 405.676 191.542 406.228 191.367C406.779 191.193 407.361 191.136 407.936 191.202C408.511 191.267 409.066 191.453 409.564 191.747C412.515 193.598 412.803 199.848 412.038 202.829C411.982 203.051 410.84 206.065 410.518 206.819C412.404 205.411 414.278 203.993 416.064 202.519C418.492 200.533 420.789 198.394 422.941 196.113C422.775 195.98 418.172 192.29 416.974 189.907C415.931 187.835 415.188 184.909 416.275 182.704C416.513 182.178 416.859 181.709 417.29 181.325C417.722 180.942 418.229 180.654 418.779 180.479C419.33 180.305 419.91 180.248 420.484 180.312C421.058 180.377 421.612 180.561 422.109 180.853C425.06 182.704 425.359 188.965 424.594 191.935C424.539 192.135 423.673 194.44 423.241 195.515C423.292 195.558 423.348 195.595 423.407 195.626C425.511 193.272 427.4 190.735 429.053 188.046C429.985 186.583 430.783 185.12 431.538 183.69C430.606 183.092 426.402 180.366 425.082 178.282C423.762 176.199 422.764 173.506 423.596 171.201C423.775 170.652 424.068 170.148 424.456 169.72C424.843 169.292 425.317 168.95 425.845 168.717C426.373 168.484 426.945 168.365 427.522 168.367C428.1 168.369 428.671 168.492 429.197 168.729C432.336 170.237 433.312 176.487 432.88 179.501C432.88 179.668 432.436 181.341 432.114 182.549C432.436 181.906 432.791 181.23 433.091 180.598C434.2 178.238 435.143 175.999 435.919 174.016C436.363 172.907 436.729 171.799 437.028 170.868C436.418 169.816 434.044 165.505 433.812 163.111C433.579 160.717 433.956 157.802 435.764 156.14C436.175 155.735 436.668 155.422 437.209 155.22C437.75 155.017 438.327 154.931 438.904 154.967C439.48 155.002 440.043 155.159 440.555 155.426C441.067 155.693 441.517 156.065 441.875 156.517C443.961 159.299 441.975 165.25 440.178 167.776C440.023 167.998 437.195 171.101 437.161 171.101V171.035C436.851 171.977 436.518 172.974 436.119 174.071C435.387 176.077 434.532 178.338 433.434 180.72C432.274 183.319 430.966 185.85 429.519 188.301C427.904 191.045 426.048 193.641 423.973 196.058L423.895 196.136C424.76 195.604 427.223 194.196 427.434 194.108C430.295 192.877 436.529 192.19 438.814 194.806C439.182 195.251 439.452 195.768 439.606 196.324C439.76 196.881 439.796 197.463 439.71 198.034C439.624 198.605 439.419 199.151 439.108 199.637C438.797 200.124 438.387 200.539 437.904 200.857C435.897 202.275 432.891 201.965 430.672 201.3C428.177 200.513 424.017 196.712 423.64 196.413C421.47 198.821 419.143 201.083 416.674 203.184C415.243 204.414 413.757 205.611 412.237 206.797C413.003 206.364 413.69 205.977 413.79 205.932C416.641 204.702 422.875 204.015 425.16 206.63C425.529 207.075 425.8 207.592 425.956 208.149C426.111 208.705 426.147 209.288 426.061 209.859C425.975 210.431 425.77 210.977 425.457 211.464C425.145 211.95 424.734 212.365 424.25 212.681C422.254 214.1 419.237 213.789 417.029 213.125C414.822 212.46 411.128 209.246 410.174 208.392C409.586 208.847 409.065 209.301 408.433 209.744C405.649 211.883 402.887 214 400.169 216.161C399.226 216.926 398.328 217.701 397.418 218.488L398.772 217.735C401.622 216.516 407.856 215.817 410.141 218.444C410.51 218.888 410.782 219.406 410.937 219.962C411.092 220.519 411.128 221.102 411.043 221.673C410.957 222.244 410.751 222.791 410.439 223.277C410.127 223.764 409.715 224.178 409.231 224.495C407.224 225.913 404.218 225.603 402.01 224.927C399.803 224.251 396.464 221.359 395.355 220.361C394.457 221.181 393.547 222.012 392.715 222.855C392.15 223.442 391.606 223.963 391.052 224.595L389.454 226.401C388.489 227.576 387.48 228.784 386.559 229.958C385.916 230.778 385.317 231.565 384.718 232.352C385.639 231.587 387.502 230.136 387.668 230.014C390.297 228.362 396.365 226.744 399.016 228.983C399.445 229.369 399.789 229.84 400.024 230.367C400.259 230.894 400.381 231.465 400.381 232.042C400.381 232.619 400.259 233.189 400.024 233.716C399.789 234.243 399.445 234.715 399.016 235.1C397.241 236.807 394.224 236.984 391.939 236.63C389.41 236.242 384.84 233.305 384.274 232.895C383.276 234.203 382.322 235.488 381.435 236.707C378.362 240.952 375.966 244.609 374.325 247.18C374.325 247.28 374.214 247.357 374.158 247.446L372.029 246.415L372.361 245.906C374.081 243.346 376.587 239.711 379.782 235.488C380.791 234.147 381.889 232.751 383.032 231.31C381.843 230.018 380.732 228.656 379.704 227.232C377.253 228.185 372.173 228.218 371.507 228.218C371.407 229.87 371.319 231.465 371.252 232.973C371.03 238.215 371.052 242.581 371.108 245.628V245.983L368.768 244.875C368.768 241.838 368.89 237.738 369.2 232.884C369.3 231.222 369.444 229.437 369.611 227.609C368.956 227.454 363.665 226.091 361.669 224.495C359.861 223.054 357.953 220.705 358.019 218.256C358.013 217.678 358.129 217.105 358.36 216.576C358.591 216.046 358.931 215.571 359.358 215.182C359.785 214.792 360.29 214.498 360.839 214.317C361.388 214.136 361.97 214.074 362.545 214.133C365.995 214.576 368.89 220.128 369.455 223.187C369.455 223.364 369.633 225.404 369.699 226.611C369.777 225.869 369.832 225.149 369.921 224.395C370.065 222.877 370.265 221.37 370.476 219.741C370.598 218.965 370.731 218.167 370.853 217.369C370.975 216.571 371.186 215.751 371.352 214.942C371.773 213.047 372.284 211.152 372.849 209.257C371.518 209.124 366.804 208.57 364.774 207.406C362.744 206.243 360.526 204.226 360.227 201.787C360.134 201.218 360.162 200.635 360.311 200.077C360.459 199.519 360.723 198.999 361.086 198.55C361.45 198.101 361.904 197.734 362.419 197.473C362.934 197.211 363.499 197.062 364.076 197.033C367.547 196.945 371.252 201.998 372.273 204.935C372.339 205.112 372.838 207.295 373.082 208.503C373.437 207.395 373.77 206.231 374.192 205.09C375.301 201.765 376.554 198.518 377.774 195.227C378.151 194.218 378.506 193.21 378.883 192.201C378.407 192.201 372.783 191.625 370.52 190.317C368.512 189.209 366.272 187.137 365.961 184.699C365.87 184.129 365.9 183.547 366.049 182.99C366.198 182.433 366.462 181.913 366.825 181.465C367.188 181.016 367.642 180.649 368.156 180.387C368.67 180.126 369.234 179.975 369.81 179.945C373.293 179.856 376.998 184.92 378.018 187.846C378.096 188.068 378.806 191.171 378.95 192.024C379.749 189.808 380.536 187.591 381.168 185.375C382.105 182.382 382.846 179.332 383.387 176.243C383.165 176.243 377.297 175.689 374.979 174.359C372.96 173.196 370.72 171.168 370.42 168.729C370.327 168.16 370.356 167.577 370.504 167.019C370.652 166.461 370.917 165.941 371.28 165.492C371.643 165.043 372.097 164.676 372.613 164.415C373.128 164.153 373.692 164.004 374.269 163.975C377.741 163.887 381.446 168.951 382.466 171.877C382.533 172.065 383.087 174.47 383.32 175.611H383.509C383.967 172.49 384.145 169.334 384.041 166.181C384.041 164.452 383.875 162.789 383.709 161.183C382.599 161.183 377.564 161.183 375.345 160.229C373.127 159.276 370.764 157.525 370.187 155.143C370.033 154.585 369.999 154 370.087 153.428C370.175 152.856 370.383 152.309 370.697 151.822C371.011 151.336 371.424 150.921 371.91 150.605C372.396 150.289 372.943 150.08 373.515 149.99C376.965 149.524 381.202 154.145 382.544 156.938C382.61 157.093 383.187 158.722 383.575 159.919C383.498 159.188 383.42 158.445 383.32 157.703C382.976 155.098 382.488 152.738 382.045 150.643C381.779 149.458 381.523 148.427 381.268 147.396C380.159 146.842 375.811 144.57 374.325 142.72C372.838 140.869 371.507 138.22 372.106 135.838C372.233 135.278 372.476 134.751 372.819 134.29C373.163 133.83 373.598 133.447 374.099 133.165C374.599 132.883 375.153 132.709 375.725 132.654C376.297 132.599 376.874 132.664 377.419 132.845Z" fill="#E9ADAD"/>
<path d="M440.289 186.416C437.572 186.306 432.137 183.513 432.137 183.513C432.137 183.513 435.054 180.499 435.265 180.321C437.694 178.393 443.528 176.077 446.423 178.005C446.896 178.336 447.294 178.764 447.591 179.259C447.887 179.755 448.076 180.307 448.144 180.88C448.212 181.454 448.158 182.035 447.986 182.586C447.814 183.137 447.527 183.646 447.144 184.078C445.58 185.973 442.608 186.505 440.289 186.416Z" fill="#E9ADAD"/>
</g>
<path d="M408.555 254.406C408.555 254.406 392.061 214.687 382.832 216.416C373.604 218.145 398.661 279.739 398.661 279.739C398.661 279.739 369.644 225.049 349.856 225.049C330.067 225.049 357.11 285.491 382.178 305.638C382.178 305.638 342.601 263.038 319.519 272.259C296.436 281.479 365.717 324.644 365.717 324.644C365.717 324.644 325.486 311.977 330.101 321.763C334.715 331.548 347.249 333.277 347.249 333.277L301.771 335.582H460L424.383 332.125C424.383 332.125 461.32 313.706 451.426 306.215C441.532 298.723 419.769 314.848 419.769 314.848C419.769 314.848 457.36 273.4 450.106 257.863C442.852 242.326 410.529 286.067 410.529 286.067C410.529 286.067 436.917 230.235 431.604 220.439C426.291 210.642 408.555 254.406 408.555 254.406Z" fill="#407BFF"/>
<path opacity="0.4" d="M408.555 254.406C408.555 254.406 392.061 214.687 382.832 216.416C373.604 218.145 398.661 279.739 398.661 279.739C398.661 279.739 369.644 225.049 349.856 225.049C330.067 225.049 357.11 285.491 382.178 305.638C382.178 305.638 342.601 263.038 319.519 272.259C296.436 281.479 365.717 324.644 365.717 324.644C365.717 324.644 325.486 311.977 330.101 321.763C334.715 331.548 347.249 333.277 347.249 333.277L301.771 335.582H460L424.383 332.125C424.383 332.125 461.32 313.706 451.426 306.215C441.532 298.723 419.769 314.848 419.769 314.848C419.769 314.848 457.36 273.4 450.106 257.863C442.852 242.326 410.529 286.067 410.529 286.067C410.529 286.067 436.917 230.235 431.604 220.439C426.291 210.642 408.555 254.406 408.555 254.406Z" fill="#C9BABA"/>
<path d="M413.835 256.5C399.326 299.332 399.326 329.642 399.326 329.642C399.326 329.642 416.475 330.307 434.277 317.13" stroke="#263238" stroke-linecap="round" stroke-linejoin="round"/>
<path d="M406.58 279.562C403.587 266.758 399.615 254.202 394.701 242.005" stroke="#263238" stroke-linecap="round" stroke-linejoin="round"/>
<path d="M363.71 254.527L400.635 309.218C400.635 309.218 425.703 288.162 434.277 276.271" stroke="#263238" stroke-linecap="round" stroke-linejoin="round"/>
<path d="M399.981 322.394C399.981 322.394 361.07 303.943 345.241 293.404" stroke="#263238" stroke-linecap="round" stroke-linejoin="round"/>
<path d="M153.525 55.6915L144.463 41.2404H64.6444V55.6915V60.889V301.305H393.192V55.6915H153.525Z" fill="#263238"/>
<path d="M391.029 62.3186H67.0846V296.063H391.029V62.3186Z" fill="white"/>
<path opacity="0.17" d="M392.615 60.3127H385.095V297.836H392.615V60.3127Z" fill="black"/>
<path opacity="0.17" d="M392.615 203.926H385.095V295.908H392.615V203.926Z" fill="black"/>
<path d="M391.451 59.1602H65.798V71.8714H391.451V59.1602Z" fill="#407BFF" stroke="#263238" stroke-miterlimit="10"/>
<path d="M391.029 62.3186H67.0846V296.063H391.029V62.3186Z" stroke="#263238" stroke-linecap="round" stroke-linejoin="round"/>
<g opacity="0.17">
<path d="M235.862 84.1282H213.201C212.939 84.1282 212.679 84.0766 212.437 83.9764C212.195 83.8761 211.974 83.7292 211.789 83.544C211.604 83.3587 211.457 83.1388 211.356 82.8968C211.256 82.6548 211.204 82.3954 211.204 82.1334C211.203 81.8705 211.253 81.61 211.353 81.3667C211.453 81.1234 211.6 80.9022 211.785 80.7157C211.971 80.5293 212.191 80.3814 212.434 80.2805C212.677 80.1795 212.938 80.1276 213.201 80.1276H235.862C236.125 80.1276 236.386 80.1795 236.629 80.2805C236.872 80.3814 237.092 80.5293 237.278 80.7157C237.463 80.9022 237.61 81.1234 237.71 81.3667C237.809 81.61 237.86 81.8705 237.859 82.1334C237.859 82.3954 237.807 82.6548 237.707 82.8968C237.606 83.1388 237.459 83.3587 237.274 83.544C237.088 83.7292 236.868 83.8761 236.626 83.9764C236.384 84.0766 236.124 84.1282 235.862 84.1282Z" fill="black"/>
<path d="M281.184 84.1282H258.523C257.994 84.1253 257.488 83.9142 257.115 83.5407C256.741 83.1673 256.529 82.6616 256.526 82.1334C256.526 81.6034 256.736 81.0948 257.111 80.719C257.485 80.3431 257.993 80.1305 258.523 80.1276H281.184C281.717 80.1276 282.227 80.3389 282.604 80.7151C282.98 81.0912 283.192 81.6014 283.192 82.1334C283.189 82.6635 282.976 83.1709 282.6 83.5446C282.224 83.9184 281.715 84.1282 281.184 84.1282Z" fill="black"/>
<path d="M326.518 84.1282H303.857C303.326 84.1282 302.817 83.9184 302.441 83.5446C302.065 83.1709 301.852 82.6635 301.849 82.1334C301.849 81.6014 302.06 81.0912 302.437 80.7151C302.813 80.3389 303.324 80.1276 303.857 80.1276H326.518C327.048 80.1305 327.556 80.3431 327.93 80.719C328.304 81.0948 328.514 81.6034 328.514 82.1334C328.511 82.6616 328.3 83.1673 327.926 83.5407C327.552 83.9142 327.046 84.1253 326.518 84.1282Z" fill="black"/>
<path d="M371.84 84.1282H349.179C348.917 84.1282 348.657 84.0766 348.415 83.9764C348.172 83.8761 347.952 83.7292 347.767 83.544C347.582 83.3587 347.434 83.1388 347.334 82.8968C347.234 82.6548 347.182 82.3954 347.182 82.1334C347.181 81.8705 347.231 81.61 347.331 81.3667C347.431 81.1234 347.577 80.9022 347.763 80.7157C347.949 80.5293 348.169 80.3814 348.412 80.2805C348.655 80.1795 348.916 80.1276 349.179 80.1276H371.84C372.37 80.1305 372.878 80.3431 373.252 80.719C373.626 81.0948 373.836 81.6034 373.836 82.1334C373.834 82.6616 373.622 83.1673 373.248 83.5407C372.875 83.9142 372.368 84.1253 371.84 84.1282Z" fill="black"/>
</g>
<path d="M97.6989 179.534H131.94" stroke="#263238" stroke-width="3" stroke-linecap="round" stroke-linejoin="round"/>
<path d="M131.33 184.865H135.068" stroke="#263238" stroke-linecap="round" stroke-linejoin="round"/>
<path d="M109.889 184.865H129.067" stroke="#263238" stroke-linecap="round" stroke-linejoin="round"/>
<path d="M95.0812 184.865H107.859" stroke="#263238" stroke-linecap="round" stroke-linejoin="round"/>
<path d="M119.362 190.195H135.068" stroke="#263238" stroke-linecap="round" stroke-linejoin="round"/>
<path d="M110.788 190.195H116.888" stroke="#263238" stroke-linecap="round" stroke-linejoin="round"/>
<path d="M95.0812 190.195H108.081" stroke="#263238" stroke-linecap="round" stroke-linejoin="round"/>
<path d="M103.567 195.515H135.068" stroke="#263238" stroke-linecap="round" stroke-linejoin="round"/>
<path d="M95.0812 195.515H100.638" stroke="#263238" stroke-linecap="round" stroke-linejoin="round"/>
<path d="M127.27 200.845H135.068" stroke="#263238" stroke-linecap="round" stroke-linejoin="round"/>
<path d="M112.374 200.845H124.553" stroke="#263238" stroke-linecap="round" stroke-linejoin="round"/>
<path d="M95.0812 200.845H109.889" stroke="#263238" stroke-linecap="round" stroke-linejoin="round"/>
<path d="M108.081 206.176H135.068" stroke="#263238" stroke-linecap="round" stroke-linejoin="round"/>
<path d="M95.0812 206.176H105.596" stroke="#263238" stroke-linecap="round" stroke-linejoin="round"/>
<path d="M175.787 179.534H210.028" stroke="#263238" stroke-width="3" stroke-linecap="round" stroke-linejoin="round"/>
<path d="M209.418 184.865H213.157" stroke="#263238" stroke-linecap="round" stroke-linejoin="round"/>
<path d="M187.977 184.865H207.156" stroke="#263238" stroke-linecap="round" stroke-linejoin="round"/>
<path d="M173.169 184.865H185.948" stroke="#263238" stroke-linecap="round" stroke-linejoin="round"/>
<path d="M197.45 190.195H213.156" stroke="#263238" stroke-linecap="round" stroke-linejoin="round"/>
<path d="M188.876 190.195H194.976" stroke="#263238" stroke-linecap="round" stroke-linejoin="round"/>
<path d="M173.169 190.195H186.169" stroke="#263238" stroke-linecap="round" stroke-linejoin="round"/>
<path d="M181.655 195.515H213.156" stroke="#263238" stroke-linecap="round" stroke-linejoin="round"/>
<path d="M173.169 195.515H178.727" stroke="#263238" stroke-linecap="round" stroke-linejoin="round"/>
<path d="M205.359 200.845H213.156" stroke="#263238" stroke-linecap="round" stroke-linejoin="round"/>
<path d="M190.462 200.845H202.641" stroke="#263238" stroke-linecap="round" stroke-linejoin="round"/>
<path d="M173.169 200.845H187.977" stroke="#263238" stroke-linecap="round" stroke-linejoin="round"/>
<path d="M186.169 206.176H213.156" stroke="#263238" stroke-linecap="round" stroke-linejoin="round"/>
<path d="M173.169 206.176H183.685" stroke="#263238" stroke-linecap="round" stroke-linejoin="round"/>
<path d="M253.875 179.534H288.117" stroke="#263238" stroke-width="3" stroke-linecap="round" stroke-linejoin="round"/>
<path d="M287.507 184.865H291.245" stroke="#263238" stroke-linecap="round" stroke-linejoin="round"/>
<path d="M266.066 184.865H285.244" stroke="#263238" stroke-linecap="round" stroke-linejoin="round"/>
<path d="M251.258 184.865H264.036" stroke="#263238" stroke-linecap="round" stroke-linejoin="round"/>
<path d="M275.538 190.195H291.245" stroke="#263238" stroke-linecap="round" stroke-linejoin="round"/>
<path d="M266.964 190.195H273.065" stroke="#263238" stroke-linecap="round" stroke-linejoin="round"/>
<path d="M251.258 190.195H264.258" stroke="#263238" stroke-linecap="round" stroke-linejoin="round"/>
<path d="M259.743 195.515H291.245" stroke="#263238" stroke-linecap="round" stroke-linejoin="round"/>
<path d="M251.258 195.515H256.815" stroke="#263238" stroke-linecap="round" stroke-linejoin="round"/>
<path d="M283.447 200.845H291.245" stroke="#263238" stroke-linecap="round" stroke-linejoin="round"/>
<path d="M268.55 200.845H280.729" stroke="#263238" stroke-linecap="round" stroke-linejoin="round"/>
<path d="M251.258 200.845H266.066" stroke="#263238" stroke-linecap="round" stroke-linejoin="round"/>
<path d="M264.258 206.176H291.245" stroke="#263238" stroke-linecap="round" stroke-linejoin="round"/>
<path d="M251.258 206.176H261.773" stroke="#263238" stroke-linecap="round" stroke-linejoin="round"/>
<path d="M331.964 179.534H366.205" stroke="#263238" stroke-width="3" stroke-linecap="round" stroke-linejoin="round"/>
<path d="M365.595 184.865H369.333" stroke="#263238" stroke-linecap="round" stroke-linejoin="round"/>
<path d="M344.154 184.865H363.332" stroke="#263238" stroke-linecap="round" stroke-linejoin="round"/>
<path d="M329.346 184.865H342.124" stroke="#263238" stroke-linecap="round" stroke-linejoin="round"/>
<path d="M353.627 190.195H369.333" stroke="#263238" stroke-linecap="round" stroke-linejoin="round"/>
<path d="M345.052 190.195H351.153" stroke="#263238" stroke-linecap="round" stroke-linejoin="round"/>
<path d="M329.346 190.195H342.346" stroke="#263238" stroke-linecap="round" stroke-linejoin="round"/>
<path d="M337.832 195.515H369.333" stroke="#263238" stroke-linecap="round" stroke-linejoin="round"/>
<path d="M329.346 195.515H334.903" stroke="#263238" stroke-linecap="round" stroke-linejoin="round"/>
<path d="M361.535 200.845H369.333" stroke="#263238" stroke-linecap="round" stroke-linejoin="round"/>
<path d="M346.639 200.845H358.818" stroke="#263238" stroke-linecap="round" stroke-linejoin="round"/>
<path d="M329.346 200.845H344.154" stroke="#263238" stroke-linecap="round" stroke-linejoin="round"/>
<path d="M342.346 206.176H369.333" stroke="#263238" stroke-linecap="round" stroke-linejoin="round"/>
<path d="M329.346 206.176H339.862" stroke="#263238" stroke-linecap="round" stroke-linejoin="round"/>
<path d="M379.882 162.368H78.1768V100.186H379.882V162.368Z" fill="#407BFF"/>
<path opacity="0.7" d="M379.882 162.368H78.1768V100.186H379.882V162.368Z" fill="#D4C7F1"/>
<path d="M303.535 162.368H154.579V100.186H303.535V162.368Z" fill="#407BFF"/>
<path opacity="0.92" d="M303.535 162.368H154.579V100.186H303.535V162.368Z" fill="white"/>
<path d="M273.098 118.206H283.247" stroke="#263238" stroke-linecap="round" stroke-linejoin="round"/>
<path d="M214.998 118.206H266.986" stroke="#263238" stroke-linecap="round" stroke-linejoin="round"/>
<path d="M174.866 118.206H209.485" stroke="#263238" stroke-linecap="round" stroke-linejoin="round"/>
<path d="M240.687 123.536H283.247" stroke="#263238" stroke-linecap="round" stroke-linejoin="round"/>
<path d="M217.438 123.536H233.954" stroke="#263238" stroke-linecap="round" stroke-linejoin="round"/>
<path d="M174.866 123.536H210.106" stroke="#263238" stroke-linecap="round" stroke-linejoin="round"/>
<path d="M197.871 128.867H283.247" stroke="#263238" stroke-linecap="round" stroke-linejoin="round"/>
<path d="M174.866 128.867H189.918" stroke="#263238" stroke-linecap="round" stroke-linejoin="round"/>
<path d="M262.095 134.197H283.247" stroke="#263238" stroke-linecap="round" stroke-linejoin="round"/>
<path d="M221.719 134.197H254.752" stroke="#263238" stroke-linecap="round" stroke-linejoin="round"/>
<path d="M174.866 134.197H214.998" stroke="#263238" stroke-linecap="round" stroke-linejoin="round"/>
<path d="M210.106 139.517H283.247" stroke="#263238" stroke-linecap="round" stroke-linejoin="round"/>
<path d="M174.866 139.517H203.373" stroke="#263238" stroke-linecap="round" stroke-linejoin="round"/>
<path d="M379.882 295.287H78.1768V233.106H379.882V295.287Z" fill="#407BFF"/>
<path opacity="0.7" d="M379.882 295.287H78.1768V233.106H379.882V295.287Z" fill="white"/>
<path d="M344.176 256.766C344.176 256.766 326.507 263.858 323.734 264.734C320.961 265.609 320.794 266.806 320.794 270.608C320.794 274.409 321.316 291.553 321.316 292.938C321.316 294.323 321.138 296.917 321.138 296.917H379.028C379.028 296.917 375.212 281.402 372.96 274.076C370.709 266.751 371.751 266.108 367.769 263.692C363.787 261.276 353.349 257.808 351.131 257.287C348.831 256.926 346.505 256.752 344.176 256.766Z" fill="#AEBEFA" stroke="#263238" stroke-linecap="round" stroke-linejoin="round"/>
<path d="M345.042 254.86C345.042 254.86 340.882 254.516 339.152 257.985C337.421 261.454 333.262 269.532 333.262 269.532L338.286 272.647L332.441 275.628C333.417 279.903 334.632 284.121 336.079 288.261C337.086 290.979 338.241 293.639 339.54 296.229C339.54 296.229 347.97 286.71 351.297 283.762C353.491 281.665 355.308 279.205 356.666 276.492L352.34 272.514L359.794 271.649C359.794 271.649 357.886 261.963 355.457 257.985C353.028 254.006 345.042 254.86 345.042 254.86Z" fill="#263238" stroke="#263238" stroke-linecap="round" stroke-linejoin="round"/>
<path d="M336.534 288.372C336.844 289.237 337.177 290.057 337.499 290.777" stroke="white" stroke-width="0.5" stroke-linecap="round" stroke-linejoin="round"/>
<path d="M337.166 262.296L333.262 269.533L338.286 272.647L332.907 275.694C332.907 275.694 334.16 281.158 335.735 286.056" stroke="white" stroke-width="0.5" stroke-linecap="round" stroke-linejoin="round"/>
<path d="M356.843 259.016L359.761 271.649L352.307 272.514L356.633 276.492C356.633 276.492 348.314 286.233 344.864 290.167" stroke="white" stroke-width="0.5" stroke-linecap="round" stroke-linejoin="round"/>
<path d="M367.736 278.398L364.619 297.615" stroke="white" stroke-width="0.5" stroke-linecap="round" stroke-linejoin="round"/>
<path d="M324.954 274.941C324.954 274.941 324.61 286.532 324.776 290.167C324.914 292.472 325.381 294.744 326.163 296.916" stroke="white" stroke-width="0.5" stroke-linecap="round" stroke-linejoin="round"/>
<path d="M356.999 283.075L359.938 279.096L362.367 283.075H356.999Z" fill="white" stroke="#263238" stroke-miterlimit="10"/>
<path d="M360.46 244.997C360.46 244.997 363.399 244.653 364.098 248.986C364.797 253.319 362.711 258.849 355.779 258.849C348.846 258.849 349.379 253.652 349.545 249.851C349.711 246.049 360.46 244.997 360.46 244.997Z" fill="#263238" stroke="#263238" stroke-miterlimit="10"/>
<path d="M343.311 252.1C343.311 252.1 343.134 257.109 342.79 262.828C342.446 268.546 339.673 276.326 339.673 282.898C339.649 286.539 339.823 290.179 340.194 293.802C340.194 293.802 345.907 282.72 348.502 276.326C351.098 269.931 354.048 251.402 354.048 251.402L343.311 252.1Z" fill="white" stroke="#263238" stroke-miterlimit="10"/>
<path d="M360.282 240.719C361.572 238.195 362.284 235.417 362.367 232.585C362.367 228.263 361.502 222.378 356.477 219.774C351.453 217.169 341.747 218.909 339.329 223.929C337.697 227.139 336.932 230.718 337.111 234.313C337.285 236.257 337.691 238.173 338.32 240.021C338.32 240.021 339.019 236.696 343.688 235.012C348.358 233.327 353.394 231.543 355.812 232.795C358.23 234.047 360.282 240.719 360.282 240.719Z" fill="#263238" stroke="#263238" stroke-linecap="round" stroke-linejoin="round"/>
<path d="M338.464 238.946C338.464 238.946 336.379 235.832 335.513 238.081C334.648 240.331 335.868 243.622 337.244 244.31C338.619 244.997 339.329 244.653 339.329 244.653L338.464 238.946Z" fill="white" stroke="#263238" stroke-linecap="round" stroke-linejoin="round"/>
<path d="M360.282 239.467C360.282 239.467 362.711 237.04 362.711 239.289C362.589 241.377 361.813 243.374 360.493 244.997C359.45 246.382 358.929 245.695 358.929 245.695L360.282 239.467Z" fill="white" stroke="#263238" stroke-linecap="round" stroke-linejoin="round"/>
<path d="M356.167 229.504L357.886 224.661C357.954 224.471 357.943 224.263 357.857 224.081C357.771 223.899 357.616 223.759 357.426 223.691C357.236 223.624 357.027 223.634 356.845 223.72C356.663 223.807 356.523 223.961 356.455 224.151L355.013 228.196C353.496 227.838 351.922 227.792 350.386 228.063C348.851 228.334 347.387 228.914 346.084 229.77C341.581 232.718 337.943 235.311 337.943 235.311C337.943 235.311 338.12 245.174 340.017 248.809C341.913 252.444 345.219 256.766 347.992 256.766C350.765 256.766 355.612 250.715 357.52 248.809C359.428 246.903 360.637 239.467 360.637 237.04C360.637 235.3 357.775 231.51 356.167 229.504Z" fill="white" stroke="#263238" stroke-miterlimit="10"/>
<path d="M349.345 273.965C346.532 274.22 343.697 273.841 341.048 272.857C340.255 276.176 339.794 279.565 339.673 282.975C339.649 286.617 339.823 290.257 340.194 293.88C340.194 293.88 345.907 282.798 348.502 276.403C348.78 275.65 349.079 274.819 349.345 273.965Z" fill="#407BFF" stroke="#263238" stroke-miterlimit="10"/>
<path d="M267.474 247.579C263.056 248.08 258.668 248.82 254.33 249.795C249.261 251.103 246.821 251.668 246.821 254.106C246.821 256.544 246.255 267.05 244.602 271.749C242.95 276.448 241.031 283.197 241.031 285.635C241.031 288.073 244.602 298.39 244.602 298.39H251.169C251.169 298.39 248.729 286.377 248.729 285.258C248.729 284.139 252.112 274.176 252.112 274.176L252.3 298.756H286.686L286.32 275.295C286.32 275.295 289.315 284.87 289.315 286.555C289.315 288.239 288.205 299.321 288.205 299.321H294.728C294.728 299.321 297.922 287.131 297.734 282.809C297.545 278.487 294.406 264.789 293.984 260.645C293.563 256.5 296.048 254.261 291.544 251.447C287.041 248.632 276.703 246.947 274.451 246.759C272.104 246.805 269.768 247.08 267.474 247.579Z" fill="#8AA8EA" stroke="#263238" stroke-miterlimit="10"/>
<path d="M252.079 274.231L252.644 264.845L250.57 257.719" stroke="#263238" stroke-linecap="round" stroke-linejoin="round"/>
<path d="M286.265 263.349V275.351" stroke="#263238" stroke-linecap="round" stroke-linejoin="round"/>
<path d="M286.442 266.729L289.448 262.218" stroke="#263238" stroke-linecap="round" stroke-linejoin="round"/>
<path d="M270.669 260.345L269.549 298.435" stroke="#263238" stroke-linecap="round" stroke-linejoin="round"/>
<path d="M270.103 243.08C268.432 243.171 266.842 243.832 265.6 244.952C263.537 246.836 262.782 254.151 262.782 254.151C262.782 254.151 269.36 252.278 270.48 251.934C271.601 251.591 281.572 253.807 281.572 253.807C281.572 253.807 280.641 247.246 278.012 244.432C275.383 241.617 270.103 243.08 270.103 243.08Z" fill="#263238" stroke="#263238" stroke-linecap="round" stroke-linejoin="round"/>
<path d="M267.474 237.073C267.474 237.073 268.983 239.289 268.983 245.939C268.983 252.588 269.726 259.448 270.669 260.346C271.612 261.243 275.549 251.48 275.549 247.047C275.624 244.116 276.332 241.235 277.624 238.602C277.624 238.602 272.921 235.411 270.48 235.034C269.814 234.93 269.133 235.083 268.575 235.461C268.017 235.84 267.624 236.416 267.474 237.073Z" fill="white" stroke="#263238" stroke-linecap="round" stroke-linejoin="round"/>
<path d="M269.282 253.253C269.582 256.899 270.092 259.769 270.669 260.345C271.246 260.922 273.054 257.265 274.296 253.342C272.631 253.577 270.938 253.547 269.282 253.253Z" fill="#263238" stroke="#263238" stroke-linecap="round" stroke-linejoin="round"/>
<path d="M278.933 219.065C278.933 219.065 280.042 219.441 282.127 217.557C284.212 215.673 283.236 212.116 282.316 212.87C281.728 213.349 281.219 213.917 280.807 214.554C280.443 213.456 279.772 212.484 278.874 211.754C277.976 211.024 276.888 210.565 275.738 210.432C271.8 210.055 267.097 215.496 267.097 215.496C267.097 215.496 258.468 221.879 259.399 226.944C260.331 232.008 265.223 236.508 267.474 237.073C269.726 237.638 273.863 233.516 273.109 229.947C272.355 226.379 271.8 221.081 273.109 220.561C275.021 219.953 276.965 219.453 278.933 219.065Z" fill="#263238" stroke="#263238" stroke-linecap="round" stroke-linejoin="round"/>
<path d="M267.097 234.07C267.097 234.07 263.914 231.853 263.16 233.516C262.405 235.178 264.102 238.203 266.166 239.134C268.229 240.065 270.103 237.073 270.103 237.073C270.103 237.073 276.681 242.326 281.195 242.514C285.71 242.703 285.898 239.134 285.144 232.385C284.39 225.636 282.138 220.372 280.452 218.499C278.766 216.626 272.189 218.311 270.114 219.995C268.04 221.68 266.787 223.187 268.805 223.564C270.824 223.941 272.743 224.672 270.869 226.756C268.994 228.839 268.051 228.063 268.65 229.57C269.249 231.078 271.656 232.574 269.404 233.327L267.097 234.07Z" fill="white" stroke="#263238" stroke-linecap="round" stroke-linejoin="round"/>
<path d="M184.561 244.044C184.561 244.044 160.891 246.859 160.159 248.92C159.427 250.981 150.775 271.084 152.084 272.935C153.392 274.786 156.032 275.151 158.095 275.151C159.557 275.021 160.939 274.431 162.044 273.467L156.032 298.956H199.602L200.922 281.125C200.922 281.125 205.991 283.341 209.374 283.009C212.757 282.676 212.003 280.005 211.249 274.941C210.494 269.876 210.14 256.921 208.808 254.483C207.477 252.045 191.527 245.285 191.527 245.285L184.561 244.044Z" fill="#263238" stroke="#263238" stroke-linecap="round" stroke-linejoin="round"/>
<path d="M201.277 274.608V262.972L202.209 260.722" stroke="white" stroke-linecap="round" stroke-linejoin="round"/>
<path d="M163.331 264.845L165.217 256.965L164.84 255.281" stroke="white" stroke-linecap="round" stroke-linejoin="round"/>
<path d="M168.278 299.754C168.278 299.754 171.839 284.361 173.536 274.797C175.233 265.233 182.298 244.044 182.298 244.044L193.202 247.047C193.202 247.047 185.87 268.435 183.996 277.634C182.121 286.832 180.546 299.864 180.546 299.864L168.278 299.754Z" fill="white" stroke="#263238" stroke-miterlimit="10"/>
<path d="M183.807 241.827C183.807 241.827 180.612 241.827 179.481 244.044C178.35 246.26 176.852 254.926 176.852 254.926C176.852 254.926 183.618 251.923 184.184 251.923C184.75 251.923 187.379 252.112 188.687 253.608C189.996 255.104 192.825 258.672 192.825 258.672C192.825 258.672 197.14 251.735 196.019 247.235C195.635 245.752 194.793 244.428 193.612 243.451C192.431 242.474 190.972 241.894 189.442 241.794L183.807 241.827Z" fill="#407BFF" stroke="#263238" stroke-miterlimit="10"/>
<path d="M182.698 236.885C182.698 236.885 182.321 250.028 182.698 253.774C183.075 257.52 183.641 258.462 183.641 258.462C183.641 258.462 186.835 253.209 187.767 251.336C188.699 249.463 191.527 247.391 192.847 245.706C194.167 244.022 195.065 237.638 195.065 237.638C195.065 237.638 190.185 241.395 187.556 240.453C185.696 239.631 184.038 238.413 182.698 236.885Z" fill="white" stroke="#263238" stroke-linecap="round" stroke-linejoin="round"/>
<path d="M190.462 213.136C187.268 213.601 184.151 215.197 183.252 218.311C182.498 220.937 182.143 229.57 181.943 233.881C181.744 238.192 184.006 243.645 185.881 244.21C187.446 244.765 189.13 244.895 190.762 244.587C191.704 244.21 196.03 238.392 197.151 237.261C198.271 236.131 201.654 225.625 201.654 221.879C201.737 220.032 201.214 218.207 200.165 216.683C199.116 215.159 197.598 214.019 195.842 213.435C194.089 212.959 192.256 212.857 190.462 213.136Z" fill="white" stroke="#263238" stroke-linecap="round" stroke-linejoin="round"/>
<path d="M199.769 230.745C199.769 230.745 202.774 228.108 201.987 231.488C201.745 232.498 201.284 233.442 200.636 234.254C199.988 235.066 199.169 235.726 198.238 236.186L199.769 230.745Z" fill="white" stroke="#263238" stroke-linecap="round" stroke-linejoin="round"/>
<path d="M182.298 227.132C182.298 227.132 180.08 225.071 180.08 227.886C180.166 229.729 180.825 231.499 181.966 232.95L182.298 227.132Z" fill="white" stroke="#263238" stroke-linecap="round" stroke-linejoin="round"/>
<path d="M199.769 230.745C200.743 227.875 201.372 224.898 201.643 221.879C201.726 220.032 201.203 218.207 200.154 216.683C199.105 215.159 197.587 214.019 195.831 213.435C194.079 212.959 192.246 212.857 190.451 213.136C187.257 213.601 184.14 215.197 183.241 218.311C182.663 221.417 182.326 224.562 182.232 227.72C183.186 226.977 185.171 225.16 184.75 222.999C184.184 220.184 183.053 218.876 185.116 217.557C187.179 216.239 189.63 218.123 193.014 219.253C196.397 220.383 199.769 218.876 200.711 219.807C201.654 220.738 197.706 224.694 198.271 226.19C198.837 227.686 200.146 229.382 199.769 230.701V230.745Z" fill="#263238" stroke="#263238" stroke-linecap="round" stroke-linejoin="round"/>
<path d="M172.715 266.729C172.715 266.729 169.898 262.784 168.023 262.595C166.148 262.407 161.634 266.729 161.634 266.729H172.715Z" fill="white" stroke="#263238" stroke-linecap="round" stroke-linejoin="round"/>
<path d="M190.562 267.094H193.202L193.756 272.359L190.939 271.605L190.562 267.094Z" fill="white" stroke="#263238" stroke-linecap="round" stroke-linejoin="round"/>
<path d="M193.202 267.094L197.894 269.167L199.014 274.985L193.757 272.359L193.202 267.094Z" fill="white" stroke="#263238" stroke-linecap="round" stroke-linejoin="round"/>
<path d="M208.21 277.29L181.356 266.784C179.808 267.544 178.356 268.486 177.03 269.588C176.246 270.375 175.668 271.341 175.344 272.403C175.344 272.403 188.111 281.601 194.311 284.416C200.512 287.231 209.53 288.173 211.027 286.632C212.524 285.092 212.136 279.318 211.216 278.376C210.718 277.863 210.15 277.423 209.53 277.068" fill="#263238"/>
<path d="M208.21 277.29L181.356 266.784C179.808 267.544 178.356 268.486 177.03 269.588C176.246 270.375 175.668 271.341 175.344 272.403C175.344 272.403 188.111 281.601 194.311 284.416C200.512 287.231 209.53 288.173 211.027 286.632C212.524 285.092 212.136 279.318 211.216 278.376C210.718 277.863 210.15 277.423 209.53 277.068" stroke="#263238" stroke-linecap="round" stroke-linejoin="round"/>
<path d="M190.562 266.208L190.939 271.649C190.939 271.649 171.217 276.149 163.897 277.467C156.576 278.786 152.627 277.833 151.507 274.464C150.387 271.095 154.136 266.951 155.822 266.02C157.508 265.089 190.562 266.208 190.562 266.208Z" fill="#263238" stroke="#263238" stroke-linecap="round" stroke-linejoin="round"/>
<path d="M118.02 253.342C118.02 253.342 125.54 255.214 128.546 256.156C131.552 257.098 132.484 258.218 132.484 260.467C132.484 262.717 130.798 272.658 130.798 274.165V284.305C130.798 287.12 133.615 297.437 133.615 297.437H97.0113C97.0113 297.437 92.885 281.679 90.0676 273.057C87.2503 264.435 86.8731 261.42 89.6905 260.102C96.3877 257.65 103.221 255.585 110.155 253.918C112.76 253.542 115.388 253.35 118.02 253.342Z" fill="#D3D3D3" stroke="#263238" stroke-miterlimit="10"/>
<path d="M128.923 265.72C128.923 265.72 131.142 276.049 130.421 279.795C129.7 283.54 124.597 297.814 124.597 297.814" stroke="#263238" stroke-linecap="round" stroke-linejoin="round"/>
<path d="M89.6682 260.091C89.6682 260.091 86.3406 260.656 87.2279 264.978C88.1153 269.3 83.8448 297.238 83.8448 297.238H92.1085C92.1085 297.238 97.7432 282.41 98.675 278.853C99.6067 275.295 100.372 272.469 98.675 269.466" fill="#D3D3D3"/>
<path d="M89.6682 260.091C89.6682 260.091 86.3406 260.656 87.2279 264.978C88.1153 269.3 83.8448 297.238 83.8448 297.238H92.1085C92.1085 297.238 97.7432 282.41 98.675 278.853C99.6067 275.295 100.372 272.469 98.675 269.466" stroke="#263238" stroke-miterlimit="10"/>
<path d="M124.664 235.067L125.895 273.289H114.792V238.359L124.664 235.067Z" fill="#263238" stroke="#263238" stroke-linecap="round" stroke-linejoin="round"/>
<path d="M110.322 262.54C110.322 262.54 113.516 276.946 114.836 281.302C116.156 285.657 116.334 295.709 115.945 297.061C115.557 298.413 120.637 297.061 120.637 297.061C120.637 297.061 121.957 287.087 122.712 281.302C123.466 275.517 121.203 264.601 121.203 264.601L118.763 255.026L109.556 256.722L110.322 262.54Z" fill="white" stroke="#263238" stroke-linecap="round" stroke-linejoin="round"/>
<path d="M118.364 246.77C117.84 249.757 117.904 252.817 118.552 255.78C119.661 259.913 122.689 267.416 120.061 269.477C117.432 271.538 113.86 270.419 111.986 266.662C110.111 262.905 108.414 253.53 108.414 245.839C108.414 238.148 109.168 236.829 111.797 236.829C114.426 236.829 118.364 246.77 118.364 246.77Z" fill="white" stroke="#263238" stroke-linecap="round" stroke-linejoin="round"/>
<path d="M112.951 243.212C111.262 244.68 109.275 245.764 107.127 246.393C104.31 246.958 102.812 239.456 102.435 231.986C102.058 224.517 103.944 220.35 107.881 218.477C111.819 216.604 121.403 217.535 125.163 219.031C128.923 220.527 133.427 222.976 133.427 226.911C133.427 230.845 128.346 234.07 126.849 234.956C125.352 235.843 121.78 237.173 119.528 239.456C117.583 241.097 115.354 242.37 112.951 243.212Z" fill="#263238" stroke="#263238" stroke-linecap="round" stroke-linejoin="round"/>
<path d="M112.951 243.213C112.951 243.213 115.169 248.842 119.34 249.02C123.51 249.197 128.213 239.644 128.357 235.51C128.502 231.377 124.22 224.251 124.22 224.251C124.22 224.251 116.899 240.952 112.951 243.213Z" fill="white" stroke="#263238" stroke-linecap="round" stroke-linejoin="round"/>
<path d="M111.83 234.768L112.196 275.295H99.6179L102.435 228.196" fill="#263238"/>
<path d="M111.83 234.768L112.196 275.295H99.6179L102.435 228.196" stroke="#263238" stroke-linecap="round" stroke-linejoin="round"/>
</g>
<defs>
<clipPath id="clip0_1_25">
<rect width="460" height="350" fill="white"/>
</clipPath>
</defs>
</svg>
